<?xml version="1.0" encoding="utf-8"?>
<!-- Generator: Adobe Illustrator 17.0.0, SVG Export Plug-In . SVG Version: 6.00 Build 0)  -->
<!DOCTYPE svg PUBLIC "-//W3C//DTD SVG 1.1//EN" "http://www.w3.org/Graphics/SVG/1.1/DTD/svg11.dtd">
<svg version="1.1"
	 id="svg2" xmlns:cc="http://web.resource.org/cc/" xmlns:rdf="http://www.w3.org/1999/02/22-rdf-syntax-ns#" xmlns:dc="http://purl.org/dc/elements/1.1/" xmlns:inkscape="http://www.inkscape.org/namespaces/inkscape" xmlns:sodipodi="http://sodipodi.sourceforge.net/DTD/sodipodi-0.dtd" xmlns:svg="http://www.w3.org/2000/svg" sodipodi:docname="C172 Dreiseitenriss.svg" inkscape:version="0.44.1" sodipodi:version="0.32" sodipodi:docbase="F:\"
	 xmlns="http://www.w3.org/2000/svg" xmlns:xlink="http://www.w3.org/1999/xlink" x="0px" y="0px" width="235.361px"
	 height="88.047px" viewBox="458.938 -298.083 235.361 88.047" enable-background="new 458.938 -298.083 235.361 88.047"
	 xml:space="preserve">
<path id="path16320" fill="none" stroke="#000000" stroke-width="0.3199" stroke-dasharray="1.2797,1.2797" d="M458.938-210.196
	h119.125"/>
<path id="path7318" sodipodi:nodetypes="ccccsccszscccccc" fill="none" stroke="#000000" stroke-width="0.9597" d="M488.616-257.15
	c4.799,0,9.597,0,11.882-0.857c3.085-5.484,9.252-9.281,12.739-10.112c2.173-3.516,3.904-5.003,6.57-5.77
	c7.179-1.109,29.244-0.698,36.904,1.714c4.364,1.374,7.655,1.444,9.826,5.084c5.827,2.783,6.855,3.485,12.739,7.998
	c1.143,0,53.014-5.484,53.928-5.484c0.914,0,13.996-2.057,15.881-3.028c1.862-0.959,5.746-5.151,9.026-8.855
	c1.073-1.211,17.881-21.137,17.881-21.137l17.652,0.514l-12.225,37.99c1.347,2.932,1.202,4.655,0.343,7.027
	c-1.181,1.619-4.989,1.809-7.427,2.342c-41.608,8.664-106.105,19.861-130.25,21.251"/>
<path id="path7320" sodipodi:nodetypes="czczccc" fill="none" stroke="#000000" stroke-width="0.9597" d="M493.066-228.734
	c-5.541-0.286-11.088-2.134-14.619-4.422c-3.451-2.236-5.47-7.329-7.598-13.482c0,0-9.997-1.085-9.94-4.399
	c0.05-2.914,10.054-3.256,10.054-3.256c-0.154-2.068,1.985-2.495,3.994-2.556c3.505-0.108,10.762-0.428,14.115-0.3"/>
<path id="path8207" sodipodi:nodetypes="cc" fill="none" stroke="#000000" stroke-width="0.9597" d="M497.071-228.415
	c17.524,0.941,28.999,0.89,42.696,0.158"/>
<path id="rect9097" sodipodi:nodetypes="ccccccccc" fill="none" stroke="#000000" stroke-width="0.9597" stroke-linecap="round" stroke-linejoin="round" d="
	M566.78-251.235l7.794,0.057c1.274-0.057,1.563,0.87,1.506,1.689l-0.114,12.125c-0.057,1.39-0.118,2.546-1.849,3.232l-7.222,1.257
	c-2.074,0.229-2.535,0.33-2.477-0.889l0.628-15.439C565.045-250.993,565.677-251.235,566.78-251.235z"/>
<path id="path9100" sodipodi:nodetypes="cczcccc" fill="none" stroke="#000000" stroke-width="0.9597" stroke-linecap="round" stroke-linejoin="round" d="
	M534.79-225.498l17.962,0.171c1.274-0.057,3.379,2.408,3.106,5.231c-0.28,2.902-2.583,2.401-4.134,3.931
	c-8.463,1.104-13.727,1.866-20.476,1.371c-3.431-1.963-5.351-3.155-5.391-4.56C526.153-222.432,532.316-226.069,534.79-225.498z"/>
<path id="path9102" sodipodi:nodetypes="cczcccc" fill="none" stroke="#000000" stroke-width="0.9597" stroke-linecap="round" stroke-linejoin="round" d="
	M489.165-223.452l15.062,0.144c1.069-0.048,2.833,2.016,2.604,4.38c-0.235,2.43-2.166,2.01-3.467,3.292
	c-7.097,0.925-11.511,1.562-17.17,1.148c-2.877-1.644-4.487-2.641-4.521-3.818C481.922-220.885,487.091-223.93,489.165-223.452z"/>
<path id="path9104" sodipodi:nodetypes="cc" fill="none" stroke="#000000" stroke-width="0.9597" d="M487.962-214.326
	c0.763,3.929,5.97,5.702,9.21-0.323"/>
<path id="path9991" sodipodi:nodetypes="cc" fill="none" stroke="#000000" stroke-width="0.9597" d="M532.962-214.771
	c0.883,4.628,8.69,6.071,10.664-0.542"/>
<path id="path9995" fill="none" stroke="#000000" stroke-width="0.6398" d="M681.374-259.245l-2.585,8.725"/>
<path id="path9997" fill="none" stroke="#000000" stroke-width="0.6398" d="M683.474-297.54l-0.969,3.555l1.777,1.777
	l-17.935,32.639"/>
<path id="path9999" fill="none" stroke="#000000" stroke-width="0.6398" d="M666.347-257.306l-0.162,9.048"/>
<path id="path10886" sodipodi:nodetypes="cc" fill="none" stroke="#000000" stroke-width="0.9597" d="M580.143-259.245l67.298-0.162
	"/>
<path id="path11773" sodipodi:nodetypes="ccc" fill="none" stroke="#000000" stroke-width="0.9597" d="M646.154-258.196
	c1.221-3.419,23.434-1.376,33.102-1.29C678.429-259.466,646.474-254.083,646.154-258.196z"/>
<path id="path12660" sodipodi:nodetypes="ccc" fill="none" stroke="#000000" stroke-width="0.9597" d="M518.662-267.324l1.616,3.555
	l-4.201,30.62"/>
<path id="path12662" fill="none" stroke="#000000" stroke-width="0.9597" d="M526.256-266.678l-2.585,3.232l-4.363,30.7"/>
<path id="path12664" sodipodi:nodetypes="czzzz" fill="none" stroke="#000000" stroke-width="0.9597" d="M516.4-234.362
	c-0.969,0.081-4.08,1.05-3.878,2.262c0.202,1.212,1.454,1.939,4.04,1.939s5.538-0.222,6.302-1.939
	c0.646-1.454-2.626-1.293-3.232-1.939"/>
<path id="path12666" fill="none" stroke="#000000" stroke-width="0.9597" d="M470.996-253.913c-0.323,0.808,0,7.433,0,7.433"/>
<path id="path12668" fill="none" stroke="#000000" stroke-width="0.9597" d="M475.197-256.498l0.646,21.167"/>
<path id="path12670" sodipodi:nodetypes="cc" fill="none" stroke="#000000" stroke-width="0.9597" d="M475.439-250.358
	c0.969,0,25.045,1.535,25.045,1.535"/>
<path id="path12672" sodipodi:nodetypes="cccc" fill="none" stroke="#000000" stroke-width="0.9597" d="M500.403-258.033
	l0.162,17.208l-3.232,3.716l0.323,8.402"/>
<path id="path12674" sodipodi:nodetypes="ccc" fill="none" stroke="#000000" stroke-width="0.9597" d="M500.646-258.518
	c2.822,3.681,7.087,7.181,16.724,6.221l2.585-11.634"/>
<path id="path12676" sodipodi:nodetypes="cc" fill="none" stroke="#000000" stroke-width="0.9597" d="M513.007-267.89
	c2.026,1.872,4.224,2.531,6.463,2.908"/>
<path id="path12678" sodipodi:nodetypes="cccc" fill="none" stroke="#000000" stroke-width="0.9597" d="M520.601-233.715
	c0,0,18.292,0.148,22.136-0.162c1.33-0.236,2.921-0.878,3.07-4.201c0.289-4.322-0.323-27.307-0.323-27.307"/>
<path id="path12680" sodipodi:nodetypes="cc" fill="none" stroke="#000000" stroke-width="0.9597" d="M524.641-264.82l41.607-1.697"
	/>
<path id="path12682" sodipodi:nodetypes="cscc" fill="none" stroke="#000000" stroke-width="0.9597" d="M554.048-272.899
	c0,0-0.643,2.366-1.535,2.747c-2.505,1.07-31.427,1.053-31.427,0.242c-1.995-0.173-2.904-0.961-3.393-3.232"/>
<path id="path12684" sodipodi:nodetypes="cc" fill="none" stroke="#000000" stroke-width="0.9597" d="M552.19-270.071l5.009,3.959"
	/>
<path id="path12686" sodipodi:nodetypes="ccczc" fill="none" stroke="#000000" stroke-width="0.9597" d="M579.82-259.083
	l-6.544,3.232c-1.104-0.135-1.958-0.74-2.585-1.616c0,0-3.999-5.978-4.363-7.11c-0.387-1.205,0-2.262,0-2.262"/>
<path id="path12688" sodipodi:nodetypes="czzcccccc" fill="none" stroke="#000000" stroke-width="0.9597" d="M548.958-252.055
	c1.777,0,11.169,0.182,12.684,0.081c1.522-0.102,7.279-2.253,7.594-3.151c0.29-0.826-3.555-7.433-3.555-7.433
	c-0.407-0.913-1.207-1.301-2.26-1.353l-14.706,0.465c-1.131,0.054-1.776,0.19-1.697,1.535l0.242,7.998
	C547.369-252.507,547.735-252.138,548.958-252.055z"/>
<path id="path12690" sodipodi:nodetypes="cccssc" fill="none" stroke="#000000" stroke-width="0.9597" d="M523.671-263.123
	c0.646,0,18.42,0,18.42,0c0.905,0.179,2.056-0.037,1.939,1.777c0,0,0,6.463,0,7.11c0,0.646-0.162,2.585-1.454,2.585
	c-1.293,0-20.278,0.081-20.278,0.081"/>
<path id="path12692" sodipodi:nodetypes="cc" fill="none" stroke="#000000" stroke-width="0.9597" d="M492.971-228.868
	c0,0.969,0,5.494,0,5.494"/>
<path id="path12694" sodipodi:nodetypes="cccc" fill="none" stroke="#000000" stroke-width="0.9597" stroke-linejoin="round" d="
	M492.728-228.787l4.65,0.411l1.975,2.336l-2.989,2.747"/>
<path id="path12696" sodipodi:nodetypes="cczzc" fill="none" stroke="#000000" stroke-width="0.9597" d="M538.779-225.555
	l1.131-2.666c-0.377-0.7-2.154-1.911-1.212-2.585s5.69-0.946,6.867,0.162c1.171,1.102,0,1.427,0.566,2.181"/>
<path id="path12698" sodipodi:nodetypes="cc" fill="none" stroke="#000000" stroke-width="0.9597" d="M544.353-228.626l-1.373,3.232
	"/>
<path id="path13585" sodipodi:nodetypes="cc" fill="none" stroke="#000000" stroke-width="0.6398" d="M518.743-267.163
	c2.23-0.06,4.343-0.278,7.19,0.485"/>
</svg>
