<?xml version="1.0" encoding="utf-8"?>
<!-- Generator: Adobe Illustrator 17.0.0, SVG Export Plug-In . SVG Version: 6.00 Build 0)  -->
<!DOCTYPE svg PUBLIC "-//W3C//DTD SVG 1.1//EN" "http://www.w3.org/Graphics/SVG/1.1/DTD/svg11.dtd">
<svg version="1.1"
	 id="svg2" xmlns:cc="http://web.resource.org/cc/" xmlns:rdf="http://www.w3.org/1999/02/22-rdf-syntax-ns#" xmlns:dc="http://purl.org/dc/elements/1.1/" xmlns:inkscape="http://www.inkscape.org/namespaces/inkscape" xmlns:sodipodi="http://sodipodi.sourceforge.net/DTD/sodipodi-0.dtd" xmlns:svg="http://www.w3.org/2000/svg" sodipodi:docname="C172 Dreiseitenriss.svg" inkscape:version="0.44.1" sodipodi:version="0.32" sodipodi:docbase="F:\"
	 xmlns="http://www.w3.org/2000/svg" xmlns:xlink="http://www.w3.org/1999/xlink" x="0px" y="0px" width="312.793px"
	 height="94.286px" viewBox="-62.279 -309.537 312.793 94.286" enable-background="new -62.279 -309.537 312.793 94.286"
	 xml:space="preserve">
<path id="path14548" fill="none" stroke="#000000" stroke-width="0.3274" stroke-dasharray="1.3095,1.3095" d="M35.45-216.505
	h121.906"/>
<path id="rect3700" sodipodi:nodetypes="cccccccscccccccc" fill="none" stroke="#000000" stroke-width="0.9821" stroke-linecap="round" stroke-linejoin="round" d="
	M-57.152-281.957c-2.391,0.579-3.809,1.257-4.636,3.731c0.492,1.411,2.342,1.419,4.168,1.645l133.659,3.742
	c-0.103,0.378-0.153,0.775-0.153,1.187v27.762c0,2.473,5.129,9.431,7.602,9.431c0,0,12.843,1.164,19.726-0.496
	c2.381-0.574,7.437-5.966,7.437-8.439l-0.165-28.258c0-0.412-0.05-0.809-0.153-1.187l135.008-2.806
	c3.012-0.205,4.446-1.099,4.683-2.084c-0.907-2.14-2.655-3.739-5.701-4.378l-150.901,2.723L-57.152-281.957z"/>
<path id="path3706" fill="none" stroke="#000000" stroke-width="0.4911" d="M-55.539-281.727v4.911"/>
<path id="path3708" fill="none" stroke="#000000" stroke-width="0.4911" d="M24.67-280.791v6.548"/>
<path id="path3710" fill="none" stroke="#000000" stroke-width="0.4911" d="M75.881-272.607v-7.249"/>
<path id="path3712" fill="none" stroke="#000000" stroke-width="0.4911" d="M110.49-272.84v-7.015"/>
<path id="path3714" fill="none" stroke="#000000" stroke-width="0.4911" d="M162.169-274.244v-7.015"/>
<path id="path3716" fill="none" stroke="#000000" stroke-width="0.4911" d="M244.248-276.114v-5.846"/>
<path id="path4603" sodipodi:nodetypes="cc" fill="none" stroke="#000000" stroke-width="0.6548" d="M27.008-274.127l49.148,32.493"
	/>
<path id="path4605" sodipodi:nodetypes="cc" fill="none" stroke="#000000" stroke-width="0.9821" d="M75.836-260.985
	c11.303-4.731,20.982-5.033,34.657,0"/>
<path id="path4609" sodipodi:nodetypes="ccc" fill="none" stroke="#000000" stroke-width="0.9821" d="M82.073-234.753L61.16-223.247
	l-2.057,1.983"/>
<path id="path6381" sodipodi:nodetypes="cc" fill="none" stroke="#000000" stroke-width="0.6548" d="M30.729-273.887l45.407,30.037"
	/>
<path id="path6383" sodipodi:nodetypes="cc" fill="none" stroke="#000000" stroke-width="0.6548" d="M159.033-273.419
	l-49.148,32.493"/>
<path id="path6385" sodipodi:nodetypes="cc" fill="none" stroke="#000000" stroke-width="0.6548" d="M155.782-273.653L110.61-243.85
	"/>
<path id="path6387" sodipodi:nodetypes="ccc" inkscape:transform-center-x="6.4285715" fill="none" stroke="#000000" stroke-width="0.9821" d="
	M79.883-236.792l-18.457,11.038l-1.94-1.291"/>
<path id="rect6389" sodipodi:nodetypes="cccccc" fill="none" stroke="#000000" stroke-width="0.9821" stroke-linecap="round" stroke-linejoin="round" d="
	M55.771-232.269c1.878,0,3.391,2.4,3.391,5.381v6.29c-4.221,0-2.384,0-6.781,0v-6.29C52.38-229.869,53.892-232.269,55.771-232.269z"
	/>
<path id="path6392" sodipodi:nodetypes="cccccc" fill="none" stroke="#000000" stroke-width="0.9821" stroke-linecap="round" stroke-linejoin="round" d="
	M55.888-216.846c1.101,0,1.988-0.765,1.988-1.715v-2.005c-2.475,0-1.398,0-3.975,0v2.005
	C53.9-217.611,54.786-216.846,55.888-216.846z"/>
<path id="path6394" sodipodi:nodetypes="ccc" fill="none" stroke="#000000" stroke-width="0.9821" d="M104.062-235.058
	l20.912,11.506l2.057,1.983"/>
<path id="path6396" sodipodi:nodetypes="ccc" inkscape:transform-center-x="-6.4285717" fill="none" stroke="#000000" stroke-width="0.9821" d="
	M106.252-237.097l18.457,11.038l1.94-1.291"/>
<path id="path6398" sodipodi:nodetypes="cccccc" fill="none" stroke="#000000" stroke-width="0.9821" stroke-linecap="round" stroke-linejoin="round" d="
	M130.364-232.574c-1.878,0-3.391,2.4-3.391,5.381v6.29c4.221,0,2.384,0,6.781,0v-6.29
	C133.755-230.174,132.242-232.574,130.364-232.574z"/>
<path id="path6400" sodipodi:nodetypes="cccccc" fill="none" stroke="#000000" stroke-width="0.9821" stroke-linecap="round" stroke-linejoin="round" d="
	M130.247-217.151c-1.101,0-1.988-0.765-1.988-1.715v-2.005c2.475,0,1.398,0,3.975,0v2.005
	C132.235-217.916,131.348-217.151,130.247-217.151z"/>
<path id="path6402" sodipodi:nodetypes="cccccc" fill="none" stroke="#000000" stroke-width="0.9821" stroke-linecap="round" stroke-linejoin="round" d="
	M94.016-228.709c-1.717,0-3.098,2.018-3.098,4.524v5.288c3.857,0,2.179,0,6.197,0v-5.288
	C97.114-226.691,95.732-228.709,94.016-228.709z"/>
<path id="path6404" sodipodi:nodetypes="cccccc" fill="none" stroke="#000000" stroke-width="0.9821" stroke-linecap="round" stroke-linejoin="round" d="
	M93.909-215.742c-1.006,0-1.816-0.643-1.816-1.442v-1.686c2.261,0,1.277,0,3.633,0v1.686
	C95.725-216.385,94.915-215.742,93.909-215.742z"/>
<path id="path6406" fill="none" stroke="#000000" stroke-width="0.9821" d="M92.484-233.672v5.378"/>
<path id="path6408" fill="none" stroke="#000000" stroke-width="0.9821" d="M95.29-234.139v5.729"/>
<path id="path7295" sodipodi:nodetypes="cccccc" fill="none" stroke="#000000" stroke-width="0.9821" stroke-linecap="round" stroke-linejoin="round" d="
	M46.194-266c0.117-1.551,6.103-1.111,13.683-1.111H75.87c0,1.383,0,0.781,0,2.222H59.877C52.296-264.89,46.311-264.567,46.194-266z"
	/>
<path id="path7299" sodipodi:nodetypes="cccccc" fill="none" stroke="#000000" stroke-width="0.9821" stroke-linecap="round" stroke-linejoin="round" d="
	M140.294-266.163c-0.117-1.551-6.103-1.111-13.683-1.111h-15.994c0,1.383,0,0.781,0,2.222h15.994
	C134.192-265.052,140.177-264.729,140.294-266.163z"/>
<g id="g7312" transform="translate(128.1865,-915.233)">
	<path id="path7305" fill="none" stroke="#000000" stroke-width="0.8935" stroke-linecap="round" stroke-linejoin="round" d="
		M-34.296,655.839c-1.064,0-2.034,0.408-2.762,1.074c-4.155,0.39-7.182,1.564-7.182,2.957c0,1.378,2.963,2.554,7.049,2.957
		c0.741,0.741,1.766,1.197,2.895,1.197c1.109,0,2.117-0.439,2.854-1.156c4.343-0.353,7.55-1.564,7.55-2.998
		c0-1.449-3.278-2.66-7.693-2.998C-32.308,656.23-33.254,655.839-34.296,655.839z"/>
	
		<path id="path7310" sodipodi:type="arc" sodipodi:ry="6.7857141" sodipodi:cy="1095" sodipodi:rx="6.7857141" sodipodi:cx="568.92859" fill="none" stroke="#000000" stroke-width="0.5332" stroke-linecap="round" stroke-linejoin="round" d="
		M-30.09,660.048c0.004,2.26-1.826,4.095-4.086,4.099c-2.26,0.004-4.095-1.826-4.099-4.086c0-0.004,0-0.009,0-0.013
		c-0.004-2.26,1.826-4.095,4.086-4.099c2.26-0.004,4.095,1.826,4.099,4.086C-30.09,660.039-30.09,660.043-30.09,660.048z"/>
</g>
<path id="path7316" sodipodi:nodetypes="cccccc" fill="none" stroke="#000000" stroke-width="0.9821" stroke-linecap="round" stroke-linejoin="round" d="
	M93.987-309.046c2.106,0.116,1.508,6.069,1.508,13.607v15.905c-1.878,0-1.061,0-3.017,0v-15.905
	C92.479-302.977,92.04-308.93,93.987-309.046z"/>
</svg>
