<?xml version="1.0" encoding="utf-8"?>
<!-- Generator: Adobe Illustrator 17.0.0, SVG Export Plug-In . SVG Version: 6.00 Build 0)  -->
<!DOCTYPE svg PUBLIC "-//W3C//DTD SVG 1.1//EN" "http://www.w3.org/Graphics/SVG/1.1/DTD/svg11.dtd">
<svg version="1.1"
	 id="svg2" xmlns:cc="http://web.resource.org/cc/" xmlns:rdf="http://www.w3.org/1999/02/22-rdf-syntax-ns#" xmlns:dc="http://purl.org/dc/elements/1.1/" xmlns:inkscape="http://www.inkscape.org/namespaces/inkscape" xmlns:sodipodi="http://sodipodi.sourceforge.net/DTD/sodipodi-0.dtd" xmlns:svg="http://www.w3.org/2000/svg" sodipodi:docname="C172 Dreiseitenriss.svg" inkscape:version="0.44.1" sodipodi:version="0.32" sodipodi:docbase="F:\"
	 xmlns="http://www.w3.org/2000/svg" xmlns:xlink="http://www.w3.org/1999/xlink" x="0px" y="0px" width="224.221px"
	 height="312.781px" viewBox="202.479 -125.281 224.221 312.781" enable-background="new 202.479 -125.281 224.221 312.781"
	 xml:space="preserve">
<path id="path1952" sodipodi:nodetypes="cssccsssccccssc" fill="none" stroke="#000000" stroke-width="0.9696" d="M213.235,30.965
	l-0.287,6.064c-0.207,4.372,2.61,5.684,7.06,7.318c6.179,2.268,33.057,2.615,33.057,2.615l-1.632,50.604
	c0,0,1.85,71.697,2.054,75.099c0.198,3.288-0.326,13.158,2.688,13.834c3.849,0.863,15.351,0.419,19.813,0.251
	c3.008-0.113,12.011-0.132,12.011-0.132v-6.78l14.365-82.599l1.613-51.758c0,0,5.231,0,8.507-3.077
	c2.742-2.574,4.205-4.388,4.4-7.453l0.253-3.974"/>
<path id="path1954" sodipodi:nodetypes="csssssscc" fill="none" stroke="#000000" stroke-width="0.9696" d="M402.822,34.584
	c0,0,10.543,4.869,10.543,5.685c0,0.816-3.875,26.305-4.531,31.691c-0.609,4.993-4.573,7.28-7.222,7.486
	c-2.612,0.203-11.323,1.288-13.222,0.326c-1.951-0.988-3.837-1.857-4.244-7.509c-0.358-4.973-2.072-20.013-2.449-23.67l-1.143-11.1
	l-76.475,7.875"/>
<path id="path1956" sodipodi:nodetypes="cccc" fill="none" stroke="#000000" stroke-width="0.9696" d="M393.805,80.043
	c0,0-0.104-3.341-0.068-4.678c1.19,0.048,5.1,0.163,5.1,0.163l1.143-40.32"/>
<path id="path1958" sodipodi:nodetypes="csc" fill="none" stroke="#000000" stroke-width="0.9696" d="M419.242,30.482
	c-0.653-0.326-66.483-1.58-71.315-1.413c-5.08,0.171-20.099,2.066-20.099,2.066"/>
<path id="path1960" sodipodi:nodetypes="cc" fill="none" stroke="#000000" stroke-width="0.9696" d="M426.635,31.28l-46.256,6.167"
	/>
<path id="path2848" sodipodi:nodetypes="cssccsssccccssc" fill="none" stroke="#000000" stroke-width="0.9696" d="M213.235,31.254
	l-0.287-6.064c-0.207-4.372,2.61-5.684,7.06-7.318c6.179-2.268,33.057-2.615,33.057-2.615l-1.632-50.604
	c0,0,1.85-71.697,2.054-75.099c0.198-3.288-0.326-13.158,2.688-13.834c3.849-0.863,15.351-0.419,19.813-0.251
	c3.008,0.113,12.011,0.132,12.011,0.132v6.78l14.365,82.599l1.613,51.758c0,0,5.231,0,8.507,3.077
	c2.742,2.574,4.284,4.384,4.4,7.453l0.138,3.628"/>
<path id="path2850" sodipodi:nodetypes="csssssscc" fill="none" stroke="#000000" stroke-width="0.9696" d="M402.938,27.866
	c0,0,10.427-5.1,10.427-5.916c0-0.816-3.875-26.305-4.531-31.691c-0.609-4.993-4.573-7.28-7.222-7.486
	c-2.612-0.203-11.323-1.288-13.222-0.326c-1.951,0.988-3.837,1.857-4.244,7.509c-0.358,4.973-2.072,20.013-2.449,23.67l-1.143,11.1
	l-76.475-7.875"/>
<path id="path2852" sodipodi:nodetypes="cccc" fill="none" stroke="#000000" stroke-width="0.9696" d="M393.805-17.825
	c0,0-0.104,3.341-0.068,4.678c1.19-0.048,5.1-0.163,5.1-0.163l1.143,40.32"/>
<path id="path2854" sodipodi:nodetypes="csc" fill="none" stroke="#000000" stroke-width="0.9696" d="M419.079,32.064
	c-0.653,0.326-66.32,1.253-71.152,1.087c-5.08-0.171-20.099-2.066-20.099-2.066"/>
<path id="path2856" sodipodi:nodetypes="cc" fill="none" stroke="#000000" stroke-width="0.9696" d="M426.289,31.285l-45.91-6.513"
	/>
<path id="path1890" fill="none" stroke="#000000" stroke-width="0.9696" d="M302.363,97.566h-50.93"/>
<path id="path1892" fill="none" stroke="#000000" stroke-width="0.9696" d="M287.835,180.165h-34.28"/>
<path id="path1894" fill="none" stroke="#000000" stroke-width="0.9696" d="M304.159,45.33l-9.631-2.775l-1.306,55.011
	l-12.896,82.762"/>
<path id="path1896" sodipodi:nodetypes="cc" fill="none" stroke="#000000" stroke-width="0.9696" d="M300.078,18.232
	c7.126,6.904,6.965,19.649,0.163,25.628"/>
<path id="path1898" fill="none" stroke="#000000" stroke-width="0.9696" d="M294.528,49.411h-41.463"/>
<path id="path1900" sodipodi:nodetypes="cc" fill="none" stroke="#000000" stroke-width="0.9696" d="M255.759,15.294
	c0,0.979-0.163,31.668-0.163,31.668"/>
<path id="path1902" sodipodi:nodetypes="cc" fill="none" stroke="#000000" stroke-width="0.9696" d="M259.513,12.845
	c0,0.979-0.49,36.402-0.49,36.402"/>
<path id="path1904" sodipodi:nodetypes="cc" fill="none" stroke="#000000" stroke-width="0.9696" d="M251.025,15.294
	c-10.677,5.705-11.389,25.603-0.49,31.831"/>
<path id="path1906" sodipodi:nodetypes="cc" fill="none" stroke="#000000" stroke-width="0.9696" d="M239.924,15.457
	c0,0.979-0.326,31.015-0.326,31.015"/>
<path id="path1908" sodipodi:nodetypes="cc" fill="none" stroke="#000000" stroke-width="0.9696" d="M259.089,46.96h-5.846"/>
<path id="rect1910" fill="none" stroke="#000000" stroke-width="0.9696" stroke-linecap="round" stroke-linejoin="round" d="
	M280.979,37.902L280.979,37.902c0,2.028-1.973,3.673-4.407,3.673h-7.509c-2.434,0-4.407-1.644-4.407-3.673l0,0
	c0-2.028,1.973-3.673,4.407-3.673h7.509C279.006,34.229,280.979,35.874,280.979,37.902z"/>
<path id="rect2799" fill="none" stroke="#000000" stroke-width="0.9696" stroke-linecap="round" stroke-linejoin="round" d="
	M281.142,24.762L281.142,24.762c0,2.028-1.973,3.673-4.407,3.673h-7.509c-2.434,0-4.407-1.644-4.407-3.673v0
	c0-2.028,1.973-3.673,4.407-3.673h7.509C279.169,21.089,281.142,22.733,281.142,24.762z"/>
<path id="path3688" fill="none" stroke="#000000" stroke-width="0.9696" d="M302.416-35.329h-50.93"/>
<path id="path3690" fill="none" stroke="#000000" stroke-width="0.9696" d="M287.887-117.928h-34.28"/>
<path id="path3692" fill="none" stroke="#000000" stroke-width="0.9696" d="M304.211,16.907l-9.631,2.775l-1.306-55.011
	l-12.896-82.762"/>
<path id="path3694" fill="none" stroke="#000000" stroke-width="0.9696" d="M294.58,12.826h-41.463"/>
<path id="path3696" sodipodi:nodetypes="cc" fill="none" stroke="#000000" stroke-width="0.9696" d="M258.926,15.294h-5.846"/>
<path id="path3698" sodipodi:nodetypes="cc" fill="none" stroke="#000000" stroke-width="0.9696" d="M212.835,26.312
	c-13.778,3.257-12.531,6.178,0,10.284"/>
</svg>
