<?xml version="1.0" encoding="utf-8"?>
<!-- Generator: Adobe Illustrator 17.0.0, SVG Export Plug-In . SVG Version: 6.00 Build 0)  -->
<!DOCTYPE svg PUBLIC "-//W3C//DTD SVG 1.1//EN" "http://www.w3.org/Graphics/SVG/1.1/DTD/svg11.dtd">
<svg version="1.1" id="Layer_1" xmlns="http://www.w3.org/2000/svg" xmlns:xlink="http://www.w3.org/1999/xlink" x="0px" y="0px"
	 width="546.299px" height="137.888px" viewBox="695.569 -217.985 546.299 137.888"
	 enable-background="new 695.569 -217.985 546.299 137.888" xml:space="preserve">
<g>
	<path fill="#FFFFFF" d="M969.028-110.949c9.826,0,17.803-6.73,17.803-15.022c0-8.278-7.977-14.996-17.803-14.996
		s-17.79,6.717-17.79,14.996C951.238-117.68,959.202-110.949,969.028-110.949"/>
	<path fill="none" stroke="#000000" stroke-width="1.0889" stroke-linejoin="round" stroke-miterlimit="10" d="M969.042-110.962
		c9.826,0,17.79-6.717,17.79-15.009c0-8.278-7.964-15.009-17.79-15.009c-9.84,0-17.803,6.73-17.803,15.009
		C951.238-117.68,959.202-110.962,969.042-110.962z"/>
	<path fill="none" stroke="#000000" stroke-width="1.0889" stroke-linejoin="round" stroke-miterlimit="10" d="M923.753-110.91
		L923.753-110.91z"/>
	<path fill="none" stroke="#000000" stroke-width="1.0889" stroke-linejoin="round" stroke-miterlimit="10" d="M933.632-81.194
		c2.611,0,4.723-2.112,4.723-4.723v-20.256c0-2.611-2.112-4.736-4.723-4.736h-6.429c-2.611,0-4.723,2.125-4.723,4.736v20.256
		c0,2.611,2.112,4.723,4.723,4.723H933.632z"/>
	<path fill="none" stroke="#000000" stroke-width="1.0889" stroke-linejoin="round" stroke-miterlimit="10" d="M969.409-169.278
		c0,0-25.544,2.847-26.777,22.71c-1.036,16.767-0.866,33.56,10.863,34.793c12.083,1.273,15.914,1.601,15.914,1.601"/>
	<path fill="#FFFFFF" d="M968.727-124.174c1.207,0,2.178-0.853,2.178-1.915c0-1.05-0.971-1.915-2.178-1.915
		s-2.191,0.866-2.191,1.915C966.536-125.026,967.52-124.174,968.727-124.174"/>
	<path fill="none" stroke="#000000" stroke-width="1.0889" stroke-linejoin="round" stroke-miterlimit="10" d="M968.727-124.174
		c1.207,0,2.178-0.853,2.178-1.915c0-1.063-0.971-1.915-2.178-1.915s-2.178,0.853-2.178,1.915
		C966.549-125.026,967.52-124.174,968.727-124.174z"/>
	<path fill="none" stroke="#000000" stroke-width="1.0889" stroke-linejoin="round" stroke-miterlimit="10" d="M946.948-108.693
		l1.732,13.08c0,0-0.984,2.965,4.933,2.703c5.917-0.236,9.866-0.735,9.866-0.735s0.997-15.048,0.249-16.78
		C962.993-112.143,946.45-112.891,946.948-108.693z"/>
	<path fill="none" stroke="#000000" stroke-width="1.0889" stroke-linejoin="round" stroke-miterlimit="10" d="M938.316-93.395
		l10.364-2.217l-0.984-6.665l-9.144,4.447L938.316-93.395z"/>
	<path fill="none" stroke="#000000" stroke-width="1.0889" stroke-linejoin="round" stroke-miterlimit="10" d="M947.696-103.76
		c0,0-29.86-7.412-28.391-48.358l30.109-8.147l-30.109,8.147l-2.06,0.066"/>
	<path fill="none" stroke="#000000" stroke-width="1.0889" stroke-linejoin="round" stroke-miterlimit="10" d="M918.597-141.518
		h19.719c0,0-15.547,4.447,4.933,11.112"/>
	<path fill="none" stroke="#000000" stroke-width="1.0889" stroke-linejoin="round" stroke-miterlimit="10" d="M921.287-141.268
		c0,0-1.482,18.761,20.978,24.179"/>
	<path fill="#FFFFFF" d="M942.75-115.843c0,0-4.028-17.698-0.485-26.659C942.265-142.502,945.715-127.44,942.75-115.843"/>
	<path fill="none" stroke="#000000" stroke-width="1.0889" stroke-linejoin="round" stroke-miterlimit="10" d="M942.75-115.843
		c0,0-4.015-17.711-0.485-26.659C942.265-142.502,945.715-127.44,942.75-115.843z"/>
	<path fill="#FFFFFF" d="M964.345-83.648c1.43,0,2.585-1.155,2.585-2.585v-8.882c0-1.43-1.155-2.598-2.585-2.598
		c-1.43,0-2.598,1.168-2.598,2.598v8.882C961.747-84.802,962.915-83.648,964.345-83.648"/>
	<path fill="none" stroke="#000000" stroke-width="1.0889" stroke-linejoin="round" stroke-miterlimit="10" d="M964.345-83.648
		c1.43,0,2.585-1.154,2.585-2.585v-8.895c0-1.43-1.155-2.585-2.585-2.585c-1.43,0-2.585,1.155-2.585,2.585v8.895
		C961.76-84.802,962.915-83.648,964.345-83.648z"/>
	<path fill="none" stroke="#000000" stroke-width="2.0466" stroke-linejoin="round" stroke-miterlimit="10" d="M968.91-217.02
		c0,0-5.549,1.968-1.482,6.415l-1.968,41.576c0,0-8.646,2.23-16.78,9.131l-29.374,7.78"/>
	<path fill="none" stroke="#000000" stroke-width="2.0466" stroke-linejoin="round" stroke-miterlimit="10" d="M919.306-152.118
		l-219.856,6.166c0,0-6.625,1.233,0.302,4.434l220.158,0.249"/>
	<path fill="none" stroke="#000000" stroke-width="2.0466" stroke-linejoin="round" stroke-miterlimit="10" d="M919.804-141.268
		c0,0-1.561,15.415,15.389,30.66c0,0-8.724-0.052-7.99-0.302c0.735-0.236-4.684-0.997-4.684,5.917c0,6.901,0,19.745-0.039,19.076
		c-0.052-0.669-0.21,5.471,6.704,4.736c6.914-0.735,7.937-0.052,9.171-4.736c1.233-4.697-0.039-7.478-0.039-7.478l10.364-2.217
		c0,0,0.249,2.834,3.45,2.703c3.214-0.118,9.63-0.551,9.63-0.551v7.229c0,0,2.466,5.668,5.169,0v-1.482h1.981"/>
	<path fill="none" stroke="#000000" stroke-width="1.0889" stroke-linejoin="round" stroke-miterlimit="10" d="M1013.569-110.91
		L1013.569-110.91z"/>
	<path fill="none" stroke="#000000" stroke-width="1.0889" stroke-linejoin="round" stroke-miterlimit="10" d="M1003.703-81.194
		c-2.611,0-4.736-2.112-4.736-4.723v-20.256c0-2.611,2.125-4.736,4.736-4.736h6.415c2.611,0,4.736,2.125,4.736,4.736v20.256
		c0,2.611-2.125,4.723-4.736,4.723H1003.703z"/>
	<path fill="none" stroke="#000000" stroke-width="1.0889" stroke-linejoin="round" stroke-miterlimit="10" d="M968.661-169.278
		c0,0,24.809,2.847,26.029,22.71c1.05,16.767,0.879,33.56-10.85,34.793c-12.083,1.273-15.179,1.601-15.179,1.601"/>
	<path fill="none" stroke="#000000" stroke-width="1.0889" stroke-linejoin="round" stroke-miterlimit="10" d="M990.374-108.693
		l-1.719,13.08c0,0,0.984,2.965-4.933,2.703c-5.93-0.236-9.879-0.735-9.879-0.735s-0.984-15.048-0.236-16.78
		C974.342-112.143,990.872-112.891,990.374-108.693z"/>
	<path fill="none" stroke="#000000" stroke-width="1.0889" stroke-linejoin="round" stroke-miterlimit="10" d="M999.02-93.395
		l-10.364-2.217l0.984-6.665l9.131,4.447L999.02-93.395z"/>
	<path fill="none" stroke="#000000" stroke-width="1.0889" stroke-linejoin="round" stroke-miterlimit="10" d="M989.639-103.76
		c0,0,24.599-6.114,28.036-37.85c0.341-3.241,0.472-6.73,0.341-10.509"/>
	<path fill="none" stroke="#000000" stroke-width="1.0889" stroke-linejoin="round" stroke-miterlimit="10" d="M1017.479-141.518
		H999.02c0,0,15.547,4.447-4.946,11.112"/>
	<path fill="none" stroke="#000000" stroke-width="1.0889" stroke-linejoin="round" stroke-miterlimit="10" d="M1016.049-141.268
		c0,0,1.482,18.761-20.978,24.179"/>
	<path fill="#FFFFFF" d="M994.572-115.843c0,0,4.028-17.698,0.499-26.659C995.071-142.502,991.607-127.44,994.572-115.843"/>
	<path fill="none" stroke="#000000" stroke-width="1.0889" stroke-linejoin="round" stroke-miterlimit="10" d="M994.572-115.843
		c0,0,4.028-17.711,0.499-26.659C995.071-142.502,991.62-127.44,994.572-115.843z"/>
	<path fill="#FFFFFF" d="M972.977-83.648c-1.43,0-2.585-1.155-2.585-2.585v-8.882c0-1.43,1.154-2.598,2.585-2.598
		c1.43,0,2.598,1.168,2.598,2.598v8.882C975.575-84.802,974.407-83.648,972.977-83.648"/>
	<path fill="none" stroke="#000000" stroke-width="1.0889" stroke-linejoin="round" stroke-miterlimit="10" d="M972.977-83.648
		c-1.43,0-2.585-1.154-2.585-2.585v-8.895c0-1.43,1.154-2.585,2.585-2.585c1.443,0,2.598,1.155,2.598,2.585v8.895
		C975.575-84.802,974.421-83.648,972.977-83.648z"/>
	<path fill="none" stroke="#000000" stroke-width="2.0466" stroke-linejoin="round" stroke-miterlimit="10" d="M969.16-217.02
		c0,0,4.815,1.968,0.735,6.415l1.981,41.576c0,0,8.633,2.23,16.78,9.131l29.361,7.78"/>
	<path fill="none" stroke="#000000" stroke-width="2.0466" stroke-linejoin="round" stroke-miterlimit="10" d="M1017.531-141.268
		c0,0,1.548,15.415-15.389,30.66c0,0,8.724-0.052,7.977-0.302c-0.735-0.236,4.697-0.997,4.697,5.917c0,6.901,0,19.745,0.039,19.076
		c0.052-0.669,0.197,5.471-6.704,4.736c-6.914-0.735-7.95-0.052-9.184-4.736c-1.233-4.697,0.052-7.478,0.052-7.478l-10.364-2.217
		c0,0-0.249,2.834-3.45,2.703c-3.214-0.118-9.63-0.551-9.63-0.551v7.229c0,0-2.466,5.668-5.182,0v-1.482h-1.233"/>
	<path fill="none" stroke="#000000" stroke-width="1.0889" stroke-linejoin="round" stroke-miterlimit="10" d="M965.578-165.329
		c0,0-15.796,0.866-20.23,17.396c0,0,0.617,3.713,1.482,1.482c0.866-2.217,5.051-13.447,18.498-15.783L965.578-165.329z"/>
	<path fill="none" stroke="#000000" stroke-width="1.0889" stroke-linejoin="round" stroke-miterlimit="10" d="M948.3-144.47
		c0,0,4.447,2.952,6.547,1.351c2.099-1.601,5.064-6.048,11.466-7.399l-0.485-8.882C965.827-159.399,955.214-160.147,948.3-144.47z"
		/>
	<path fill="none" stroke="#000000" stroke-width="1.0889" stroke-linejoin="round" stroke-miterlimit="10" d="M971.626-165.329
		c0,0,15.796,0.866,20.23,17.396c0,0-0.617,3.713-1.483,1.482c-0.853-2.217-5.051-13.447-18.498-15.783L971.626-165.329z"/>
	<path fill="none" stroke="#000000" stroke-width="1.0889" stroke-linejoin="round" stroke-miterlimit="10" d="M988.904-144.47
		c0,0-4.447,2.952-6.547,1.351c-2.099-1.601-5.051-6.048-11.466-7.399l0.485-8.882C971.377-159.399,981.99-160.147,988.904-144.47z"
		/>
	<path fill="none" stroke="#000000" stroke-width="2.0466" stroke-linejoin="round" stroke-miterlimit="10" d="M1018.121-152.118
		l219.869,6.166c0,0,6.625,1.233-0.315,4.434l-220.145,0.249"/>
	<path fill="none" stroke="#000000" stroke-width="1.1545" stroke-linejoin="round" stroke-miterlimit="10" d="M802.359-81.535
		h333.917"/>
</g>
</svg>
