<?xml version="1.0" encoding="utf-8"?>
<!-- Generator: Adobe Illustrator 17.0.0, SVG Export Plug-In . SVG Version: 6.00 Build 0)  -->
<!DOCTYPE svg PUBLIC "-//W3C//DTD SVG 1.1//EN" "http://www.w3.org/Graphics/SVG/1.1/DTD/svg11.dtd">
<svg version="1.1"
	 id="svg2" xmlns:inkscape="http://www.inkscape.org/namespaces/inkscape" xmlns:dc="http://purl.org/dc/elements/1.1/" xmlns:rdf="http://www.w3.org/1999/02/22-rdf-syntax-ns#" xmlns:svg="http://www.w3.org/2000/svg" xmlns:sodipodi="http://sodipodi.sourceforge.net/DTD/sodipodi-0.dtd" xmlns:cc="http://creativecommons.org/ns#" sodipodi:docname="McDONNELL_DOUGLAS_F-4_PHANTOM_II.png" inkscape:version="0.48.1 "
	 xmlns="http://www.w3.org/2000/svg" xmlns:xlink="http://www.w3.org/1999/xlink" x="0px" y="0px" width="334px" height="120px"
	 viewBox="497 -84.5 334 120" enable-background="new 497 -84.5 334 120" xml:space="preserve">
<g>
	
		<path id="path4134" sodipodi:nodetypes="ccccccc" inkscape:connector-curvature="0" stroke="#000000" stroke-width="1.682" stroke-linejoin="round" d="
		M647.181-20.941l-12.992,0.48c-4.525,0.465-7,5.046-7.089,9.388l-0.605,22.935l7.834,1.714l0.612,5.998l4.428-3.829"/>
	
		<path id="path4142" sodipodi:nodetypes="ccsscc" inkscape:connector-curvature="0" fill="#FFFFFF" stroke="#000000" stroke-width="1.682" d="
		M646.913-19.662c-8.143,2.674-7.907,9.328-8.517,17.034c-0.381,5.304-1.029,12.821,0,15.954c0.468,1.424,1.772,2.582,3.119,3.239
		c2.457,1.197,8.157,0.84,8.157,0.84l3.839,0.12"/>
	
		<path id="path4144" sodipodi:nodetypes="cc" inkscape:connector-curvature="0" fill="none" stroke="#000000" stroke-width="1.682" stroke-linejoin="round" d="
		M636.753,18.372c1.657,4.531,11.453,3.362,11.993-0.53"/>
	
		<path id="path4146" sodipodi:nodetypes="ccc" inkscape:connector-curvature="0" fill="none" stroke="#000000" stroke-width="1.682" stroke-linecap="round" stroke-linejoin="round" d="
		M652.623,17.55c-1.694-0.396-3.055-2.757-2.689-4.983c-8.1-5.475,1.061-21.416,3.717-23.173"/>
	
		<path id="path4150" sodipodi:nodetypes="ccccc" inkscape:connector-curvature="0" fill="none" stroke="#000000" stroke-width="1.682" stroke-linecap="round" stroke-linejoin="round" d="
		M658.554,23.956l0.554,6.96c0.488,2.232,1.461,3.637,5.1,3.559c3.638,0.078,4.612-1.327,5.1-3.559l0.554-6.96"/>
	
		<path id="path4152" sodipodi:nodetypes="ccccscc" inkscape:connector-curvature="0" stroke="#000000" stroke-width="1.682" stroke-linejoin="round" d="
		M643.053,12.409c0.224-7.815,0.286-15.146,1.107-24.755c0.404-1.436,0.941-2.81,4.034-3.005l2.768,3.322
		c0,0-2.589,1.111-3.084,2.452c-0.587,1.588,1.068,4.469,1.068,4.469L643.053,12.409z"/>
	
		<path id="path4154" sodipodi:nodetypes="ccccc" inkscape:connector-curvature="0" fill="none" stroke="#000000" stroke-width="1.682" stroke-linejoin="round" d="
		M634.598,17.786l-83.69,0.22L498.381,2.589l53.298,11.342h82.369"/>
	
		<path id="path4156" inkscape:connector-curvature="0" fill="none" stroke="#000000" stroke-width="1.682" stroke-linecap="round" d="
		M566.214,18.336v9.47"/>
	
		<path id="path4158" inkscape:connector-curvature="0" fill="none" stroke="#000000" stroke-width="1.682" stroke-linecap="round" d="
		M606.738,18.116v11.342"/>
	
		<path id="path4160" sodipodi:nodetypes="cc" inkscape:connector-curvature="0" fill="none" stroke="#000000" stroke-width="5.046" d="
		M590.551,18.226v2.973"/>
	
		<path id="path4160-9" sodipodi:nodetypes="cc" inkscape:connector-curvature="0" fill="none" stroke="#000000" stroke-width="5.046" d="
		M574.97,18.226v2.973"/>
	
		<path id="path4198" sodipodi:nodetypes="cc" inkscape:connector-curvature="0" fill="none" stroke="#000000" stroke-width="1.682" d="
		M626.403,9.427c-0.721,0.144-66.002,4.478-66.002,4.478"/>
	
		<path id="path4200" sodipodi:nodetypes="cc" inkscape:connector-curvature="0" fill="none" stroke="#000000" stroke-width="1.682" d="
		M626.619-5.442c-1.117,0.391-33.513,17.259-33.513,17.259"/>
	<path id="path4202" inkscape:connector-curvature="0" fill="none" stroke="#000000" stroke-width="1.682" d="M626.787-1.364
		l-31.335,12.232"/>
	<path id="path4204" inkscape:connector-curvature="0" fill="none" stroke="#000000" stroke-width="1.682" d="M605.897,11.092
		l-2.513,3.128v3.463"/>
	<path id="path4206" inkscape:connector-curvature="0" fill="none" stroke="#000000" stroke-width="1.682" d="M551.549,13.94
		l-0.726,4.133"/>
	
		<path id="path4130-0" sodipodi:nodetypes="ccc" inkscape:connector-curvature="0" fill="none" stroke="#000000" stroke-width="1.682" stroke-linejoin="round" d="
		M666.542-32.281c-0.089-17.233-0.05-34.769-2.334-50.227c-2.284,15.458-2.246,32.994-2.334,50.227"/>
	
		<path id="path4132-2" sodipodi:nodetypes="cscccscc" inkscape:connector-curvature="0" stroke="#000000" stroke-width="1.682" stroke-linejoin="round" d="
		M666.913-35.017c7.928,3.271,14.08,7.833,14.076,14.443c-0.003,5.03-3.515,10.235-11.383,11.75h-5.398h-5.398
		c-7.869-1.516-11.38-6.721-11.383-11.75c-0.005-6.61,6.148-11.172,14.076-14.443L666.913-35.017z"/>
	
		<path id="path4134-4" sodipodi:nodetypes="ccccccc" inkscape:connector-curvature="0" stroke="#000000" stroke-width="1.682" stroke-linejoin="round" d="
		M681.234-20.941l12.992,0.48c4.526,0.465,7,5.046,7.089,9.388l0.605,22.935l-7.834,1.714l-0.612,5.998l-4.428-3.829"/>
	
		<path id="path4142-4" sodipodi:nodetypes="ccsscc" inkscape:connector-curvature="0" fill="#FFFFFF" stroke="#000000" stroke-width="1.682" stroke-linecap="round" d="
		M681.503-19.662c8.143,2.674,7.907,9.328,8.517,17.034c0.381,5.304,1.029,12.821,0,15.954c-0.468,1.424-1.772,2.582-3.119,3.239
		c-2.457,1.197-8.157,0.84-8.157,0.84l-3.839,0.12"/>
	
		<path id="path4144-3" sodipodi:nodetypes="cc" inkscape:connector-curvature="0" fill="none" stroke="#000000" stroke-width="1.682" stroke-linejoin="round" d="
		M691.663,18.372c-1.657,4.531-11.453,3.362-11.993-0.53"/>
	
		<path id="path4146-3" sodipodi:nodetypes="ccc" inkscape:connector-curvature="0" fill="none" stroke="#000000" stroke-width="1.682" stroke-linejoin="round" d="
		M675.793,17.55c1.694-0.396,3.055-2.757,2.689-4.983c8.1-5.475-1.061-21.416-3.717-23.173"/>
	
		<path id="path4148-6" sodipodi:nodetypes="scs" inkscape:connector-curvature="0" fill="none" stroke="#000000" stroke-width="1.682" stroke-linejoin="round" d="
		M664.208,3.63c-15.755,0-12.779,21.61,0,21.354C676.986,25.241,679.962,3.63,664.208,3.63z"/>
	
		<path id="path4152-6" sodipodi:nodetypes="ccccscc" inkscape:connector-curvature="0" stroke="#000000" stroke-width="1.682" stroke-linejoin="round" d="
		M685.362,12.409c-0.224-7.815-0.286-15.146-1.107-24.755c-0.404-1.436-0.941-2.81-4.034-3.005l-2.768,3.322
		c0,0,2.589,1.111,3.084,2.452c0.587,1.588-1.068,4.469-1.068,4.469L685.362,12.409z"/>
	
		<path id="path4154-6" sodipodi:nodetypes="ccccc" inkscape:connector-curvature="0" fill="none" stroke="#000000" stroke-width="1.682" stroke-linejoin="round" d="
		M693.817,17.786l83.69,0.22l52.527-15.417l-53.298,11.342h-82.369"/>
	
		<path id="path4156-1" inkscape:connector-curvature="0" fill="none" stroke="#000000" stroke-width="1.682" stroke-linecap="round" d="
		M762.201,18.336v9.47"/>
	
		<path id="path4158-4" inkscape:connector-curvature="0" fill="none" stroke="#000000" stroke-width="1.682" stroke-linecap="round" d="
		M721.677,18.116v11.342"/>
	
		<path id="path4160-8" sodipodi:nodetypes="cc" inkscape:connector-curvature="0" fill="none" stroke="#000000" stroke-width="5.046" d="
		M737.865,18.226v2.973"/>
	
		<path id="path4160-9-1" sodipodi:nodetypes="cc" inkscape:connector-curvature="0" fill="none" stroke="#000000" stroke-width="5.046" d="
		M753.445,18.226v2.973"/>
	
		<path id="path4198-6" sodipodi:nodetypes="cc" inkscape:connector-curvature="0" fill="none" stroke="#000000" stroke-width="1.682" d="
		M702.012,9.427c0.721,0.144,66.002,4.478,66.002,4.478"/>
	
		<path id="path4200-5" sodipodi:nodetypes="cc" inkscape:connector-curvature="0" fill="none" stroke="#000000" stroke-width="1.682" d="
		M701.796-5.442c1.117,0.391,33.513,17.259,33.513,17.259"/>
	<path id="path4202-9" inkscape:connector-curvature="0" fill="none" stroke="#000000" stroke-width="1.682" d="M701.629-1.364
		l31.335,12.232"/>
	<path id="path4204-6" inkscape:connector-curvature="0" fill="none" stroke="#000000" stroke-width="1.682" d="M722.519,11.092
		l2.514,3.128v3.463"/>
	<path id="path4206-8" inkscape:connector-curvature="0" fill="none" stroke="#000000" stroke-width="1.682" d="M776.866,13.94
		l0.726,4.133"/>
	
		<path id="path4481" sodipodi:nodetypes="cc" inkscape:connector-curvature="0" fill="none" stroke="#000000" stroke-width="1.682" stroke-linecap="round" d="
		M664.208,16.839v1.579"/>
</g>
</svg>
