<?xml version="1.0" encoding="utf-8"?>
<!-- Generator: Adobe Illustrator 17.0.0, SVG Export Plug-In . SVG Version: 6.00 Build 0)  -->
<!DOCTYPE svg PUBLIC "-//W3C//DTD SVG 1.1//EN" "http://www.w3.org/Graphics/SVG/1.1/DTD/svg11.dtd">
<svg version="1.1"
	 id="svg2" xmlns:inkscape="http://www.inkscape.org/namespaces/inkscape" xmlns:dc="http://purl.org/dc/elements/1.1/" xmlns:rdf="http://www.w3.org/1999/02/22-rdf-syntax-ns#" xmlns:svg="http://www.w3.org/2000/svg" xmlns:sodipodi="http://sodipodi.sourceforge.net/DTD/sodipodi-0.dtd" xmlns:cc="http://creativecommons.org/ns#" sodipodi:docname="McDONNELL_DOUGLAS_F-4_PHANTOM_II.png" inkscape:version="0.48.1 "
	 xmlns="http://www.w3.org/2000/svg" xmlns:xlink="http://www.w3.org/1999/xlink" x="0px" y="0px" width="532.75px"
	 height="333.563px" viewBox="-245.469 97.344 532.75 333.563" enable-background="new -245.469 97.344 532.75 333.563"
	 xml:space="preserve">
<g>
	
		<path id="path3761" sodipodi:nodetypes="ccccc" inkscape:connector-curvature="0" fill="none" stroke="#000000" stroke-width="1.7051" stroke-linejoin="round" d="
		M-185.453,272.19l-16.454-0.954l-6.915-7.01l6.915-7.01l16.454-0.954"/>
	<path id="path3763" inkscape:connector-curvature="0" fill="none" stroke="#000000" stroke-width="1.7051" d="M-194.316,275.962
		l-0.09-3.907"/>
	
		<path id="path3765" sodipodi:nodetypes="ccccc" inkscape:connector-curvature="0" fill="none" stroke="#000000" stroke-width="1.7051" d="
		M-64.417,266.746c-39.162,3.798-78.324,5.55-117.486,5.951c-6.679-0.19-8.036-4.179-8.331-8.471
		c0.295-4.292,1.652-8.282,8.331-8.471c39.162,0.401,78.324,2.153,117.486,5.951"/>
	<path id="path3767" inkscape:connector-curvature="0" fill="none" stroke="#000000" stroke-width="1.7051" d="M-152.318,279.306
		l-0.06-6.784"/>
	<path id="path3769" inkscape:connector-curvature="0" fill="none" stroke="#000000" stroke-width="1.7051" d="M-109.793,281.027
		l-0.085-10.566"/>
	<path id="path3773" inkscape:connector-curvature="0" fill="none" stroke="#000000" stroke-width="1.7051" d="M-103.031,273.082
		h39.22"/>
	
		<path id="path3777" sodipodi:nodetypes="ccc" inkscape:connector-curvature="0" fill="none" stroke="#000000" stroke-width="1.7051" stroke-linejoin="round" d="
		M-96.42,281.716l-9.967,3.183c6.652,2.107,16.694,2.378,24.96,2.429"/>
	
		<path id="path3779" sodipodi:nodetypes="cccccc" inkscape:connector-curvature="0" fill="none" stroke="#000000" stroke-width="1.7051" stroke-linejoin="round" d="
		M-80.924,282.134l-0.084,14.909c14.206,4.786,31.056,3.913,46.653,5.277l22.142,19.427 M-9.471,324.154l61.889,54.302"/>
	<path id="path3781" inkscape:connector-curvature="0" fill="none" stroke="#000000" stroke-width="1.7051" d="M-77.503,298.597
		l0.073-16.379"/>
	<path id="path3783" inkscape:connector-curvature="0" fill="none" stroke="#000000" stroke-width="1.7051" d="M-74.154,286.688
		v-3.977"/>
	<path id="path3785" inkscape:connector-curvature="0" fill="none" stroke="#000000" stroke-width="1.7051" d="M-70.76,286.688
		v-4.508"/>
	<path id="path3787" inkscape:connector-curvature="0" fill="none" stroke="#000000" stroke-width="1.7051" d="M-67.366,286.688
		v-4.402"/>
	<path id="path3793" inkscape:connector-curvature="0" fill="none" stroke="#000000" stroke-width="1.7051" d="M-14.387,296.977
		v-14.213"/>
	
		<path id="path3795" sodipodi:nodetypes="cccccc" inkscape:connector-curvature="0" fill="none" stroke="#000000" stroke-width="1.7051" d="
		M-11.948,297.083l21.885,24.131 M13.044,324.639l33.841,37.315 M49.766,365.13l10.622,11.713"/>
	
		<path id="path3797" sodipodi:nodetypes="cccc" inkscape:connector-curvature="0" fill="none" stroke="#000000" stroke-width="1.7051" stroke-linejoin="round" d="
		M34.741,324.304c-26.881,0.503-51.46,0.019-73.469-1.566c22.032-1.622,46.691-1.522,73.469-2.088L34.741,324.304z"/>
	
		<path id="path3799" sodipodi:nodetypes="ccc" inkscape:connector-curvature="0" fill="none" stroke="#000000" stroke-width="1.7051" stroke-linejoin="round" d="
		M27.926,341.327c-5.758,0.069-9.51-0.565-12.108-1.897c2.071-1.061,4.875-1.679,8.843-1.852"/>
	
		<path id="path3799-4" sodipodi:nodetypes="ccc" inkscape:connector-curvature="0" fill="none" stroke="#000000" stroke-width="1.7051" stroke-linejoin="round" d="
		M40.752,355.223c-4.256-0.138-7.22-0.763-9.383-1.872c1.619-0.83,3.685-1.388,6.406-1.675"/>
	<path id="rect3855" fill="none" stroke="#000000" stroke-width="1.7051" stroke-linejoin="round" d="M45.138,363.466
		L45.138,363.466c0-1.049,2.87-1.899,6.41-1.899H98.2c3.54,0,6.41,0.85,6.41,1.899l0,0c0,1.049-2.87,1.899-6.41,1.899H51.548
		C48.008,365.365,45.138,364.515,45.138,363.466z"/>
	
		<path id="path3857" sodipodi:nodetypes="ccccccc" inkscape:connector-curvature="0" fill="none" stroke="#000000" stroke-width="1.7051" stroke-linejoin="round" d="
		M70.62,361.865l-52.643-64.599v-33.04v-33.04l52.643-64.599 M73.352,365.217l49.889,61.219"/>
	
		<path id="path3859" inkscape:connector-curvature="0" fill="none" stroke="#000000" stroke-width="1.7051" stroke-linejoin="round" d="
		M29.956,297.142V267.49h126.166"/>
	
		<path id="path3861" inkscape:connector-curvature="0" fill="none" stroke="#000000" stroke-width="1.7051" stroke-linejoin="round" d="
		M101.857,423.502h4.651l2.132-2.326l-47.094-44.963l-11.047,3.295L101.857,423.502z"/>
	<path id="rect3855-0" fill="none" stroke="#000000" stroke-width="1.7051" stroke-linejoin="round" d="M106.619,428.154
		L106.619,428.154c0-1.049,2.071-1.899,4.626-1.899h33.67c2.555,0,4.626,0.85,4.626,1.899l0,0c0,1.049-2.071,1.899-4.626,1.899
		h-33.67C108.69,430.053,106.619,429.203,106.619,428.154z"/>
	<path id="path3881" inkscape:connector-curvature="0" fill="none" stroke="#000000" stroke-width="1.7051" d="M106.315,423.89
		l1.55,2.519"/>
	<path id="path3883" inkscape:connector-curvature="0" fill="none" stroke="#000000" stroke-width="1.7051" d="M144.882,426.022
		l-26.551-128.686"/>
	
		<path id="path3885" inkscape:connector-curvature="0" fill="none" stroke="#000000" stroke-width="1.7051" stroke-linejoin="round" d="
		M142.944,418.27h-12.791L89.26,297.724"/>
	<path id="path3887" inkscape:connector-curvature="0" fill="none" stroke="#000000" stroke-width="1.7051" d="M116.974,378.152
		h17.83"/>
	<path id="path3889" inkscape:connector-curvature="0" fill="none" stroke="#000000" stroke-width="1.7051" d="M102.439,336.484
		h23.838"/>
	
		<path id="path3891" inkscape:connector-curvature="0" fill="none" stroke="#000000" stroke-width="1.7051" stroke-linejoin="round" d="
		M71.042,300.631h9.109l4.457,11.047h4.457l10.272,29.071l-8.721,2.907L71.042,300.631z"/>
	
		<path id="path3893" sodipodi:nodetypes="cccccccccccccccccc" inkscape:connector-curvature="0" fill="none" stroke="#000000" stroke-width="1.7051" stroke-linejoin="round" d="
		M54.182,297.142l2.907,2.132l6.396,12.403l-2.132,3.295l1.938,2.713l2.713,0.194l3.682,6.589l-2.326,3.876l3.295,3.101h3.295
		l2.132,6.396l-7.171,1.938L57.67,329.314l-4.07,0.388l-4.845-5.039v-2.519l-14.729-11.241v-13.566"/>
	
		<path id="path3895" sodipodi:nodetypes="ccc" inkscape:connector-curvature="0" fill="none" stroke="#000000" stroke-width="1.7051" d="
		M34.034,296.976c0.036-3.569,1.555-4.854,3.757-5.079c42.476,0.017,78.968-1.867,118.3-3.718"/>
	<path id="path3897" inkscape:connector-curvature="0" fill="none" stroke="#000000" stroke-width="1.7051" d="M127.299,295.617
		l-1.7-5.738"/>
	
		<path id="path3899" sodipodi:nodetypes="csssc" inkscape:connector-curvature="0" fill="none" stroke="#000000" stroke-width="1.7051" stroke-linejoin="round" d="
		M155.836,284.769c-11.487,2.956-30.881,4.897-52.871,4.897c-35.27,0-63.862-4.995-63.862-11.157
		c0-6.162,28.592-11.157,63.862-11.157c22.104,0,41.586,1.962,53.05,4.944"/>
	<path id="path3902" inkscape:connector-curvature="0" fill="none" stroke="#000000" stroke-width="1.7051" d="M76.141,293.644h6.47
		"/>
	<path id="path3902-9" inkscape:connector-curvature="0" fill="none" stroke="#000000" stroke-width="1.7051" d="M112.167,293.644
		h6.47"/>
	<path id="path3924" inkscape:connector-curvature="0" fill="none" stroke="#000000" stroke-width="1.7051" d="M156.499,287.142
		l20.325-3.911"/>
	<path id="path3926" inkscape:connector-curvature="0" fill="none" stroke="#000000" stroke-width="1.7051" d="M156.289,280.856
		l20.814-3.841"/>
	<path id="path3928" inkscape:connector-curvature="0" fill="none" stroke="#000000" stroke-width="1.7051" d="M156.149,274.919
		l20.954-2.165"/>
	
		<path id="path3930" sodipodi:nodetypes="cc" inkscape:connector-curvature="0" fill="none" stroke="#000000" stroke-width="1.7051" d="
		M176.894,269.192c-17.099-0.365-16.821,3.106-20.395,5.727"/>
	
		<path id="path3934" sodipodi:nodetypes="ccc" inkscape:connector-curvature="0" fill="none" stroke="#000000" stroke-width="1.7051" stroke-linejoin="round" d="
		M199.364,277.627c27.276-4.185,85.472-10.457,87.08-13.401c-1.402-3.174-59.739-9.086-87.015-13.271"/>
	
		<path id="path3936" inkscape:connector-curvature="0" fill="none" stroke="#000000" stroke-width="1.7051" stroke-linejoin="round" d="
		M206.999,276.985l53.282,56.298l17.342-2.765l-6.535-62.078"/>
	<path id="path3938" inkscape:connector-curvature="0" fill="none" stroke="#000000" stroke-width="1.7051" d="M229.116,300.358
		h44.988"/>
	<path id="path3940" inkscape:connector-curvature="0" fill="none" stroke="#000000" stroke-width="1.7051" d="M236.001,300.613
		l24.558,32.616"/>
	<path id="path3942" inkscape:connector-curvature="0" fill="none" stroke="#000000" stroke-width="1.7051" d="M243.42,300.485
		l22.512,31.849"/>
	
		<path id="path3944" inkscape:connector-curvature="0" fill="none" stroke="#000000" stroke-width="1.7051" stroke-linecap="round" stroke-linejoin="round" d="
		M230.374,274.136l0.128,24.43l-2.302,0.128"/>
	<path id="path3946" inkscape:connector-curvature="0" fill="none" stroke="#000000" stroke-width="1.7051" d="M242.908,272.218
		v28.011"/>
	<path id="path3763-1" inkscape:connector-curvature="0" fill="none" stroke="#000000" stroke-width="1.7051" d="M-194.316,252.49
		l-0.09,3.907"/>
	<path id="path3767-3" inkscape:connector-curvature="0" fill="none" stroke="#000000" stroke-width="1.7051" d="M-152.318,249.147
		l-0.06,6.784"/>
	<path id="path3769-3" inkscape:connector-curvature="0" fill="none" stroke="#000000" stroke-width="1.7051" d="M-109.793,247.425
		l-0.085,10.566"/>
	
		<path id="path3771-5" sodipodi:nodetypes="ccccccc" inkscape:connector-curvature="0" fill="none" stroke="#000000" stroke-width="1.7051" stroke-linejoin="round" d="
		M-63.642,251.82H-103.2v12.406v12.406h39.558v-12.406V251.82z"/>
	<path id="path3773-5" inkscape:connector-curvature="0" fill="none" stroke="#000000" stroke-width="1.7051" d="M-103.031,255.37
		h39.22"/>
	
		<path id="path3775-3" sodipodi:nodetypes="ccccccc" inkscape:connector-curvature="0" fill="none" stroke="#000000" stroke-width="1.7051" stroke-linejoin="round" d="
		M-63.811,251.82h52.744l-0.034-5.865c-15.132,0.645-203.525-2.267-233.491,18.271c29.967,20.537,218.359,17.625,233.491,18.271
		l0.034-5.865h-52.744"/>
	
		<path id="path3777-2" sodipodi:nodetypes="ccc" inkscape:connector-curvature="0" fill="none" stroke="#000000" stroke-width="1.7051" stroke-linejoin="round" d="
		M-96.42,246.737l-9.967-3.183c6.652-2.107,16.694-2.378,24.96-2.429"/>
	
		<path id="path3779-8" sodipodi:nodetypes="cccccc" inkscape:connector-curvature="0" fill="none" stroke="#000000" stroke-width="1.7051" stroke-linejoin="round" d="
		M-80.924,246.318l-0.084-14.909c14.206-4.786,31.056-3.913,46.653-5.277l22.142-19.427 M-9.471,204.299l61.889-54.302"/>
	<path id="path3781-2" inkscape:connector-curvature="0" fill="none" stroke="#000000" stroke-width="1.7051" d="M-77.503,229.855
		l0.073,16.379"/>
	<path id="path3783-5" inkscape:connector-curvature="0" fill="none" stroke="#000000" stroke-width="1.7051" d="M-74.154,241.764
		v3.977"/>
	<path id="path3785-3" inkscape:connector-curvature="0" fill="none" stroke="#000000" stroke-width="1.7051" d="M-70.76,241.764
		v4.508"/>
	<path id="path3787-6" inkscape:connector-curvature="0" fill="none" stroke="#000000" stroke-width="1.7051" d="M-67.366,241.764
		v4.402"/>
	
		<path id="path3789-1" sodipodi:nodetypes="ccccccc" inkscape:connector-curvature="0" fill="none" stroke="#000000" stroke-width="1.7051" stroke-linejoin="round" d="
		M-28.175,261.174h-32.137v3.053v3.053h32.137v-3.053V261.174z"/>
	
		<path id="path3791-8" sodipodi:nodetypes="ccccccccccc" inkscape:connector-curvature="0" fill="none" stroke="#000000" stroke-width="1.7051" stroke-linejoin="round" d="
		M-38.251,226.597v4.773h158.247v1.379c21.989,1.246,28.655-0.271,56.956,7.955v23.523v23.523
		c-28.302,8.226-34.967,6.709-56.956,7.955v1.379H-38.251v4.773"/>
	<path id="path3793-6" inkscape:connector-curvature="0" fill="none" stroke="#000000" stroke-width="1.7051" d="M-14.387,231.476
		v14.213"/>
	
		<path id="path3795-2" sodipodi:nodetypes="cccccc" inkscape:connector-curvature="0" fill="none" stroke="#000000" stroke-width="1.7051" d="
		M-11.948,231.37l21.885-24.131 M13.044,203.814l33.841-37.315 M49.766,163.322l10.622-11.713"/>
	
		<path id="path3797-1" sodipodi:nodetypes="cccc" inkscape:connector-curvature="0" fill="none" stroke="#000000" stroke-width="1.7051" stroke-linejoin="round" d="
		M34.741,204.148c-26.881-0.503-51.46-0.019-73.469,1.566c22.032,1.622,46.691,1.522,73.469,2.088L34.741,204.148z"/>
	
		<path id="path3799-46" sodipodi:nodetypes="ccc" inkscape:connector-curvature="0" fill="none" stroke="#000000" stroke-width="1.7051" stroke-linejoin="round" d="
		M27.926,187.125c-5.758-0.069-9.51,0.565-12.108,1.897c2.071,1.061,4.875,1.679,8.843,1.852"/>
	
		<path id="path3799-4-2" sodipodi:nodetypes="ccc" inkscape:connector-curvature="0" fill="none" stroke="#000000" stroke-width="1.7051" stroke-linejoin="round" d="
		M40.752,173.229c-4.256,0.138-7.22,0.763-9.383,1.872c1.619,0.83,3.685,1.388,6.406,1.675"/>
	<path id="rect3855-9" fill="none" stroke="#000000" stroke-width="1.7051" stroke-linejoin="round" d="M45.138,164.986
		L45.138,164.986c0,1.049,2.87,1.899,6.41,1.899H98.2c3.54,0,6.41-0.85,6.41-1.899v0c0-1.049-2.87-1.899-6.41-1.899H51.548
		C48.008,163.087,45.138,163.937,45.138,164.986z"/>
	
		<path id="path3857-1" sodipodi:nodetypes="cc" inkscape:connector-curvature="0" fill="none" stroke="#000000" stroke-width="1.7051" stroke-linejoin="round" d="
		M73.352,163.236l49.889-61.219"/>
	
		<path id="path3859-5" inkscape:connector-curvature="0" fill="none" stroke="#000000" stroke-width="1.7051" stroke-linejoin="round" d="
		M29.956,231.31v29.652h126.166"/>
	
		<path id="path3861-0" inkscape:connector-curvature="0" fill="none" stroke="#000000" stroke-width="1.7051" stroke-linejoin="round" d="
		M101.857,104.95h4.651l2.132,2.326l-47.094,44.963l-11.047-3.295L101.857,104.95z"/>
	<path id="rect3855-0-3" fill="none" stroke="#000000" stroke-width="1.7051" stroke-linejoin="round" d="M106.619,100.299
		L106.619,100.299c0,1.049,2.071,1.899,4.626,1.899h33.67c2.555,0,4.626-0.85,4.626-1.899v0c0-1.049-2.071-1.899-4.626-1.899h-33.67
		C108.69,98.399,106.619,99.25,106.619,100.299z"/>
	<path id="path3881-6" inkscape:connector-curvature="0" fill="none" stroke="#000000" stroke-width="1.7051" d="M106.315,104.562
		l1.55-2.519"/>
	<path id="path3883-4" inkscape:connector-curvature="0" fill="none" stroke="#000000" stroke-width="1.7051" d="M144.882,102.431
		l-26.551,128.686"/>
	
		<path id="path3885-9" inkscape:connector-curvature="0" fill="none" stroke="#000000" stroke-width="1.7051" stroke-linejoin="round" d="
		M142.944,110.183h-12.791L89.26,230.729"/>
	<path id="path3887-2" inkscape:connector-curvature="0" fill="none" stroke="#000000" stroke-width="1.7051" d="M116.974,150.3
		h17.83"/>
	<path id="path3889-9" inkscape:connector-curvature="0" fill="none" stroke="#000000" stroke-width="1.7051" d="M102.439,191.968
		h23.838"/>
	
		<path id="path3891-3" inkscape:connector-curvature="0" fill="none" stroke="#000000" stroke-width="1.7051" stroke-linejoin="round" d="
		M71.042,227.822h9.109l4.457-11.047h4.457l10.272-29.071l-8.721-2.907L71.042,227.822z"/>
	
		<path id="path3893-4" sodipodi:nodetypes="cccccccccccccccccc" inkscape:connector-curvature="0" fill="none" stroke="#000000" stroke-width="1.7051" stroke-linejoin="round" d="
		M54.182,231.31l2.907-2.132l6.396-12.403l-2.132-3.295l1.938-2.713l2.713-0.194l3.682-6.589l-2.326-3.876l3.295-3.101h3.295
		l2.132-6.396l-7.171-1.938L57.67,199.139l-4.07-0.388l-4.845,5.039v2.519L34.026,217.55v13.566"/>
	
		<path id="path3895-4" sodipodi:nodetypes="ccc" inkscape:connector-curvature="0" fill="none" stroke="#000000" stroke-width="1.7051" d="
		M34.034,231.477c0.036,3.569,1.555,4.854,3.757,5.079c42.476-0.017,78.968,1.867,118.3,3.718"/>
	<path id="path3897-0" inkscape:connector-curvature="0" fill="none" stroke="#000000" stroke-width="1.7051" d="M127.299,232.835
		l-1.7,5.738"/>
	
		<path id="path3899-5" sodipodi:nodetypes="csssc" inkscape:connector-curvature="0" fill="none" stroke="#000000" stroke-width="1.7051" stroke-linejoin="round" d="
		M155.836,243.683c-11.487-2.956-30.881-4.897-52.871-4.897c-35.27,0-63.862,4.995-63.862,11.157
		c0,6.162,28.592,11.157,63.862,11.157c22.104,0,41.586-1.962,53.05-4.944"/>
	<path id="path3902-96" inkscape:connector-curvature="0" fill="none" stroke="#000000" stroke-width="1.7051" d="M76.141,234.808
		h6.47"/>
	<path id="path3902-9-3" inkscape:connector-curvature="0" fill="none" stroke="#000000" stroke-width="1.7051" d="M112.167,234.808
		h6.47"/>
	
		<path id="path3922-4" sodipodi:nodetypes="ccc" inkscape:connector-curvature="0" fill="none" stroke="#000000" stroke-width="1.7051" d="
		M156.078,235.419v28.807v28.807"/>
	<path id="path3924-2" inkscape:connector-curvature="0" fill="none" stroke="#000000" stroke-width="1.7051" d="M156.499,241.31
		l20.325,3.911"/>
	<path id="path3926-8" inkscape:connector-curvature="0" fill="none" stroke="#000000" stroke-width="1.7051" d="M156.289,247.596
		l20.814,3.841"/>
	<path id="path3928-8" inkscape:connector-curvature="0" fill="none" stroke="#000000" stroke-width="1.7051" d="M156.149,253.533
		l20.954,2.165"/>
	
		<path id="path3930-7" sodipodi:nodetypes="cc" inkscape:connector-curvature="0" fill="none" stroke="#000000" stroke-width="1.7051" d="
		M176.894,259.261c-17.099,0.365-16.821-3.106-20.395-5.727"/>
	
		<path id="path3932-5" sodipodi:nodetypes="ccc" inkscape:connector-curvature="0" fill="none" stroke="#000000" stroke-width="1.7051" stroke-linejoin="round" d="
		M177.116,247.166c11.415,0.84,61.785,11.287,64.697,17.06c-3.111,6.023-53.282,16.22-64.697,17.06"/>
	
		<path id="path3936-1" inkscape:connector-curvature="0" fill="none" stroke="#000000" stroke-width="1.7051" stroke-linejoin="round" d="
		M206.999,251.468l53.282-56.298l17.342,2.765l-6.535,62.078"/>
	<path id="path3938-2" inkscape:connector-curvature="0" fill="none" stroke="#000000" stroke-width="1.7051" d="M229.116,228.094
		h44.988"/>
	<path id="path3940-5" inkscape:connector-curvature="0" fill="none" stroke="#000000" stroke-width="1.7051" d="M236.001,227.839
		l24.558-32.616"/>
	<path id="path3942-7" inkscape:connector-curvature="0" fill="none" stroke="#000000" stroke-width="1.7051" d="M243.42,227.967
		l22.512-31.849"/>
	
		<path id="path3944-4" inkscape:connector-curvature="0" fill="none" stroke="#000000" stroke-width="1.7051" stroke-linecap="round" stroke-linejoin="round" d="
		M230.374,254.316l0.128-24.43l-2.302-0.128"/>
	<path id="path3946-4" inkscape:connector-curvature="0" fill="none" stroke="#000000" stroke-width="1.7051" d="M242.908,256.235
		v-28.011"/>
	<path id="path4116" inkscape:connector-curvature="0" fill="none" stroke="#000000" stroke-width="1.7051" d="M37.095,266.939
		v-5.962"/>
	<path id="path4118" inkscape:connector-curvature="0" fill="none" stroke="#000000" stroke-width="1.7051" d="M41.285,266.456
		v-4.834"/>
	<path id="path4120" inkscape:connector-curvature="0" fill="none" stroke="#000000" stroke-width="1.7051" d="M63.681,266.778
		v-5.156"/>
	<path id="path4122" inkscape:connector-curvature="0" fill="none" stroke="#000000" stroke-width="1.7051" d="M67.387,266.778
		v-5.156"/>
	<path id="path4124" inkscape:connector-curvature="0" fill="none" stroke="#000000" stroke-width="1.7051" d="M73.187,266.778
		v-4.995"/>
	<path id="path4126" inkscape:connector-curvature="0" fill="none" stroke="#000000" stroke-width="1.7051" d="M107.023,266.295
		v-4.834"/>
</g>
</svg>
