<?xml version="1.0" encoding="utf-8"?>
<!-- Generator: Adobe Illustrator 17.0.0, SVG Export Plug-In . SVG Version: 6.00 Build 0)  -->
<!DOCTYPE svg PUBLIC "-//W3C//DTD SVG 1.1 Basic//EN" "http://www.w3.org/Graphics/SVG/1.1/DTD/svg11-basic.dtd">
<svg version="1.1" baseProfile="basic"
	 id="svg2" sodipodi:docname="Lockheed_SR-71A_3view.svg" sodipodi:docbase="/home/agude/Desktop" inkscape:version="0.45.1" sodipodi:version="0.32" inkscape:output_extension="org.inkscape.output.svg.inkscape" xmlns:dc="http://purl.org/dc/elements/1.1/" xmlns:cc="http://web.resource.org/cc/" xmlns:rdf="http://www.w3.org/1999/02/22-rdf-syntax-ns#" xmlns:svg="http://www.w3.org/2000/svg" xmlns:sodipodi="http://sodipodi.sourceforge.net/DTD/sodipodi-0.dtd" xmlns:inkscape="http://www.inkscape.org/namespaces/inkscape"
	 xmlns="http://www.w3.org/2000/svg" xmlns:xlink="http://www.w3.org/1999/xlink" x="0px" y="0px" width="935.433px"
	 height="174.068px" viewBox="0 110.379 935.433 174.068" xml:space="preserve">
<path id="path2165" d="M270.791,283.223c0-1.182,0.408-1.224,11.764-1.224c10.787,0,11.651-0.078,10.412-0.946
	c-0.743-0.52-2.075-2.182-2.96-3.692c-2.179-3.719-1.947-9.259,0.545-13.025c4.941-7.466,16.848-6.853,21.04,1.084
	c2.603,4.929,1.332,12.19-2.69,15.353L307.343,282h169.29h169.289l-2.548-2.295c-6.243-5.624-6.677-15.491-0.944-21.472
	c4.124-4.302,9.589-5.803,15.175-4.169c11.573,3.387,14.79,18.492,5.559,26.1l-2.226,1.835h5.953c5.545,0,5.953,0.084,5.953,1.224
	c0,1.221-0.408,1.224-201.027,1.224S270.791,284.445,270.791,283.223z M305.73,280.576c7.39-3.899,7.246-15.088-0.241-18.713
	c-3.352-1.623-6.066-1.625-9.409-0.006c-7.924,3.836-7.895,15.369,0.048,18.976C299.503,282.366,302.488,282.287,305.73,280.576z
	 M659.421,280.316c2.174-1.102,3.953-2.598,5.158-4.336c1.662-2.398,1.839-3.115,1.839-7.444c0-4.328-0.177-5.046-1.839-7.444
	c-1.205-1.738-2.984-3.234-5.158-4.336c-5.706-2.894-10.955-2.017-15.41,2.575c-5.285,5.447-5.412,12.557-0.324,18.123
	C648.032,282.207,653.67,283.233,659.421,280.316z M592.373,243.022c-6.058-0.081-19.818-0.436-30.578-0.788
	c-16.699-0.546-19.641-0.781-20.1-1.601c-0.487-0.871-19.903-0.949-206.86-0.832c-149.51,0.093-210.029-0.066-219.785-0.579
	c-33.039-1.736-55.751-4.352-70.375-8.106c-4.143-1.064-6.589-1.242-15.911-1.163c-6.058,0.051-14.733,0.328-19.277,0.615
	c-6.649,0.42-8.43,0.36-9.125-0.305c-1.466-1.403,1.224-2,13.409-2.974c14.674-1.173,25.408-2.842,31.516-4.901
	c16.99-5.728,48.317-11.899,81.39-16.033l12.851-1.606l7.476-5.282c11.585-8.185,12.41-8.641,16.746-9.242
	c2.16-0.3,11.5-1.012,20.756-1.581c14.452-0.89,19.939-0.944,38.859-0.387c18.504,0.545,23.01,0.859,28.15,1.959l6.12,1.31
	l158.802-0.38c130.945-0.313,160.627-0.535,169.205-1.266c24.35-2.073,67.886-4.788,117.801-7.348
	c10.602-0.543,22.463-1.173,26.358-1.399l7.082-0.411l30.391-33.76c23.028-25.58,30.801-33.841,32.083-34.097
	c10.541-2.098,32.741-3.018,52.469-2.176c8.742,0.373,16.324,0.908,16.848,1.189c0.675,0.362,2.893,8.954,7.608,29.475
	c3.66,15.93,6.749,29.24,6.863,29.577c0.367,1.076-16.183,10.089-18.676,10.169c-1.223,0.04-3.05,0.283-4.06,0.54l-1.836,0.467
	l1.666,0.072c0.916,0.04,3.738,0.528,6.273,1.084l4.607,1.012v5.058v5.058l3.825,0.343c2.104,0.188,7.68,0.641,12.392,1.007
	c10.443,0.81,29.729,3.243,40.083,5.057l7.649,1.341l0.183,2.815l0.183,2.816l-6.302,2.215c-9.981,3.507-19.693,6.28-35.588,10.16
	c-8.127,1.984-17.667,4.315-21.201,5.181c-3.534,0.866-9.592,2.516-13.463,3.666c-12.915,3.839-20.331,5.179-34.792,6.285
	c-9.158,0.701-13.996,0.847-14.637,0.442c-0.934-0.589-14.568,0.998-15.96,1.859c-0.752,0.464-13.388,1.3-37.419,2.474
	C700.125,242.783,646.741,243.753,592.373,243.022z M590.005,235.032c-0.224-3.282-0.579-7.301-0.789-8.932l-0.381-2.965
	l-20.567,0.439c-11.312,0.242-20.593,0.475-20.627,0.518c-0.032,0.043,0.363,3.589,0.879,7.881l0.939,7.802l3.404,0.079
	c3.392,0.079,27.967,0.82,34.245,1.033l3.303,0.112L590.005,235.032z M614.181,239.621l0.083-1.377l0.265,1.377
	c0.166,0.861,0.708,1.377,1.447,1.377c0.799,0,1.201-0.446,1.242-1.377c0.059-1.321,0.081-1.314,0.551,0.153l0.49,1.53l0.144-1.53
	c0.138-1.459,0.157-1.466,0.409-0.153c0.146,0.758,0.521,1.377,0.835,1.377s0.607-0.619,0.653-1.377l0.083-1.377l0.265,1.377
	c0.166,0.861,0.708,1.377,1.447,1.377c0.792,0,1.209-0.453,1.265-1.377c0.078-1.284,0.105-1.274,0.4,0.153l0.316,1.53l0.458-1.53
	c0.437-1.46,0.46-1.467,0.518-0.153c0.042,0.949,0.442,1.377,1.285,1.377c0.836,0,1.25-0.436,1.307-1.377l0.083-1.377l0.265,1.377
	c0.166,0.861,0.708,1.377,1.447,1.377c0.792,0,1.209-0.453,1.265-1.377l0.083-1.377l0.265,1.377l0.265,1.377h19.846h19.846v-9.51
	v-9.51l-14.228,0.337c-7.825,0.185-26.031,0.504-40.458,0.71l-26.23,0.373l0.349,2.833c0.192,1.559,0.514,4.899,0.716,7.423
	c0.654,8.193-0.728,7.343,11.936,7.343C614.072,240.998,614.098,240.995,614.181,239.621z M708.645,239.779
	c24.235-0.759,63.377-2.448,64.408-2.78c0.561-0.181,0.765-2.4,0.765-8.319v-8.073l-27.997,0.407
	c-15.398,0.224-38.255,0.587-50.792,0.808l-22.795,0.401v8.98c0,4.939,0.114,9.094,0.253,9.234
	C672.805,240.759,683.692,240.561,708.645,239.779z M548.007,238.209c0-0.861-0.283-3.546-0.628-5.967
	c-1.249-8.753-1.124-8.379-2.81-8.379c-1.143,0-1.494-0.28-1.343-1.071c0.112-0.589,0.759-1.151,1.438-1.248
	c1.228-0.177,1.226-0.233-0.312-12.239c-0.852-6.653-1.82-12.053-2.158-12.043c-0.337,0.01-1.451,0.226-2.477,0.48l-1.865,0.461
	l2.917,20.632c1.605,11.347,2.926,20.701,2.936,20.785s0.982,0.153,2.16,0.153C547.755,239.774,548.007,239.59,548.007,238.209z
	 M379.874,238.551h161.508l-0.43-2.601c-0.236-1.431-0.532-2.712-0.658-2.847c-0.125-0.136-9.526-2.051-20.89-4.257l-20.661-4.01
	l-45.896-0.215c-88.685-0.415-318.569,1.155-387.06,2.645c-12.887,0.28-18.475,0.209-18.053-0.229
	c1.495-1.551,132.381-3,317.298-3.511l133.1-0.368l19.423-8.367c10.782-4.645,19.316-8.66,19.183-9.026
	c-0.132-0.362-0.436-2.497-0.677-4.744l-0.438-4.086l2.06-0.852c1.133-0.469,5.09-1.322,8.792-1.898s7.971-1.266,9.485-1.534
	c1.515-0.269-65.54-0.447-149.011-0.396l-151.764,0.092l-7.649-1.377c-4.207-0.757-9.042-1.377-10.744-1.377h-3.095l-2.035,4.207
	l-2.035,4.207l-5.886,0.667c-3.237,0.367-9.132,1.004-13.1,1.417l-7.214,0.75l-1.576-1.575c-1.469-1.469-2.569-4.934-2.634-8.293
	c-0.054-2.794,1.07-1.267,1.479,2.009c0.27,2.159,0.921,3.964,1.797,4.983l1.374,1.597l12.48-1.341
	c6.864-0.737,12.525-1.396,12.581-1.464c0.322-0.394,3.308-6.564,3.308-6.834c0-0.179-1.515-0.326-3.366-0.326h-3.366v2.448v2.448
	h-6.731h-6.731v-2.754v-2.754h-9.179c-8.771,0-9.179,0.054-9.179,1.224c0,0.952,0.408,1.224,1.836,1.224
	c1.717,0,1.836,0.151,1.836,2.317c0,2.273-0.148,2.421-7.846,7.847l-7.846,5.53l-10.852,0.805
	c-7.856,0.583-11.223,0.623-12.195,0.144c-0.739-0.364-5.887-0.916-11.44-1.227c-9.43-0.528-11.007-0.449-23.866,1.199
	C91.854,212.078,62.57,218,44.521,223.98c-4.418,1.464-5.661,2.123-5.661,3.005c0,0.838,0.83,1.368,3.213,2.051
	c9.325,2.673,21.647,4.729,38.4,6.408c28.549,2.86,53.835,3.701,101.226,3.367C201.866,238.667,291.044,238.551,379.874,238.551z
	 M785.625,236.317c5.979-0.366,6.504-0.498,6.674-1.683c0.176-1.228,0.573-1.294,8.904-1.456c5.927-0.115,8.72,0.042,8.72,0.49
	c0,0.638,1.255,0.593,10.862-0.386l3.213-0.327v-7.08v-7.081l-3.576,0.374c-1.967,0.206-12.982,0.564-24.478,0.797l-20.902,0.423
	v8.163v8.163h2.046C778.213,236.715,782.055,236.536,785.625,236.317z M792.665,231.697c0.926-0.926,1.004-9.057,0.086-9.057
	c-0.356,0-0.478-0.275-0.27-0.612c0.223-0.36,3.882-0.612,8.909-0.612h8.531v5.508v5.508h-8.996
	C793.93,232.431,792.094,232.268,792.665,231.697z M808.699,226.923v-4.284h-7.037h-7.037v4.284v4.284h7.037h7.037V226.923z
	 M800.743,234.853c1.646-0.379,1.091-0.469-2.399-0.387c-3.061,0.072-4.625,0.362-4.799,0.888
	C793.279,236.16,795.846,235.981,800.743,234.853z M827.057,226.006c0-5.848-0.155-7.037-0.918-7.037s-0.918,1.19-0.918,7.037
	c0,5.848,0.155,7.037,0.918,7.037S827.057,231.853,827.057,226.006z M833.177,225.329c0-6.967-0.001-6.973-1.48-6.973
	c-3.311,0-3.416,0.233-3.416,7.578v6.835l2.448-0.233l2.448-0.233V225.329z M836.715,225.233c0.165-6.563,0.116-6.877-1.071-6.877
	c-1.179,0-1.244,0.37-1.244,7.082c0,6.415,0.101,7.063,1.071,6.877C836.403,232.137,836.565,231.216,836.715,225.233z
	 M857.043,227.242c6.283-1.805,12.522-4.082,10.403-3.798c-0.841,0.113-7.519,1.424-14.84,2.913
	c-12.335,2.51-13.31,2.804-13.31,4.014v1.306l6.273-1.471C849.019,229.397,854.182,228.063,857.043,227.242z M540.056,230.136
	c0.018-1.789-2.704-20.139-3.044-20.521c-0.346-0.388-28.385,11.372-32.189,13.5c-0.781,0.438,1.29,1.024,8.062,2.284
	c5.013,0.933,12.969,2.453,17.681,3.378C540.96,230.819,540.05,230.689,540.056,230.136z M37.637,227.241
	c0-0.936-1.242-0.89-8.567,0.311c-2.273,0.373-1.765,0.464,2.907,0.524C36.601,228.134,37.637,227.982,37.637,227.241z
	 M860.868,223.523l8.414-1.67v-3.301v-3.301l-5.661,0.384c-3.114,0.211-8.773,0.772-12.576,1.246
	c-3.804,0.474-8.003,0.862-9.332,0.862h-2.417v5.138v5.138l6.578-1.414C849.493,225.829,856.24,224.442,860.868,223.523z
	 M882.745,220.519c10.857-2.508,19.065-4.731,15.911-4.309c-4.05,0.542-18.059,2.069-22.795,2.486l-4.743,0.417v2.111
	c0,1.721,0.198,2.054,1.071,1.799C872.778,222.85,877.528,221.724,882.745,220.519z M647.755,220.786
	c141.723-1.935,183.265-3.061,201.638-5.465c2.076-0.272-12.823-0.512-34.269-0.552c-78.621-0.148-188.807,2.745-241.416,6.339
	l-11.933,0.815l21.112-0.27C594.5,221.505,623.69,221.114,647.755,220.786z M569.653,219.596
	c10.054-0.652,18.399-1.305,18.543-1.449c0.314-0.314-2.049-25.497-2.429-25.876c-0.544-0.544-40.651,3.76-41.391,4.442
	c-0.145,0.134,0.394,5.609,1.198,12.167l1.463,11.924l2.168-0.011C550.397,220.787,559.598,220.248,569.653,219.596z
	 M623.889,216.838c11.948-0.479,27.439-1.059,34.422-1.288l12.698-0.417v-14.3v-14.299h-1.788c-4.469,0-69.233,4.154-72.105,4.625
	c-1.507,0.247-2.009,0.653-2.072,1.676c-0.076,1.236-0.113,1.22-0.434-0.181c-0.273-1.19-0.437-0.851-0.739,1.53l-0.388,3.06
	l-0.096-2.907c-0.053-1.599-0.372-2.907-0.708-2.907c-0.337,0-0.616,0.345-0.621,0.765c-0.006,0.51-0.207,0.459-0.603-0.153
	c-0.437-0.676-0.624-0.193-0.709,1.836l-0.116,2.754l-0.229-2.51c-0.211-2.302-0.356-2.486-1.755-2.218
	c-1.404,0.269-1.498,0.493-1.182,2.816c0.385,2.835,2.152,21.646,2.155,22.945c0.002,0.681,1.18,0.764,6.275,0.442
	C599.342,217.888,611.941,217.318,623.889,216.838z M589.795,203.975c0.004-1.683,0.124-2.298,0.264-1.368
	c0.141,0.93,0.137,2.307-0.009,3.06C589.905,206.419,589.79,205.658,589.795,203.975z M592.821,204.893
	c0-1.178,0.126-1.66,0.28-1.071c0.154,0.589,0.154,1.553,0,2.142C592.947,206.553,592.821,206.071,592.821,204.893z
	 M594.104,202.751c0.002-2.356,0.113-3.245,0.246-1.975c0.133,1.27,0.13,3.197-0.005,4.284
	C594.209,206.146,594.101,205.107,594.104,202.751z M595.835,205.505c0-0.841,0.139-1.186,0.308-0.765
	c0.169,0.421,0.169,1.109,0,1.53C595.974,206.691,595.835,206.347,595.835,205.505z M597.164,202.751
	c0.002-2.356,0.113-3.245,0.246-1.975c0.133,1.27,0.13,3.197-0.005,4.284C597.269,206.146,597.161,205.107,597.164,202.751z
	 M591.033,202.139c0.004-2.019,0.117-2.772,0.254-1.672c0.136,1.1,0.133,2.752-0.006,3.672
	C591.141,205.059,591.03,204.159,591.033,202.139z M595.223,199.997c0-0.841,0.139-1.186,0.308-0.765
	c0.169,0.421,0.169,1.109,0,1.53C595.362,201.183,595.223,200.839,595.223,199.997z M613.075,196.02
	c0.003-2.356,0.113-3.245,0.246-1.975c0.133,1.27,0.13,3.197-0.005,4.284C613.18,199.414,613.072,198.376,613.075,196.02z
	 M616.117,196.938c0-1.851,0.114-2.608,0.255-1.683c0.14,0.925,0.14,2.441,0,3.366S616.117,198.789,616.117,196.938z
	 M619.148,197.244c0.007-1.346,0.132-1.825,0.278-1.064c0.146,0.761,0.141,1.863-0.012,2.448
	C619.26,199.213,619.141,198.59,619.148,197.244z M620.413,195.714c0-2.188,0.111-3.082,0.247-1.989
	c0.135,1.094,0.136,2.884,0,3.978C620.524,198.796,620.413,197.902,620.413,195.714z M622.149,198.162
	c0-0.841,0.139-1.186,0.308-0.765s0.169,1.109,0,1.53C622.288,199.348,622.149,199.003,622.149,198.162z M623.478,195.408
	c0.003-2.356,0.113-3.245,0.246-1.975c0.133,1.27,0.13,3.197-0.005,4.284C623.583,198.802,623.475,197.764,623.478,195.408z
	 M626.538,195.408c0.003-2.356,0.113-3.245,0.246-1.975c0.133,1.27,0.13,3.197-0.005,4.284
	C626.643,198.802,626.534,197.764,626.538,195.408z M629.58,196.326c0-1.851,0.114-2.608,0.255-1.683c0.14,0.925,0.14,2.441,0,3.366
	S629.58,198.177,629.58,196.326z M617.347,195.408c0.004-2.019,0.117-2.772,0.254-1.672c0.136,1.1,0.133,2.752-0.006,3.672
	C617.455,198.327,617.344,197.427,617.347,195.408z M632.598,196.938c0-1.178,0.126-1.66,0.28-1.071
	c0.154,0.589,0.154,1.553,0,2.142C632.724,198.598,632.598,198.116,632.598,196.938z M633.876,195.102
	c0-2.188,0.111-3.082,0.247-1.989c0.135,1.094,0.136,2.884,0,3.978C633.987,198.184,633.876,197.29,633.876,195.102z
	 M635.612,197.55c0-0.841,0.139-1.186,0.308-0.765s0.169,1.109,0,1.53C635.751,198.736,635.612,198.391,635.612,197.55z
	 M636.941,194.796c0.002-2.356,0.113-3.245,0.246-1.975c0.133,1.27,0.13,3.197-0.005,4.284
	C637.046,198.19,636.938,197.152,636.941,194.796z M639.996,195.102c0-2.188,0.111-3.082,0.247-1.989s0.136,2.884,0,3.978
	S639.996,197.29,639.996,195.102z M630.81,194.796c0.004-2.019,0.117-2.772,0.254-1.672c0.137,1.1,0.133,2.752-0.006,3.672
	C630.918,197.716,630.807,196.815,630.81,194.796z M589.149,195.714c0-1.178,0.126-1.66,0.28-1.071c0.154,0.589,0.154,1.553,0,2.142
	C589.275,197.374,589.149,196.892,589.149,195.714z M592.164,195.714c0-0.841,0.139-1.186,0.308-0.765s0.169,1.109,0,1.53
	C592.302,196.9,592.164,196.555,592.164,195.714z M595.175,195.969c0.029-0.713,0.174-0.858,0.37-0.37
	c0.177,0.442,0.155,0.969-0.048,1.173C595.293,196.976,595.149,196.614,595.175,195.969z M596.518,194.49
	c0-1.515,0.119-2.135,0.265-1.377c0.146,0.758,0.146,1.996,0,2.754C596.637,196.624,596.518,196.004,596.518,194.49z
	 M614.264,194.49c0-1.515,0.119-2.135,0.265-1.377c0.146,0.758,0.146,1.996,0,2.754C614.383,196.624,614.264,196.004,614.264,194.49
	z M627.736,194.184c0.004-1.683,0.124-2.298,0.264-1.368c0.141,0.93,0.137,2.307-0.009,3.06
	C627.846,196.628,627.731,195.867,627.736,194.184z M624.642,193.266c0-1.178,0.126-1.66,0.28-1.071
	c0.154,0.589,0.154,1.553,0,2.142C624.768,194.926,624.642,194.444,624.642,193.266z M638.105,192.654
	c0-1.178,0.126-1.66,0.28-1.071c0.154,0.589,0.154,1.553,0,2.142C638.231,194.314,638.105,193.832,638.105,192.654z
	 M621.489,192.297c0.029-0.713,0.174-0.858,0.37-0.37c0.177,0.442,0.155,0.969-0.048,1.173
	C621.607,193.304,621.463,192.942,621.489,192.297z M634.952,191.685c0.029-0.713,0.174-0.858,0.37-0.37
	c0.177,0.442,0.155,0.969-0.048,1.173C635.07,192.692,634.926,192.33,634.952,191.685z M888.253,216.13
	c13.781-1.491,15.096-2.06,3.978-1.722c-5.385,0.163-12.338,0.468-15.452,0.677c-5.106,0.342-5.661,0.498-5.661,1.59
	C871.118,218.037,870.42,218.059,888.253,216.13z M719.048,214.051c20.531-0.361,41.185-0.71,45.896-0.777l8.567-0.12l0.163-15.758
	l0.163-15.758l-3.223,0.01c-8.158,0.026-92.918,4.103-96.393,4.636l-1.989,0.305v13.945c0,7.67,0.207,14.154,0.459,14.408
	c0.252,0.255,2.387,0.306,4.743,0.114C679.791,214.866,698.516,214.412,719.048,214.051z M867.905,214.299
	c1.259-0.337,1.377-0.73,1.377-4.581v-4.213h-14.993h-14.993v3.672v3.672h9.461c7.533,0,9.622,0.182,10.25,0.895
	C859.826,214.672,865.251,215.01,867.905,214.299z M892.536,213.037c9.918-0.423,10.348-0.487,5.814-0.873
	c-2.693-0.229-9.922-0.616-16.064-0.859l-11.168-0.442v1.692v1.692l5.355-0.378C879.417,213.663,886.646,213.288,892.536,213.037z
	 M785.598,212.857l7.802-0.009v-1.836c0-1.01-0.292-1.836-0.648-1.836c-0.356,0-0.478-0.275-0.27-0.612
	c0.223-0.36,3.882-0.612,8.909-0.612h8.531v2.448v2.448h7.037h7.037v-15.567v-15.567l-6.83-0.191
	c-6.085-0.17-6.861-0.075-7.109,0.88c-0.248,0.955-1.198,1.071-8.794,1.071c-7.004,0-8.578-0.163-8.867-0.918
	c-0.289-0.755-1.862-0.918-8.854-0.918h-8.502v15.982v15.982l1.377-0.369C777.175,213.031,781.306,212.861,785.598,212.857z
	 M792.482,204.893c-0.208-0.337-0.086-0.612,0.27-0.612c0.917,0,0.84-8.131-0.086-9.057c-0.571-0.571,1.265-0.734,8.261-0.734h8.996
	v5.508v5.508h-8.531C796.364,205.505,792.705,205.254,792.482,204.893z M808.699,199.997v-4.284h-7.037h-7.037v4.284v4.284h7.037
	h7.037V199.997z M792.482,191.43c-0.208-0.337-0.086-0.612,0.27-0.612c0.893,0,0.82-5.091-0.086-5.997
	c-0.571-0.571,1.265-0.734,8.261-0.734h8.996v3.978v3.978h-8.531C796.364,192.042,792.705,191.791,792.482,191.43z M808.699,188.064
	v-2.754h-7.037h-7.037v2.754v2.754h7.037h7.037V188.064z M808.699,211.013v-1.836h-7.037h-7.037v1.836v1.836h7.037h7.037V211.013z
	 M827.057,197.244c0-13.463-0.126-15.605-0.918-15.605s-0.918,2.142-0.918,15.605c0,13.463,0.126,15.605,0.918,15.605
	S827.057,210.707,827.057,197.244z M833.177,197.244v-15.605h-2.448h-2.448v15.605v15.605h2.448h2.448V197.244z M836.849,197.55
	c0-14.891-0.032-15.299-1.224-15.299c-1.192,0-1.224,0.408-1.224,15.299s0.032,15.299,1.224,15.299
	C836.816,212.849,836.849,212.44,836.849,197.55z M923.631,209.482c4.607-1.515,8.761-3.002,9.231-3.304
	c1.431-0.92,0.304-2.313-2.178-2.691c-27.124-4.133-38.372-5.487-52.375-6.307l-7.19-0.421v6.515v6.514h3.241
	c5.005,0,28.337,1.253,33.476,1.799c2.524,0.267,5.226,0.523,6.005,0.568C914.618,212.2,919.024,210.997,923.631,209.482z
	 M171.655,206.634l9.485-0.715l7.487-5.255c5.775-4.054,7.489-5.57,7.496-6.632c0.008-1.124-0.327-1.377-1.826-1.377
	c-1.55,0-1.836-0.238-1.836-1.53c0-1.851,1.057-1.813-16.983-0.614c-13.44,0.893-15.955,1.379-18.756,3.623
	c-1.139,0.913-1.134,1.041,0.252,6.305c0.778,2.955,1.679,5.717,2.003,6.138C159.701,207.516,159.937,207.517,171.655,206.634z
	 M158.166,202.252c-0.365-1.408-0.9-3.455-1.187-4.549c-0.462-1.754-0.379-1.989,0.699-1.989c1.44,0,14.954-1.1,18.748-1.525
	l2.628-0.295l-0.181,4.109l-0.181,4.109l-7.955,1.035c-4.375,0.569-8.845,1.177-9.931,1.351
	C158.918,204.798,158.8,204.697,158.166,202.252z M156.968,205.7c0-0.229-0.576-2.554-1.281-5.167l-1.281-4.749l-4.379,3.128
	c-2.409,1.72-5.343,3.839-6.521,4.708l-2.142,1.579l4.59,0.349C153.211,206.099,156.968,206.151,156.968,205.7z M144.117,204.638
	c0-0.389,9.867-7.218,10.093-6.985c0.109,0.111,0.61,1.786,1.114,3.722l0.916,3.519h-6.061
	C146.845,204.893,144.117,204.779,144.117,204.638z M869.282,199.997c0-4.032-0.081-4.284-1.377-4.293
	c-0.758-0.005-7.16-0.412-14.228-0.905c-7.068-0.493-13.196-0.901-13.616-0.909c-0.553-0.009-0.765,1.428-0.765,5.189v5.202h14.993
	h14.993V199.997z M869.282,191.178v-3.312l-2.295-0.346c-1.262-0.19-7.252-0.905-13.31-1.589
	c-6.058-0.684-11.773-1.371-12.698-1.529l-1.683-0.285v4.268c0,2.347,0.207,4.295,0.459,4.328c2.21,0.289,22.172,1.614,25.396,1.685
	l4.131,0.091V191.178z M866.528,185.584c-5.465-1.502-27.988-3.959-27.034-2.949c0.485,0.514,24.514,3.716,28.258,3.765
	C869.16,186.419,868.875,186.229,866.528,185.584z M801.355,181.608c-4.01-0.714-8.099-0.697-7.649,0.031
	c0.209,0.338,2.621,0.578,5.391,0.535C803.614,182.105,803.837,182.05,801.355,181.608z M808.92,180.109
	c0.414-1.078,8.4-1.195,24.563-0.359c6.223,0.322,13.917,0.256,21.112-0.179l11.321-0.686l7.383-4.181
	c7.092-4.017,7.373-4.252,7.12-5.974c-0.144-0.986-0.455-1.911-0.689-2.056c-0.234-0.144-29.462,0.429-64.95,1.275l-64.523,1.539
	l-4.988,5.311c-2.743,2.921-4.908,5.394-4.812,5.497c0.097,0.102,11.704-0.132,25.794-0.52c21.955-0.605,26.624-0.576,32.656,0.199
	C808.223,181.171,808.511,181.176,808.92,180.109z M819.023,166.666c33.109-0.821,60.259-1.575,60.334-1.674
	c0.075-0.1-2.511-11.609-5.744-25.577l-5.88-25.396l-2.744-0.435c-1.509-0.239-10.592-0.62-20.185-0.846
	c-17.165-0.405-31.174,0.164-41.389,1.679l-4.366,0.647l-23.952,26.556l-23.951,26.556l3.841-0.009
	C757.096,168.163,785.913,167.487,819.023,166.666z"/>
</svg>
