<?xml version="1.0" encoding="utf-8"?>
<!-- Generator: Adobe Illustrator 17.0.0, SVG Export Plug-In . SVG Version: 6.00 Build 0)  -->
<!DOCTYPE svg PUBLIC "-//W3C//DTD SVG 1.1 Basic//EN" "http://www.w3.org/Graphics/SVG/1.1/DTD/svg11-basic.dtd">
<svg version="1.1" baseProfile="basic" id="Layer_1"
	 xmlns="http://www.w3.org/2000/svg" xmlns:xlink="http://www.w3.org/1999/xlink" x="0px" y="0px" width="1672.097px"
	 height="270.424px" viewBox="0 0 1672.097 270.424" xml:space="preserve">
<polyline fill="none" stroke="#000000" stroke-width="3.4626" points="1642.245,144.042 1669.946,2.078 1607.62,2.078 
	1448.345,137.117 "/>
<path fill="none" stroke="#000000" stroke-width="3.4626" d="M1465.657,123.267c0,0-1112.768-74.661-1152.587-57.348
	c0,0-35.058,1.731-73.146,14.499c0,0-27.7,15.149-27.7,22.074c0,0-145.426,10.388-152.351,17.313c0,0,22.506,17.313,91.757,22.506
	c0,0,427.622,1.732,441.472-1.731v8.656h107.338l1.731,48.476c0,0,453.591,6.925,500.335,5.193c0,0,299.508-5.193,304.702-8.656
	l112.532-46.744"/>
<polyline fill="none" stroke="#000000" stroke-width="3.4626" points="1526.251,187.324 1611.082,187.324 1611.082,152.698 "/>
<path fill="none" stroke="#000000" stroke-width="3.4626" d="M759.302,147.505c0,0,51.938,5.193,53.669,12.119v24.238
	c0,0-10.388,5.193-105.607,8.656"/>
<path fill="none" stroke="#000000" stroke-width="3.4626" d="M705.633,144.042c0,0,453.625-19.286,540.154-6.925
	c3.029,0.433-5.194,1.731-5.194,1.731s-55.4,8.657,0,10.388l403.385-3.463c0,0-394.295-13.85-397.758-8.656"/>
<path fill="none" stroke="#000000" stroke-width="3.4626" d="M710.827,144.042c0,0,505.961,6.492,519.811,4.761"/>
<path fill="none" stroke="#000000" stroke-width="3.4626" d="M842.403,147.505v31.162c0,0,3.463,12.119-20.775,13.85H714.289"/>
<line fill="none" stroke="#000000" stroke-width="2.2509" x1="1623.202" y1="3.81" x2="1493.357" y2="140.579"/>
<line fill="none" stroke="#000000" stroke-width="3.4626" x1="1652.633" y1="3.81" x2="1590.308" y2="142.31"/>
<line fill="none" stroke="#000000" stroke-width="2.2509" x1="1519.326" y1="76.522" x2="1590.308" y2="142.31"/>
<path fill="none" stroke="#000000" stroke-width="1.7317" d="M594.832,140.579c0,0,90.026,3.463,245.839-22.506"/>
<line fill="none" stroke="#000000" stroke-width="1.7317" x1="394.006" y1="64.404" x2="394.006" y2="142.31"/>
<line fill="none" stroke="#000000" stroke-width="1.7317" x1="587.907" y1="73.06" x2="587.907" y2="142.31"/>
<line fill="none" stroke="#000000" stroke-width="1.7317" x1="1057.079" y1="147.505" x2="1057.079" y2="201.174"/>
<line fill="none" stroke="#000000" stroke-width="1.7317" x1="1432.763" y1="150.967" x2="1432.763" y2="195.98"/>
<line fill="none" stroke="#000000" stroke-width="1.7317" x1="1289.068" y1="112.879" x2="1289.068" y2="133.654"/>
<line fill="none" stroke="#000000" stroke-width="1.7317" x1="797.39" y1="156.161" x2="797.39" y2="187.324"/>
<polyline fill="none" stroke="#000000" stroke-width="1.7317" points="752.377,199.442 919.444,215.023 918.578,201.174 "/>
<line fill="none" stroke="#000000" stroke-width="1.7317" x1="1574.726" y1="168.279" x2="1574.726" y2="187.324"/>
<polyline fill="none" stroke="#000000" stroke-width="1.7317" points="1205.967,201.174 1204.236,194.249 1290.799,192.517 
	1290.799,197.711 "/>
<polyline fill="none" stroke="#000000" stroke-width="1.7317" points="213.305,101.409 231.051,100.977 240.789,88.425 
	231.483,86.261 "/>
<path fill="none" stroke="#000000" stroke-width="1.7317" d="M310.905,66.135l-15.581,12.119L256.37,86.91
	c0,0-16.447-0.866-18.178-3.463"/>
<path fill="none" stroke="#000000" stroke-width="1.7317" d="M270.22,91.239l0.433,9.088c0,0,11.686-0.865,10.82-6.492
	L270.22,91.239z"/>
<path fill="none" stroke="#000000" stroke-width="1.7317" d="M232.998,102.491l-2.163,35.058l-29.432,0.433l-7.79-12.985
	c0,0-125.95-5.626-127.248-6.059c-1.298-0.433,205.588-16.447,205.588-16.447"/>
<line fill="none" stroke="#000000" stroke-width="2.5967" x1="106.38" y1="270.424" x2="1499.95" y2="270.424"/>
<g>
	<circle fill="none" stroke="#000000" stroke-width="1.7317" cx="790.465" cy="253.111" r="17.139"/>
	<path fill="none" stroke="#000000" stroke-width="1.7317" d="M790.465,253.111"/>
</g>
<g>
	<circle fill="none" stroke="#000000" stroke-width="1.7317" cx="1174.805" cy="251.38" r="17.139"/>
	<path fill="none" stroke="#000000" stroke-width="1.7317" d="M1174.805,251.38"/>
</g>
<g>
	<circle fill="none" stroke="#000000" stroke-width="1.7317" cx="1214.624" cy="251.38" r="17.139"/>
	<path fill="none" stroke="#000000" stroke-width="1.7317" d="M1214.624,251.38"/>
</g>
<path fill="#FFFFFF" stroke="#000000" stroke-width="1.7317" d="M396.602,80.851c0,0-54.534-1.732-62.325,0c0,0-35.491,6.925,0,7.79
	c0,0,38.953-0.433,68.602-2.813c0,0-1.299-0.65-0.217,0.216C402.662,86.044,426.034,82.582,396.602,80.851z"/>
<g>
	<ellipse fill="#FFFFFF" stroke="#000000" stroke-width="1.2117" cx="367.171" cy="81.716" rx="33.053" ry="2.448"/>
	<path fill="#FFFFFF" stroke="#000000" stroke-width="1.2117" d="M367.171,81.716"/>
</g>
<g>
	
		<ellipse transform="matrix(-0.3202 0.9474 -0.9474 -0.3202 648.3368 -285.0989)" fill="#FFFFFF" stroke="#000000" stroke-width="1.7317" cx="426.46" cy="90.069" rx="2.143" ry="27.85"/>
	<path fill="#FFFFFF" stroke="#000000" stroke-width="1.7317" d="M426.46,90.069"/>
</g>
<polygon fill="none" stroke="#000000" stroke-width="1.7317" points="245.117,90.373 237.11,101.409 264.593,101.193 
	265.676,91.239 "/>
<polyline fill="none" stroke="#000000" stroke-width="1.7317" points="63.191,117.938 0,120.536 64.923,122.267 "/>
<line fill="none" stroke="#000000" stroke-width="2.5967" x1="72.963" y1="227.678" x2="1641.486" y2="227.678"/>
<line fill="none" stroke="#000000" stroke-width="2.5967" x1="1642.245" y1="219.248" x2="1642.245" y2="236.107"/>
<g>
	<rect x="786.998" y="222.736" fill="#FFFFFF" width="125.411" height="9.882"/>
	<path fill="#FFFFFF" d="M849.703,227.678"/>
</g>
<g>
	<g>
		<g>
			<g>
				<text transform="matrix(1 0 0 1 799.3916 235.9684)" font-family="'_Helvetica'" font-size="28.6591">(56.62m)</text>
			</g>
		</g>
	</g>
</g>
<line fill="none" stroke="#000000" stroke-width="2.5967" x1="72.963" y1="220.205" x2="72.963" y2="237.065"/>
</svg>
