<?xml version="1.0" encoding="utf-8"?>
<!-- Generator: Adobe Illustrator 17.0.0, SVG Export Plug-In . SVG Version: 6.00 Build 0)  -->
<!DOCTYPE svg PUBLIC "-//W3C//DTD SVG 1.1 Basic//EN" "http://www.w3.org/Graphics/SVG/1.1/DTD/svg11-basic.dtd">
<svg version="1.1" baseProfile="basic" id="Layer_1"
	 xmlns="http://www.w3.org/2000/svg" xmlns:xlink="http://www.w3.org/1999/xlink" x="0px" y="0px" width="1649.197px"
	 height="912.637px" viewBox="0 0 1649.197 912.637" xml:space="preserve">
<polyline fill="none" stroke="#000000" stroke-width="3.3721" points="320.345,414.415 377.671,329.271 447.641,329.271 
	473.774,413.572 "/>
<path fill="none" stroke="#000000" stroke-width="3.3721" d="M71.656,443.92c0,0,13.488-18.546,84.302-23.604
	c0,0,193.051-16.017,519.297,0c0,0,263.02,10.116,289.997,10.116c0,0,272.715,8.009,306.857-3.372c0,0,163.545-5.058,215.811,0
	l99.476-1.686"/>
<line fill="none" stroke="#000000" stroke-width="1.6864" x1="397.06" y1="330.114" x2="357.438" y2="413.572"/>
<line fill="none" stroke="#000000" stroke-width="1.6864" x1="416.45" y1="329.271" x2="416.45" y2="413.572"/>
<polyline fill="none" stroke="#000000" stroke-width="3.3721" points="698.859,420.316 1589.082,5.553 1626.175,5.553 
	1626.175,302.294 1589.082,339.387 1589.082,459.095 "/>
<rect x="1545.245" y="138.75" fill="none" stroke="#000000" stroke-width="3.3721" width="80.929" height="161.859"/>
<path fill="none" stroke="#000000" stroke-width="3.3721" d="M1585.71,214.62"/>
<line fill="none" stroke="#000000" stroke-width="1.6864" x1="1546.931" y1="192.702" x2="1626.175" y2="192.702"/>
<line fill="none" stroke="#000000" stroke-width="1.6864" x1="1546.931" y1="165.726" x2="1626.175" y2="165.726"/>
<line fill="none" stroke="#000000" stroke-width="1.6864" x1="1545.245" y1="244.969" x2="1624.488" y2="244.969"/>
<line fill="none" stroke="#000000" stroke-width="1.6864" x1="1545.245" y1="217.993" x2="1624.488" y2="217.993"/>
<line fill="none" stroke="#000000" stroke-width="1.6864" x1="1545.245" y1="273.632" x2="1624.488" y2="273.632"/>
<path fill="#FFFFFF" stroke="#000000" stroke-width="1.6864" d="M1545.245,179.214l-364.183,8.431c0,0-18.546,3.372-3.372,5.058
	l367.555-3.372"/>
<polygon fill="#FFFFFF" stroke="#000000" stroke-width="1.6864" points="1649.779,336.015 1501.408,327.584 1425.537,334.328 
	1501.408,341.073 "/>
<polyline fill="none" stroke="#000000" stroke-width="1.6864" points="1381.7,423.688 1381.7,334.328 1410.363,334.328 
	1410.363,424.11 "/>
<line fill="none" stroke="#000000" stroke-width="1.6864" x1="1398.561" y1="334.328" x2="1398.561" y2="424.11"/>
<line fill="none" stroke="#000000" stroke-width="1.6864" x1="1382.543" y1="372.265" x2="1409.52" y2="372.265"/>
<line fill="none" stroke="#000000" stroke-width="1.6864" x1="1382.965" y1="382.802" x2="1409.942" y2="382.802"/>
<line fill="none" stroke="#000000" stroke-width="1.6864" x1="1382.543" y1="413.151" x2="1409.52" y2="413.151"/>
<path fill="none" stroke="#000000" stroke-width="1.6864" d="M73.764,442.656c0,0,66.599-10.537,157.222-5.058"/>
<path fill="none" stroke="#000000" stroke-width="1.6864" d="M266.393,446.871l-0.421-19.811c0,0-21.497-0.843-34.564,4.637v14.753"
	/>
<polyline fill="none" stroke="#000000" stroke-width="1.6864" points="266.393,427.06 313.18,423.266 314.023,444.763 
	277.352,445.185 266.815,441.391 "/>
<line fill="none" stroke="#000000" stroke-width="0.8432" x1="238.995" y1="430.433" x2="266.393" y2="438.019"/>
<line fill="none" stroke="#000000" stroke-width="0.8432" x1="232.251" y1="435.069" x2="264.707" y2="444.342"/>
<path fill="none" stroke="#000000" stroke-width="1.6864" d="M257.963,427.06c0,0-96.525-0.843-108.327,3.372v15.595"/>
<polyline fill="none" stroke="#000000" stroke-width="3.3721" points="320.263,480.374 376.086,566.51 446.046,567.737 
	473.654,483.907 "/>
<path fill="none" stroke="#000000" stroke-width="3.3721" d="M72.129,446.513c0,0,13.161,18.78,83.875,25.079
	c0,0,192.74,19.4,519.217,9.104c0,0,263.158-5.503,290.13-5.03c0,0,272.814-3.226,306.751,8.752c0,0,163.431,7.924,215.779,3.784
	l99.431,3.43"/>
<line fill="none" stroke="#000000" stroke-width="1.6864" x1="395.487" y1="566.008" x2="357.335" y2="481.867"/>
<line fill="none" stroke="#000000" stroke-width="1.6864" x1="414.859" y1="567.19" x2="416.337" y2="482.902"/>
<polyline fill="none" stroke="#000000" stroke-width="3.3721" points="698.822,481.11 1581.637,911.417 1618.724,912.068 
	1623.927,615.372 1587.49,577.635 1589.589,457.945 "/>
<rect x="1501.09" y="656.801" transform="matrix(0.0175 -0.9998 0.9998 0.0175 857.1299 2266.8191)" fill="none" stroke="#000000" stroke-width="3.3721" width="161.859" height="80.929"/>
<path fill="none" stroke="#000000" stroke-width="3.3721" d="M1581.931,702.323"/>
<line fill="none" stroke="#000000" stroke-width="1.6864" x1="1542.774" y1="723.558" x2="1622.005" y2="724.947"/>
<line fill="none" stroke="#000000" stroke-width="1.6864" x1="1542.301" y1="750.53" x2="1621.532" y2="751.919"/>
<line fill="none" stroke="#000000" stroke-width="1.6864" x1="1542.005" y1="671.269" x2="1621.236" y2="672.658"/>
<line fill="none" stroke="#000000" stroke-width="1.6864" x1="1541.532" y1="698.241" x2="1620.763" y2="699.631"/>
<line fill="none" stroke="#000000" stroke-width="1.6864" x1="1542.508" y1="642.611" x2="1621.739" y2="644.001"/>
<path fill="#FFFFFF" stroke="#000000" stroke-width="1.6864" d="M1540.852,737.014l-363.979-14.814c0,0-18.484-3.697-3.282-5.117
	l367.439,9.816"/>
<polygon fill="#FFFFFF" stroke="#000000" stroke-width="1.6864" points="1648.119,582.07 1499.623,587.898 1423.882,579.825 
	1499.86,574.412 "/>
<polyline fill="none" stroke="#000000" stroke-width="1.6864" points="1381.618,489.71 1380.052,579.056 1408.71,579.559 
	1410.284,489.792 "/>
<line fill="none" stroke="#000000" stroke-width="1.6864" x1="1396.909" y1="579.352" x2="1398.483" y2="489.584"/>
<line fill="none" stroke="#000000" stroke-width="1.6864" x1="1381.56" y1="541.141" x2="1408.532" y2="541.614"/>
<line fill="none" stroke="#000000" stroke-width="1.6864" x1="1382.166" y1="530.612" x2="1409.138" y2="531.085"/>
<line fill="none" stroke="#000000" stroke-width="1.6864" x1="1382.276" y1="500.261" x2="1409.249" y2="500.734"/>
<path fill="none" stroke="#000000" stroke-width="1.6864" d="M74.214,447.814c0,0,66.403,11.703,157.109,7.814"/>
<path fill="none" stroke="#000000" stroke-width="1.6864" d="M266.887,446.977l-0.768,19.8c0,0-21.509,0.466-34.477-5.242
	l0.259-14.75"/>
<polyline fill="none" stroke="#000000" stroke-width="1.6864" points="266.54,466.785 313.253,471.398 314.474,449.919 
	277.815,448.855 267.213,452.463 "/>
<line fill="none" stroke="#000000" stroke-width="0.8432" x1="239.205" y1="462.933" x2="266.732" y2="455.827"/>
<line fill="none" stroke="#000000" stroke-width="0.8432" x1="232.543" y1="458.178" x2="265.158" y2="449.476"/>
<path fill="none" stroke="#000000" stroke-width="1.6864" d="M258.111,466.637c0,0-96.525-0.85-108.252-5.271l0.274-15.593"/>
<line fill="none" stroke="#000000" stroke-width="1.6864" x1="405.49" y1="415.258" x2="405.49" y2="482.7"/>
<line fill="none" stroke="#000000" stroke-width="1.6864" x1="589.267" y1="418.63" x2="589.267" y2="481.013"/>
<line fill="none" stroke="#000000" stroke-width="1.6864" x1="1273.795" y1="428.746" x2="1273.795" y2="484.385"/>
<line fill="none" stroke="#000000" stroke-width="1.6864" x1="1481.177" y1="425.374" x2="1481.177" y2="486.071"/>
<line fill="none" stroke="#000000" stroke-width="1.6864" x1="1487.92" y1="427.06" x2="1487.92" y2="487.757"/>
<polyline fill="none" stroke="#000000" stroke-width="1.6864" points="73.343,442.235 0,443.078 73.343,447.292 "/>
<g>
	<line fill="none" stroke="#949494" stroke-width="2.5289" x1="1038.419" y1="5.553" x2="1074.313" y2="5.553"/>
</g>
<g>
	<line fill="none" stroke="#949494" stroke-width="2.5289" x1="1035.76" y1="912.637" x2="1071.655" y2="912.637"/>
</g>
<line fill="none" stroke="#949494" stroke-width="2.5289" x1="1059.209" y1="8.925" x2="1059.209" y2="912.637"/>
<g>
	<rect x="1038.276" y="427.199" fill="#FFFFFF" width="47.328" height="62.385"/>
	<path fill="#FFFFFF" d="M1061.94,458.392"/>
</g>
<text transform="matrix(1 0 0 1 1030.1171 466.1323)" fill="#CDCFD0" font-family="'MyriadPro-Regular'" font-size="32.4559">32m</text>
</svg>
