<?xml version="1.0" encoding="utf-8"?>
<!-- Generator: Adobe Illustrator 17.0.0, SVG Export Plug-In . SVG Version: 6.00 Build 0)  -->
<!DOCTYPE svg PUBLIC "-//W3C//DTD SVG 1.1//EN" "http://www.w3.org/Graphics/SVG/1.1/DTD/svg11.dtd">
<svg version="1.1" id="Layer_1" xmlns="http://www.w3.org/2000/svg" xmlns:xlink="http://www.w3.org/1999/xlink" x="0px" y="0px"
	 width="611.512px" height="140.831px" viewBox="-71.334 536.064 611.512 140.831"
	 enable-background="new -71.334 536.064 611.512 140.831" xml:space="preserve">
<path fill="none" stroke="#000000" stroke-width="1.3529" stroke-linejoin="round" stroke-miterlimit="10" d="M92.47,647.508
	l-0.104,7.831l47.117,0.976l0.104-8.56"/>
<path fill="none" stroke="#000000" stroke-width="2.0293" stroke-linejoin="round" stroke-miterlimit="10" d="M-70.319,633.667
	l34.278-2.003c0,0,42.746-12.67,111.366-21.087c0,0,36.944-18.615,70.246-20.137c33.289-1.535,135.445,9.08,135.445,9.08
	l98.358,0.781l94.26-61.934l51.41-1.288c0,0,2.914,1.509,1.886,5.893c-1.041,4.397-17.991,66.331-17.991,66.331
	s2.589,8.599,0.156,25.939c0,0-59.15,13.672-57.615,9.054c0,0-2.732,2.654-6.908,4.072l-86.221,7.454l-8.716-7.701l-317.851-0.911
	c0,0-49.862-3.577-67.879-11.63L-70.319,633.667z"/>
<path fill="none" stroke="#000000" stroke-width="2.0293" stroke-linejoin="round" stroke-miterlimit="10" d="M316.009,675.359
	c7.441,0.091,13.555-5.867,13.646-13.308c0.104-7.441-5.854-13.555-13.308-13.646c-7.428-0.091-13.542,5.854-13.646,13.295
	C302.61,669.154,308.568,675.255,316.009,675.359z"/>
<path fill="none" stroke="#000000" stroke-width="1.0797" stroke-linejoin="round" stroke-miterlimit="10" d="M316.074,670.013
	c4.488,0.052,8.182-3.538,8.234-8.026c0.052-4.488-3.538-8.182-8.026-8.234c-4.488-0.065-8.182,3.538-8.234,8.026
	C307.982,666.266,311.586,669.948,316.074,670.013z"/>
<path fill="none" stroke="#000000" stroke-width="2.0293" stroke-linejoin="round" stroke-miterlimit="10" d="M130.533,675.294
	c4.397,0.039,8-3.473,8.065-7.87c0.052-4.397-3.473-8-7.87-8.052c-4.384-0.065-8,3.46-8.052,7.857
	C122.611,671.613,126.136,675.229,130.533,675.294z"/>
<path fill="none" stroke="#000000" stroke-width="1.0797" stroke-linejoin="round" stroke-miterlimit="10" d="M138.221,590.83
	l-7.103,19.487l-17.627,0.754l-0.312-14.192l-5.386,0.911l-0.182,14.192c0,0-28.905,2.068-33.757-0.924"/>
<path fill="none" stroke="#000000" stroke-width="1.0797" stroke-linejoin="round" stroke-miterlimit="10" d="M526.929,542.971
	l-55.768-2.667"/>
<path fill="none" stroke="#000000" stroke-width="1.0797" stroke-linejoin="round" stroke-miterlimit="10" d="M508.34,542.243
	l-36.099,66.096"/>
<path fill="none" stroke="#000000" stroke-width="2.0293" stroke-linejoin="round" stroke-miterlimit="10" d="M508.938,609.302
	l-229.887-9.808"/>
<path fill="none" stroke="#000000" stroke-width="1.3529" stroke-linejoin="round" stroke-miterlimit="10" d="M263.259,647.742
	c0,0,27.214,15.025,35.292,14.765l-0.091-3.916c0,0-9.496-2.081-18.68-10.511"/>
<path fill="none" stroke="#000000" stroke-width="1.0797" stroke-linejoin="round" stroke-miterlimit="10" d="M33.645,616.899
	c0,0-3.512,7.298-0.39,30.817"/>
<path fill="none" stroke="#000000" stroke-width="1.0797" stroke-linejoin="round" stroke-miterlimit="10" d="M140.016,604.072
	c0,0,32.912-9.86,190.276,6.361l-2.485,3.395C327.807,613.829,160.908,615.598,140.016,604.072z"/>
<path fill="none" stroke="#000000" stroke-width="1.0797" stroke-linejoin="round" stroke-miterlimit="10" d="M493.38,638.961
	c0,0,2.276-23.962,0.403-30.349"/>
<path fill="none" stroke="#000000" stroke-width="1.0797" stroke-linejoin="round" stroke-miterlimit="10" d="M483.572,641.277
	c0,0,2.745-23.454-0.065-32.795"/>
<path fill="none" stroke="#000000" stroke-width="1.0797" stroke-linejoin="round" stroke-miterlimit="10" d="M451.48,644.295
	c0,0,3.499-25.406,0.234-36.71"/>
<path fill="#FFFFFF" d="M388.948,616.574c0,0,71.586-10.823,150.691,3.395C539.639,619.969,422.679,619.448,388.948,616.574"/>
<path fill="none" stroke="#000000" stroke-width="1.0797" stroke-linejoin="round" stroke-miterlimit="10" d="M388.948,616.561
	c0,0,71.586-10.823,150.691,3.408C539.639,619.969,422.679,619.448,388.948,616.561z"/>
<path fill="none" stroke="#000000" stroke-width="1.0797" stroke-linejoin="round" stroke-miterlimit="10" d="M130.572,671.821
	c2.485,0.026,4.527-1.951,4.553-4.436c0.039-2.485-1.951-4.527-4.436-4.553c-2.485-0.039-4.514,1.951-4.553,4.436
	C126.097,669.753,128.087,671.795,130.572,671.821z"/>
<path fill="none" stroke="#000000" stroke-width="2.0293" stroke-linejoin="round" stroke-miterlimit="10" d="M91.052,675.88
	h384.962"/>
</svg>
