<?xml version="1.0" encoding="utf-8"?>
<!-- Generator: Adobe Illustrator 17.0.0, SVG Export Plug-In . SVG Version: 6.00 Build 0)  -->
<!DOCTYPE svg PUBLIC "-//W3C//DTD SVG 1.1//EN" "http://www.w3.org/Graphics/SVG/1.1/DTD/svg11.dtd">
<svg version="1.1" id="Layer_1" xmlns="http://www.w3.org/2000/svg" xmlns:xlink="http://www.w3.org/1999/xlink" x="0px" y="0px"
	 width="613.405px" height="546.968px" viewBox="-71.338 -52.015 613.405 546.968"
	 enable-background="new -71.338 -52.015 613.405 546.968" xml:space="preserve">
<path fill="none" stroke="#000000" stroke-width="1.3581" stroke-linejoin="round" stroke-miterlimit="10" d="M395.131,264.913
	c-15.096-0.052-28.899-0.091-39.542-0.131"/>
<path fill="none" stroke="#000000" stroke-width="1.0839" stroke-linejoin="round" stroke-miterlimit="10" d="M355.59,264.783
	c-13.085-0.052-21.377-0.078-21.377-0.078s-32.307-1.149-74.67,19.013"/>
<path fill="none" stroke="#000000" stroke-width="2.0372" stroke-linejoin="round" stroke-miterlimit="10" d="M258.747,284.096
	c-0.144,0.078-0.287,0.144-0.444,0.222l-105.788-38.458l-52.6-0.444c0,0-64.68-1.815-90.862-6.699
	c-26.183-4.897-40.404-12.105-40.404-12.105l-38.588-0.601h-0.379l38.562-1.724c0,0,13.999-7.613,40.038-13.255
	c26.039-5.654,90.627-9.337,90.627-9.337l52.561-1.959l103.438-41.357l0.901-0.562"/>
<path fill="none" stroke="#000000" stroke-width="2.0372" stroke-linejoin="round" stroke-miterlimit="10" d="M395.38,265.305
	l-0.562-0.509c0,0,6.268,0.104,6.999,0.078c0.744-0.013,110.999,72.358,110.999,72.358s0.784,1.449,2.912-1.319
	c1.698-2.194,11.23-16.95,15.318-22.317l3.447-0.118c3.056-0.705,3.095-3.539,0.118-4.714l-3.8,0.118l-11.792-41.644l15.448-5.237
	c0,0,1.698-1.162-0.065-1.645c-2.377-0.666-12.51-2.403-15.54-2.703l-11.087-1.019l0.052-28.115l13.124-0.744
	c0,0,0.522,1.214,2.52-1.802l15.096-0.679c0,0,2.181-1.175,2.481-3.643l-0.144-1.28c-0.379-2.468-2.834-3.565-2.834-3.565
	l-15.096-0.248c-2.089-2.951-2.586-1.711-2.586-1.711l-13.137-0.379l0.118-28.115l11.048-1.358
	c3.03-0.379,13.111-2.403,15.461-3.147c1.737-0.535,0.026-1.632,0.026-1.632l-15.605-4.793l10.578-41.971h3.813
	c2.925-1.267,2.808-4.087-0.261-4.701l-3.448-0.026c-4.244-5.25-15.187-19.679-16.95-21.834c-2.207-2.703-2.938-1.228-2.938-1.228
	s-107.577,69.759-110.163,70.987l-8.958,0.235l0.379-0.353"/>
<path fill="none" stroke="#000000" stroke-width="1.0839" stroke-linejoin="round" stroke-miterlimit="10" d="M42.43,206.985
	c0,0-8.854,16.82,1.463,35.363"/>
<path fill="none" stroke="#000000" stroke-width="1.0839" stroke-linejoin="round" stroke-miterlimit="10" d="M48.319,205.379
	c0,0-3.931,5.406,15.723,4.923c0,0,69.263-4.923,83.014-7.378l-1.959,18.178h-25.06c0,0,0.496-15.226,1.959-15.475"/>
<path fill="none" stroke="#000000" stroke-width="1.3581" stroke-linejoin="round" stroke-miterlimit="10" d="M48.097,242.713
	c0,0-4.035-5.328,15.631-5.223c0,0,69.342,3.539,83.145,5.72l-2.324-18.139l-25.047,0.496c0,0,0.784,15.213,2.259,15.435"/>
<path fill="none" stroke="#000000" stroke-width="1.0839" stroke-linejoin="round" stroke-miterlimit="10" d="M94.991,207.834
	c0,0-9.089,15.723,0.235,31.197"/>
<path fill="none" stroke="#000000" stroke-width="1.0839" stroke-linejoin="round" stroke-miterlimit="10" d="M518.301,176.885
	c-1.45-0.405-185.068,0-185.068,0s-47.377-0.483-78.326-18.504"/>
<path fill="none" stroke="#000000" stroke-width="2.1808" stroke-linejoin="round" stroke-miterlimit="10" d="M254.907,158.38
	c-0.091-0.052-0.183-0.104-0.274-0.157"/>
<path fill="none" stroke="#000000" stroke-width="1.0839" stroke-linejoin="round" stroke-miterlimit="10" d="M254.881,184.015
	l0.248,26.287l6.882,0.235c0,0,0-18.178,7.117-21.364v-4.923L254.881,184.015z"/>
<path fill="none" stroke="#000000" stroke-width="1.0839" stroke-linejoin="round" stroke-miterlimit="10" d="M290.988,192.607
	h-6.386v10.316h6.386V192.607z"/>
<path fill="none" stroke="#000000" stroke-width="1.0839" stroke-linejoin="round" stroke-miterlimit="10" d="M283.623,169.284
	v41.749h65.698l51.451-35.611"/>
<path fill="none" stroke="#000000" stroke-width="1.0839" stroke-linejoin="round" stroke-miterlimit="10" d="M348.212,211.033
	l117.162,1.476l6.634,1.959h35.245l0.118-28.115c0,0-37.335-1.841-41.997,2.821v23.336"/>
<path fill="none" stroke="#000000" stroke-width="1.0839" stroke-linejoin="round" stroke-miterlimit="10" d="M485.262,185.973
	v28.494"/>
<path fill="none" stroke="#000000" stroke-width="1.3581" stroke-linejoin="round" stroke-miterlimit="10" d="M519.28,264.704
	c-1.619,0.457-70.843,0.353-124.149,0.209"/>
<path fill="none" stroke="#000000" stroke-width="1.0839" stroke-linejoin="round" stroke-miterlimit="10" d="M254.881,258.07
	l0.248-26.287l6.882-0.248c0,0,0,18.178,7.117,21.377v4.91L254.881,258.07z"/>
<path fill="none" stroke="#000000" stroke-width="1.0839" stroke-linejoin="round" stroke-miterlimit="10" d="M290.988,239.148
	h-6.386v10.329h6.386V239.148z"/>
<path fill="none" stroke="#000000" stroke-width="1.0839" stroke-linejoin="round" stroke-miterlimit="10" d="M283.623,272.801
	v-41.749h65.698l52.496,33.822"/>
<path fill="none" stroke="#000000" stroke-width="1.0839" stroke-linejoin="round" stroke-miterlimit="10" d="M348.212,231.052
	l117.162-1.476l6.634-1.972h35.245l0.118,28.128c0,0-37.335,1.841-41.997-2.821v-23.336"/>
<path fill="none" stroke="#000000" stroke-width="1.0839" stroke-linejoin="round" stroke-miterlimit="10" d="M485.262,256.099
	v-28.494"/>
<path fill="none" stroke="#000000" stroke-width="2.7162" stroke-linejoin="round" stroke-miterlimit="10" stroke-dasharray="5.4455,5.4455" d="
	M390.352,176.532l120.519-88.355c0,0-6.503-12.68-12.445-18.243c-5.929-5.576-18.974-6.569-18.974-6.569l-10.042,3.839
	l-212.621,90.614"/>
<path fill="none" stroke="#000000" stroke-width="2.7162" stroke-linejoin="round" stroke-miterlimit="10" d="M358.92-47.921
	l-17.76,224.218"/>
<path fill="none" stroke="#000000" stroke-width="2.7162" stroke-linejoin="round" stroke-miterlimit="10" d="M358.92-48.025
	c0,0-13.829-3.343-21.926-2.494c-8.096,0.849-17.368,10.094-17.368,10.094l-3.656,10.094l-60.227,188.815"/>
<path fill="none" stroke="#000000" stroke-width="2.7162" stroke-linejoin="round" stroke-miterlimit="10" stroke-dasharray="5.4455,5.4455" d="
	M393.133,266.402l120.506,88.368c0,0-6.49,12.667-12.419,18.243c-5.942,5.576-18.987,6.555-18.987,6.555l-10.029-3.826
	l-212.648-90.627"/>
<path fill="none" stroke="#000000" stroke-width="2.7162" stroke-linejoin="round" stroke-miterlimit="10" d="M361.701,490.867
	l-17.76-224.231l-0.104-1.567"/>
<path fill="none" stroke="#000000" stroke-width="2.7162" stroke-linejoin="round" stroke-miterlimit="10" d="M361.714,490.959
	c0,0-13.842,3.356-21.939,2.494c-8.096-0.849-17.368-10.081-17.368-10.081l-3.643-10.107l-60.24-188.815"/>
</svg>
