<?xml version="1.0" encoding="utf-8"?>
<!-- Generator: Adobe Illustrator 17.0.0, SVG Export Plug-In . SVG Version: 6.00 Build 0)  -->
<!DOCTYPE svg PUBLIC "-//W3C//DTD SVG 1.1//EN" "http://www.w3.org/Graphics/SVG/1.1/DTD/svg11.dtd">
<svg version="1.1"
	 id="svg2" xmlns:inkscape="http://www.inkscape.org/namespaces/inkscape" xmlns:dc="http://purl.org/dc/elements/1.1/" xmlns:rdf="http://www.w3.org/1999/02/22-rdf-syntax-ns#" xmlns:svg="http://www.w3.org/2000/svg" xmlns:sodipodi="http://sodipodi.sourceforge.net/DTD/sodipodi-0.dtd" xmlns:cc="http://creativecommons.org/ns#" sodipodi:docname="McDONNELL_DOUGLAS_F-4_PHANTOM_II.png" inkscape:version="0.48.1 "
	 xmlns="http://www.w3.org/2000/svg" xmlns:xlink="http://www.w3.org/1999/xlink" x="0px" y="0px" width="546.313px"
	 height="119.569px" viewBox="525.5 350.456 546.313 119.569" enable-background="new 525.5 350.456 546.313 119.569"
	 xml:space="preserve">
<g>
	
		<path id="path4483" sodipodi:nodetypes="ccc" inkscape:connector-curvature="0" fill="none" stroke="#000000" stroke-width="1.7105" stroke-linejoin="round" d="
		M640.737,424.168c-42.667,5.688-71.422,15.289-92.84,26.954c5.226,3.779,20.223,6.255,35.19,8.735"/>
	
		<path id="path4485" inkscape:connector-curvature="0" fill="none" stroke="#000000" stroke-width="1.7105" stroke-linecap="round" d="
		M548.181,451.188h-21.437"/>
	
		<path id="path4487" sodipodi:nodetypes="cc" inkscape:connector-curvature="0" fill="none" stroke="#000000" stroke-width="1.7105" d="
		M590.665,434.075v33.005"/>
	<path id="path4489" inkscape:connector-curvature="0" fill="none" stroke="#000000" stroke-width="1.7105" d="M584.291,436.138
		v22.873"/>
	
		<path id="path4491" sodipodi:nodetypes="cccscc" inkscape:connector-curvature="0" fill="none" stroke="#000000" stroke-width="1.7105" stroke-linejoin="round" d="
		M721.532,457.699c0.205,2.431,0.641,4.965-3.562,5.437l-54.184-2.812c-9.219,2.955-18.527,5.994-28.311,6.562
		c-18.56,1.077-37.157,0.927-55.494-0.057c-4.854-1.07-5.917-5.448,2.826-6.984"/>
	
		<path id="path4493" sodipodi:nodetypes="cccc" inkscape:connector-curvature="0" fill="none" stroke="#000000" stroke-width="1.7105" stroke-linejoin="round" d="
		M582.284,459.943c8.154-1.978,75.645-2.743,113.524-4.147c3.235-0.171,3.629,0.895,5.066,1.605l-4.052-34.13"/>
	
		<path id="path4495" sodipodi:nodetypes="cc" inkscape:connector-curvature="0" fill="none" stroke="#000000" stroke-width="1.7105" stroke-linecap="round" d="
		M590.847,437.621c29.163-1.832,91.038-15.984,179.162-37.657"/>
	
		<path id="path4497" inkscape:connector-curvature="0" fill="none" stroke="#000000" stroke-width="1.7105" stroke-linejoin="round" d="
		M625.697,457.502v-8.654h61.28"/>
	<path id="path4499" inkscape:connector-curvature="0" fill="none" stroke="#000000" stroke-width="1.7105" d="M635.755,457.969
		v8.654"/>
	<path id="path4501" inkscape:connector-curvature="0" fill="none" stroke="#000000" stroke-width="1.7105" d="M652.829,427.329
		v29.237"/>
	<path id="path4518" inkscape:connector-curvature="0" fill="none" stroke="#000000" stroke-width="1.7105" d="M664.748,409.08
		l5.326,10.83"/>
	
		<path id="path4518-1" sodipodi:nodetypes="cc" inkscape:connector-curvature="0" fill="none" stroke="#000000" stroke-width="1.7105" d="
		M667.588,408.281l5.681,11.362"/>
	<path id="path4538" inkscape:connector-curvature="0" fill="none" stroke="#000000" stroke-width="1.7105" d="M695.905,414.317
		l5.06-14.824"/>
	<path id="path4538-5" inkscape:connector-curvature="0" fill="none" stroke="#000000" stroke-width="1.7105" d="M698.968,414.184
		l5.06-14.824"/>
	
		<path id="path4580" sodipodi:nodetypes="cc" inkscape:connector-curvature="0" fill="none" stroke="#000000" stroke-width="1.7105" d="
		M739.666,398.591c-0.122,0.365-7.782,10.761-7.782,10.761"/>
	<path id="path4582" inkscape:connector-curvature="0" fill="none" stroke="#000000" stroke-width="1.7105" d="M653.117,438.928
		h33.626"/>
	
		<path id="path4584" inkscape:connector-curvature="0" fill="none" stroke="#000000" stroke-width="1.7105" stroke-linejoin="round" d="
		M666.548,456.417v-4.155h21.065"/>
	
		<path id="path4586" sodipodi:nodetypes="cccc" inkscape:connector-curvature="0" fill="none" stroke="#000000" stroke-width="1.7105" stroke-linecap="round" stroke-linejoin="round" d="
		M704.271,416.235l-7.703,6.919l-11.484-0.214c0.221,11.055,1.924,21.92,3.424,32.811"/>
	
		<path id="path4592" sodipodi:nodetypes="ccccc" inkscape:connector-curvature="0" fill="none" stroke="#000000" stroke-width="1.7105" stroke-linejoin="round" d="
		M700.743,454.47l20.851,3.697c11.559,0.157,20.764,2.66,24.743-4.003 M748.118,448.7c0.135-0.888,0.233-1.852,0.291-2.898"/>
	
		<path id="path4594" sodipodi:nodetypes="cccc" inkscape:connector-curvature="0" fill="none" stroke="#000000" stroke-width="1.7105" stroke-linejoin="round" d="
		M716.756,456.851l-6.159-38.406l19.384-1.993c2.25-3.761-0.143-5.743-2.636-6.047"/>
	
		<path id="path4596" sodipodi:nodetypes="ccc" inkscape:connector-curvature="0" fill="none" stroke="#000000" stroke-width="1.7105" stroke-linejoin="round" d="
		M713.347,456.35l-5.794-36.483l3.076-1.431"/>
	<path id="path4598" inkscape:connector-curvature="0" fill="none" stroke="#000000" stroke-width="1.7105" d="M700.185,450.985
		c0.501,0.072,11.946-0.072,11.946-0.072"/>
	<path id="path4600" inkscape:connector-curvature="0" fill="none" stroke="#000000" stroke-width="1.7105" d="M699.541,444.697
		h11.589"/>
	<path id="path4602" inkscape:connector-curvature="0" fill="none" stroke="#000000" stroke-width="1.7105" d="M698.754,438.435
		h11.66"/>
	<path id="path4604" inkscape:connector-curvature="0" fill="none" stroke="#000000" stroke-width="1.7105" d="M697.824,432.173
		h11.374"/>
	<path id="path4606" inkscape:connector-curvature="0" fill="none" stroke="#000000" stroke-width="1.7105" d="M697.323,425.876
		l11.231,0.072"/>
	<path id="path4608" inkscape:connector-curvature="0" fill="none" stroke="#000000" stroke-width="1.7105" d="M725.222,417.291
		l5.651,41.133"/>
	
		<path id="path4610" sodipodi:nodetypes="ccccccsccscc" inkscape:connector-curvature="0" fill="none" stroke="#000000" stroke-width="1.7105" stroke-linejoin="round" d="
		M729.681,416.485c1.499-0.726,2.679-1.736,5.012-1.721l194.038,0.202c3.802,0.005,22.828,3.187,29.923,11.61
		c9.586-3.69,22.072-7.22,36.57-10.095l63.561,1.901c38.267-13.471-59.958-18.447-62.948-18.451l-232.005-0.306
		c-42.435-2.994-84.734-5.012-122.949,22.473c-3.495,3.174,1.658,3.22,3.777,2.914c28.89-4.173,57.215-11.74,85.726-18.192
		l6.176-8.56"/>
	
		<path id="path4614" sodipodi:nodetypes="cccccc" inkscape:connector-curvature="0" fill="none" stroke="#000000" stroke-width="1.7105" stroke-linejoin="round" d="
		M752.367,445.845h-15.562v-8.696l12.701,0.057l2.832,2.489L752.367,445.845z"/>
	
		<path id="path4618" sodipodi:nodetypes="cccc" inkscape:connector-curvature="0" fill="none" stroke="#000000" stroke-width="1.7105" stroke-linejoin="round" d="
		M826.332,445.695c-23.594-4.402-47.713-5.199-72.464,0.037l1.038-18.355h188.877"/>
	
		<path id="path4620" sodipodi:nodetypes="cc" inkscape:connector-curvature="0" fill="none" stroke="#000000" stroke-width="1.7105" d="
		M788.711,399.885c2.153,4.108,14.014,3.922,16.456-0.054"/>
	
		<path id="path4620-9" sodipodi:nodetypes="cc" inkscape:connector-curvature="0" fill="none" stroke="#000000" stroke-width="1.7105" d="
		M843.858,399.885c2.153,4.108,14.014,3.922,16.456-0.054"/>
	
		<path id="path4620-9-3" sodipodi:nodetypes="cc" inkscape:connector-curvature="0" fill="none" stroke="#000000" stroke-width="1.7105" d="
		M898.453,399.885c2.153,4.108,14.014,3.922,16.456-0.054"/>
	
		<path id="path4658" sodipodi:nodetypes="cccccc" inkscape:connector-curvature="0" fill="none" stroke="#000000" stroke-width="1.7105" stroke-linejoin="round" d="
		M926.926,399.525l97.143-48.018l36.013,0.369v3 M1060.082,358.691v42.312"/>
	
		<path id="path4660" sodipodi:nodetypes="cccc" inkscape:connector-curvature="0" fill="none" stroke="#000000" stroke-width="1.7105" stroke-linejoin="round" d="
		M1016.706,401.145l16.747-29.414h13.097l-12.668,30.917"/>
	<path id="rect4664" fill="none" stroke="#000000" stroke-width="1.7105" stroke-linecap="round" stroke-linejoin="round" d="
		M1040.885,354.786h19.478c1.755,0,3.177,0.769,3.177,1.719l0,0c0,0.949-1.422,1.719-3.177,1.719h-19.478
		c-1.755,0-3.177-0.769-3.177-1.719l0,0C1037.708,355.556,1039.131,354.786,1040.885,354.786z"/>
	
		<path id="path4666" inkscape:connector-curvature="0" fill="none" stroke="#000000" stroke-width="1.7105" stroke-linejoin="round" d="
		M1040.469,358.38l-5.416,9.479h12.031l4.218-9.166"/>
	
		<path id="path4668" inkscape:connector-curvature="0" fill="none" stroke="#000000" stroke-width="1.7105" stroke-linejoin="round" d="
		M1010.616,358.103h12.224v-1.688h-9.053"/>
	
		<rect id="rect4670" x="983.564" y="375.69" inkscape:transform-center-y="-6.718482" inkscape:transform-center-x="-8.6576562" transform="matrix(-0.8415 0.5402 -0.5402 -0.8415 2050.2197 153.4146)" fill="none" stroke="#000000" stroke-width="1.7105" stroke-linecap="round" stroke-linejoin="round" width="38.089" height="3.451">
	</rect>
	<path id="path4672" inkscape:connector-curvature="0" fill="none" stroke="#000000" stroke-width="1.7105" d="M994.424,380.933
		l1.63,2.282"/>
	<path id="path4672-2" inkscape:connector-curvature="0" fill="none" stroke="#000000" stroke-width="1.7105" d="M1008.278,372.376
		l1.63,2.282"/>
	
		<path id="path4692" sodipodi:nodetypes="ccsc" inkscape:connector-curvature="0" fill="none" stroke="#000000" stroke-width="1.7105" stroke-linejoin="round" d="
		M1034.801,402.932l33.81-1.665c3.324,0.089,3.04,3.532-0.015,3.763c-3.167,0.24-6.339-0.181-8.068,2.628"/>
	
		<path id="path4694" sodipodi:nodetypes="cccccc" inkscape:connector-curvature="0" fill="none" stroke="#000000" stroke-width="1.7105" stroke-linejoin="round" d="
		M1058.124,407.402l0.391,11.093l8.874,27.275l-19.885-0.13l-29.814-13.985l-22.468-14.986"/>
	<path id="path4696" inkscape:connector-curvature="0" fill="none" stroke="#000000" stroke-width="1.7105" d="M1011.927,401.007
		v15.66"/>
	<path id="rect4698" fill="none" stroke="#000000" stroke-width="1.7105" stroke-linecap="round" stroke-linejoin="round" d="
		M1022.258,407.584h5.084c3.821,0,6.919,1.607,6.919,3.589l0,0c0,1.982-3.098,3.589-6.919,3.589h-5.084
		c-3.821,0-6.919-1.607-6.919-3.589l0,0C1015.339,409.191,1018.437,407.584,1022.258,407.584z"/>
	
		<path id="path4700" inkscape:connector-curvature="0" fill="none" stroke="#000000" stroke-width="1.7105" stroke-linecap="round" d="
		M1023.204,411.173h3.193"/>
	
		<path id="path4702" sodipodi:nodetypes="cccccc" inkscape:connector-curvature="0" fill="none" stroke="#000000" stroke-width="1.7105" stroke-linejoin="round" d="
		M958.17,400.108v26.348h-14.449c0,0-0.178-8.085,0-8.393c-0.443-1.106,1.133-7.309,1.487-6.853h12.908"/>
	
		<path id="path4704" inkscape:connector-curvature="0" fill="none" stroke="#000000" stroke-width="1.7105" stroke-linejoin="round" d="
		M958.382,404.624h14.502v13.758h-14.661"/>
	<path id="path4706" inkscape:connector-curvature="0" fill="none" stroke="#000000" stroke-width="1.7105" d="M852.081,403.459
		v37.899"/>
	
		<path id="path4708" inkscape:connector-curvature="0" fill="none" stroke="#000000" stroke-width="1.7105" stroke-linejoin="round" d="
		M830.737,414.972v6.639h21.26"/>
	
		<path id="path4710" inkscape:connector-curvature="0" fill="none" stroke="#000000" stroke-width="1.7105" stroke-linejoin="round" d="
		M1017.966,417.389v13.216h44.36"/>
	<path id="path4712" inkscape:connector-curvature="0" fill="none" stroke="#000000" stroke-width="1.7105" d="M1030.905,417.758
		v12.384"/>
	
		<path id="path4714" sodipodi:nodetypes="cc" inkscape:connector-curvature="0" fill="none" stroke="#000000" stroke-width="1.7105" d="
		M1034.694,430.974c0.092,0.462,14.879,14.509,14.879,14.509"/>
	
		<path id="path4716" sodipodi:nodetypes="cc" inkscape:connector-curvature="0" fill="none" stroke="#000000" stroke-width="1.7105" d="
		M1003.938,422.427l-40.838,5.519"/>
	
		<path id="path4720" sodipodi:nodetypes="ccc" inkscape:connector-curvature="0" fill="none" stroke="#000000" stroke-width="1.7105" stroke-linejoin="round" d="
		M1017.305,431.257c-15.688,7.909-34.493,11.491-47.092,21.461l-11.593,1.926"/>
	<path id="path4722" inkscape:connector-curvature="0" fill="none" stroke="#000000" stroke-width="1.7105" d="M972.789,426.72
		v23.791"/>
	<path id="path4724" inkscape:connector-curvature="0" fill="none" stroke="#000000" stroke-width="1.7105" d="M982.518,425.616
		v19.867"/>
	<path id="path4726" inkscape:connector-curvature="0" fill="none" stroke="#000000" stroke-width="1.7105" d="M992.247,424.267
		v16.678"/>
	<path id="path4728" inkscape:connector-curvature="0" fill="none" stroke="#000000" stroke-width="1.7105" d="M1001.976,423.04
		v14.348"/>
	
		<path id="path4730" sodipodi:nodetypes="cc" inkscape:connector-curvature="0" fill="none" stroke="#000000" stroke-width="1.7105" d="
		M982.599,445.115c-4.302-4.712-16.056-1.807-21.881-0.981"/>
	
		<path id="path4732" sodipodi:nodetypes="cccccc" inkscape:connector-curvature="0" fill="none" stroke="#000000" stroke-width="1.7105" stroke-linejoin="round" d="
		M957.337,458.605l6.99-30.659l-11.405,0.123l-7.236,5.968l-5.396,23.096L957.337,458.605z"/>
	
		<path id="path4734" sodipodi:nodetypes="cccc" inkscape:connector-curvature="0" fill="none" stroke="#000000" stroke-width="1.7105" stroke-linejoin="round" d="
		M914.451,427.374c5.001,0.157,18.441,1.717,27.376,6.157l-1.831,10.484h-12.731"/>
	
		<path id="path4736" sodipodi:nodetypes="ccc" inkscape:connector-curvature="0" fill="none" stroke="#000000" stroke-width="1.7105" d="
		M943.741,426.542l-1.664,6.823l3.495,0.582"/>
	
		<path id="path4738" sodipodi:nodetypes="ccccccccc" inkscape:connector-curvature="0" fill="none" stroke="#000000" stroke-width="1.7105" stroke-linejoin="round" d="
		M938.849,444.061v7.217c-2.046,5.165-2.269,8.232-7.064,4.3h-6.618c-0.571,1.701-0.351,3.509-2.749,3.993h-24.416l-1.228,1.075
		c-26.855,2.234-52.454,3.213-78.161,4.3v-12.592"/>
	<path id="path4740" inkscape:connector-curvature="0" fill="none" stroke="#000000" stroke-width="1.7105" d="M938.403,453.232
		c0.393,0.315,2.203,1.653,2.203,1.653"/>
	<path id="path4742" inkscape:connector-curvature="0" fill="none" stroke="#000000" stroke-width="1.7105" d="M931.635,444.34
		l0.079,11.254"/>
	
		<path id="path4744" sodipodi:nodetypes="ccc" inkscape:connector-curvature="0" fill="none" stroke="#000000" stroke-width="1.7105" stroke-linejoin="round" d="
		M931.578,437.412l-13.161,16.609c-18.354,1.163-36.262,0.986-54.213,0.94"/>
	
		<path id="path4746" inkscape:connector-curvature="0" fill="none" stroke="#000000" stroke-width="1.7105" stroke-linejoin="round" d="
		M928.758,440.546H913.09l-15.982,13.945"/>
	
		<path id="path4750" sodipodi:nodetypes="cccc" inkscape:connector-curvature="0" fill="none" stroke="#000000" stroke-width="1.7105" stroke-linejoin="round" d="
		M905.626,437.201l-47.376,20.266l-24.129-6.581l55.836-14.47"/>
	
		<path id="path4752" sodipodi:nodetypes="ccccccc" inkscape:connector-curvature="0" fill="none" stroke="#000000" stroke-width="1.7105" stroke-linejoin="round" d="
		M887.707,436.942l43.819,0.627l0.21-2.351h-52.176l-67.374,14.102c1.986,1.503,3.591,3.311,6.894,3.76l16.456-2.455"/>
	
		<path id="path4754" sodipodi:nodetypes="cc" inkscape:connector-curvature="0" fill="none" stroke="#000000" stroke-width="1.7105" d="
		M901.895,454.869l-3.969,4.819"/>
	<path id="path4756" inkscape:connector-curvature="0" fill="none" stroke="#000000" stroke-width="1.7105" d="M886.304,455.081
		v5.882"/>
	
		<path id="path4758" sodipodi:nodetypes="cc" inkscape:connector-curvature="0" fill="none" stroke="#000000" stroke-width="1.7105" d="
		M837.389,452.09c-4.043,3.889-4.954,7.987-5.232,12.128"/>
	<path id="path4760" inkscape:connector-curvature="0" fill="none" stroke="#000000" stroke-width="1.7105" d="M835.819,451.757
		c-0.19,0-16.931,9.036-16.931,9.036"/>
	
		<path id="path4762" sodipodi:nodetypes="ccccccc" inkscape:connector-curvature="0" fill="none" stroke="#000000" stroke-width="1.7105" stroke-linejoin="round" d="
		M817.935,463.833c-24.339,2.669-44.816,3.584-66.453,4.513c5.998-7.801,16.826-8.575,27.235-9.96v-4.513l-32.531,0.52
		c-4.289-2.358-2.767-5.798-0.462-5.656l66.765,0.623"/>
	
		<path id="path4764" sodipodi:nodetypes="ccc" inkscape:connector-curvature="0" fill="none" stroke="#000000" stroke-width="1.7105" stroke-linejoin="round" d="
		M780.493,449.167c2.811,7.159,10.206,10.846,16.276,0.193c1.397,9.469,8.466,11.971,19.647,3.371"/>
	
		<path id="path4766" sodipodi:nodetypes="ccc" inkscape:connector-curvature="0" fill="none" stroke="#000000" stroke-width="1.7105" stroke-linejoin="round" d="
		M794.746,465.732v-8.764l4.377-1.112"/>
	
		<path id="path4768" sodipodi:nodetypes="cc" inkscape:connector-curvature="0" fill="none" stroke="#000000" stroke-width="1.7105" d="
		M766.914,467.658c0.367-6.112,4.971-2.613,7.03-8.668"/>
	
		<path id="path4770" sodipodi:nodetypes="cc" inkscape:connector-curvature="0" fill="none" stroke="#000000" stroke-width="1.7105" d="
		M771.077,462.669l23.643-2.252"/>
	
		<path id="path4772" inkscape:connector-curvature="0" opacity="0.98" stroke="#000000" stroke-width="1.7105" stroke-linecap="round" stroke-linejoin="round" enable-background="new    " d="
		M671.278,413.463l-2.629-5.256l2.477-0.907c4.927-1.804,12.083-3.79,17.953-4.981c3.089-0.627,10.269-1.777,10.386-1.664
		c0.096,0.093-4.421,13.221-4.604,13.383c-0.213,0.188-20.129,4.681-20.751,4.681C673.998,418.719,672.724,416.354,671.278,413.463
		L671.278,413.463z"/>
	
		<path id="path4774" inkscape:connector-curvature="0" opacity="0.98" stroke="#000000" stroke-width="1.7105" stroke-linecap="round" stroke-linejoin="round" enable-background="new    " d="
		M641.383,424.062c-0.729-0.199-0.711-0.406,0.096-1.097c1.174-1.005,5.479-3.846,9.182-6.059
		c2.866-1.713,11.903-6.343,13.032-6.676c0.4-0.118,0.613,0.232,2.783,4.57c1.293,2.584,2.35,4.776,2.35,4.872
		c0,0.096-0.242,0.216-0.537,0.267c-0.295,0.051-3.203,0.592-6.461,1.202C650.334,423.295,642.611,424.398,641.383,424.062
		L641.383,424.062z"/>
	
		<path id="path4776" inkscape:connector-curvature="0" opacity="0.98" stroke="#000000" stroke-width="1.7105" stroke-linecap="round" stroke-linejoin="round" enable-background="new    " d="
		M700.519,412.617c0.05-0.135,1.038-3.027,2.195-6.426l2.105-6.18l0.919-0.122c3.452-0.458,9.945-0.745,19.019-0.84l10.124-0.107
		l-2.115,2.924c-1.163,1.608-2.335,3.2-2.603,3.538c-0.485,0.609-0.594,0.638-14.845,3.943c-7.896,1.831-14.477,3.372-14.623,3.423
		C700.539,412.825,700.466,412.762,700.519,412.617L700.519,412.617z"/>
</g>
</svg>
