<?xml version="1.0" encoding="utf-8"?>
<!-- Generator: Adobe Illustrator 17.0.0, SVG Export Plug-In . SVG Version: 6.00 Build 0)  -->
<!DOCTYPE svg PUBLIC "-//W3C//DTD SVG 1.1//EN" "http://www.w3.org/Graphics/SVG/1.1/DTD/svg11.dtd">
<svg version="1.1"
	 id="svg2" xmlns:cc="http://web.resource.org/cc/" xmlns:dc="http://purl.org/dc/elements/1.1/" xmlns:svg="http://www.w3.org/2000/svg" xmlns:sodipodi="http://sodipodi.sourceforge.net/DTD/sodipodi-0.dtd" xmlns:inkscape="http://www.inkscape.org/namespaces/inkscape" xmlns:rdf="http://www.w3.org/1999/02/22-rdf-syntax-ns#" inkscape:output_extension="org.inkscape.output.svg.inkscape" sodipodi:version="0.32" sodipodi:docbase="/home/agude/Desktop" inkscape:version="0.45.1" sodipodi:docname="Lockheed_SR-71A_3view.svg"
	 xmlns="http://www.w3.org/2000/svg" xmlns:xlink="http://www.w3.org/1999/xlink" x="0px" y="0px" width="936.072px"
	 height="483.73px" viewBox="0 0 936.072 483.73" enable-background="new 0 0 936.072 483.73" xml:space="preserve">
<path id="path2165" d="M822.237,483.366c-1.997-0.282-5.556-1.435-7.911-2.561s-30.528-16.19-62.608-33.474l-58.327-31.427h-10.446
	c-23.976,0-53.799-3.089-79.393-8.223c-24.559-4.927-44.516-11.132-65.516-20.374c-4.351-1.914-8.932-3.814-10.181-4.22
	c-1.945-0.633-2.364-1.102-2.927-3.282c-0.361-1.398-0.778-2.968-0.927-3.487c-0.16-0.559-8.283-4.507-19.893-9.669
	c-10.792-4.799-19.978-9.052-20.413-9.453c-0.649-0.597-0.649-0.84,0-1.353c0.435-0.344,9.28-2.177,19.655-4.073
	c10.375-1.897,19.442-3.69,20.148-3.986c0.89-0.373,1.406-1.305,1.683-3.039c0.22-1.375,0.692-3.863,1.049-5.529l0.649-3.029h6.569
	c7.134,0,8.394-0.523,7.72-3.207c-0.284-1.132-6.976-4.829-35.21-19.456l-34.859-18.058l-104.97-0.221
	c-112.191-0.237-111.246-0.215-147.566-3.497c-64.173-5.799-117.712-16.846-157.607-32.522c-8.239-3.237-25.62-11.564-29.016-13.9
	c-2.154-1.482-2.806-1.571-16.734-2.273c-7.971-0.402-14.608-0.834-14.747-0.959c-0.86-0.772,2.09-1.126,14.711-1.769l14.143-0.72
	l3.312-1.964c34.24-20.314,97.194-36.805,169.508-44.403c47.002-4.939,51.376-5.079,166.735-5.356l102.84-0.247l34.276-17.763
	c18.852-9.769,34.544-18.252,34.872-18.85c0.327-0.598,0.425-1.625,0.217-2.282c-0.344-1.083-0.958-1.195-6.575-1.204
	c-3.408-0.005-6.553-0.235-6.989-0.512c-0.436-0.276-1.271-2.864-1.855-5.751s-1.186-5.367-1.337-5.512s-9.311-1.953-20.356-4.018
	c-11.045-2.065-20.341-4.009-20.659-4.32c-0.365-0.358-0.365-0.769,0-1.117c0.318-0.302,9.467-4.509,20.331-9.347
	c10.864-4.838,19.933-9.177,20.154-9.643c0.22-0.466,0.779-2.053,1.241-3.528c0.82-2.619,0.969-2.735,6.317-4.939
	c3.012-1.241,9.173-3.824,13.692-5.738c27.215-11.533,63.997-20.145,101.319-23.721c11.831-1.134,30.95-2.154,40.521-2.161
	l7.053-0.006l60.199-32.451c33.11-17.848,61.563-32.978,63.231-33.621c2.248-0.867,4.527-1.164,8.814-1.148
	c5.102,0.019,6.206,0.228,9.403,1.776c4.798,2.323,10.928,8.548,13.83,14.043c1.91,3.616,3.322,8.762,9.595,34.971
	c4.045,16.902,7.497,31.181,7.67,31.733c0.246,0.784-2.038,2.222-10.508,6.615l-10.823,5.613l-7.559,0.843
	c-7.558,0.842-10.062,1.444-6.009,1.444c3.131,0,12.318,1.652,17.068,3.069l4.108,1.226v12.694v12.694l2.282,0.401
	c5.12,0.9,8.671,2.203,8.671,3.18c0,0.538-2.465,3.491-5.477,6.562c-3.012,3.072-5.477,5.876-5.477,6.234
	c0,0.357,0.802,0.981,1.782,1.387c2.806,1.162,3.111,3.801,0.535,4.619c-0.672,0.214-0.989,0.587-0.705,0.829
	c0.285,0.243,6.405,3.135,13.601,6.427c14.648,6.702,15.988,7.483,16.939,9.881c0.368,0.929,3.828,14.683,7.687,30.564
	s7.223,29.051,7.473,29.266c0.251,0.215,4.016,1.292,8.367,2.393c9.094,2.301,19.977,5.656,24.212,7.461l2.915,1.243l-0.177,4.622
	l-0.176,4.622l-3.955,1.587c-4.544,1.824-13.532,4.532-23.998,7.231c-3.995,1.03-7.341,1.95-7.436,2.045
	c-0.094,0.094-3.33,13.164-7.19,29.044c-3.86,15.88-7.332,29.643-7.715,30.584c-1.056,2.598-3.346,3.96-17.668,10.51l-13.196,6.035
	l1.584,1.272c1.944,1.561,1.544,3.106-1.056,4.087c-1.003,0.378-1.824,0.93-1.824,1.227c0,0.296,2.465,3.142,5.477,6.325
	c3.012,3.183,5.477,6.15,5.477,6.595c0,1.19-1.024,1.649-6.085,2.73l-4.564,0.975l-0.304,12.677l-0.304,12.677l-2.13,1.101
	c-2.553,1.319-8.193,2.811-13.134,3.474c-3.096,0.415-3.344,0.537-1.775,0.867c1.004,0.211,3.606,0.553,5.781,0.759
	c3.455,0.329,5.301,1.084,14.604,5.981c8.85,4.659,10.616,5.809,10.452,6.811c-0.636,3.896-14.789,61.979-15.54,63.775
	c-2.558,6.123-9.366,13.686-14.794,16.437c-2.655,1.345-4.187,1.767-9.023,2.481C826.414,483.798,824.233,483.648,822.237,483.366z
	 M834.965,479.25c4.82-2.373,10.31-8.13,12.964-13.592c1.327-2.732,3.859-12.22,8.947-33.521
	c3.902-16.341,7.008-30.167,6.901-30.724s-0.613-1.093-1.123-1.191c-0.748-0.144-2.382,5.891-8.405,31.028
	c-8.208,34.258-9.073,36.811-14.184,41.842c-4.102,4.038-8.363,5.687-14.805,5.73c-4.25,0.029-5.225-0.179-7.676-1.634
	c-2.508-1.488-2.892-1.566-3.595-0.719c-1.106,1.332-0.237,2.025,4.706,3.754C824.398,482.217,829.563,481.909,834.965,479.25z
	 M823.737,470.975c0-3.514-0.125-6.389-0.277-6.389c-0.152,0-1.907,2.141-3.9,4.759l-3.623,4.759l2.53,1.297
	c2.444,1.253,3.855,1.815,4.813,1.915C823.531,477.343,823.737,474.489,823.737,470.975z M810.851,473.463
	c-0.109-0.077-14.3-7.77-31.537-17.096c-17.236-9.326-35.857-19.407-41.379-22.401c-5.522-2.995-12.231-6.618-14.909-8.053
	c-2.677-1.434-9.66-5.229-15.517-8.433c-9.631-5.268-10.722-5.727-11.41-4.801c-0.419,0.563-0.761,1.186-0.761,1.384
	c0,0.198,25.945,14.339,57.657,31.423c54.43,29.324,57.668,30.981,57.855,29.589C810.96,474.265,810.96,473.539,810.851,473.463z
	 M826.171,468.724c0-4.418-0.206-7.773-0.456-7.454c-0.471,0.597-0.29,15.487,0.188,15.487
	C826.05,476.756,826.171,473.141,826.171,468.724z M832.98,475.612l1.637-0.624l-3.07-6.875c-1.689-3.781-3.178-6.989-3.31-7.128
	c-0.132-0.139-0.24,3.386-0.24,7.835v8.088l1.673-0.336C830.59,476.387,832.08,475.955,832.98,475.612z M819.601,466.107
	c2.811-3.682,5.312-7.024,5.556-7.427c0.31-0.513-1.329-1.288-5.464-2.58c-3.249-1.016-5.973-1.781-6.054-1.701
	c-0.08,0.08-0.343,4.015-0.582,8.743c-0.412,8.12-0.207,10.271,0.94,9.842C814.267,472.883,816.789,469.788,819.601,466.107z
	 M843.227,465.574c0.994-1.989,1.807-3.938,1.807-4.331c0-0.604-10.888-3.377-13.186-3.357c-0.394,0.003,0.814,3.262,2.709,7.305
	l3.42,7.299l1.721-1.648C840.645,469.933,842.233,467.564,843.227,465.574z M810.885,452.966c-0.462-0.293-1.114-0.529-1.449-0.525
	c-0.552,0.006-8.443,13.381-8.07,13.677c0.088,0.069,2.213,1.253,4.723,2.629l4.564,2.503l0.536-8.876
	C811.631,455.056,811.577,453.405,810.885,452.966z M798.721,460.782c-0.037-2.092-0.242-5.398-0.456-7.347l-0.39-3.543
	l-3.574,4.352c-1.966,2.394-3.609,4.753-3.651,5.241c-0.063,0.736,6.125,4.788,7.682,5.029
	C798.582,464.554,798.758,462.874,798.721,460.782z M805.139,455.274c1.269-2.276,2.208-4.23,2.086-4.341
	c-0.732-0.666-6.709-2.883-6.997-2.595c-0.192,0.192-0.149,3.532,0.094,7.422C800.824,463.802,800.356,463.849,805.139,455.274z
	 M787.101,447.144l-0.181-4.105l-4.108,4.93c-2.259,2.711-4.105,5.163-4.102,5.449s1.851,1.529,4.108,2.764l4.102,2.244l0.181-3.588
	C787.201,452.864,787.201,449.402,787.101,447.144z M842.601,457.535c0-0.835-10.601-11.797-10.996-11.371
	c-0.414,0.448-2.463,8.84-2.21,9.048c0.267,0.219,11.144,2.568,12.14,2.622C842.121,457.866,842.601,457.731,842.601,457.535z
	 M793.861,451.807c2.039-2.51,3.708-4.711,3.708-4.891c0.001-0.341-7.61-4.846-8.187-4.846c-0.182,0-0.331,3.478-0.331,7.728
	c0,4.635,0.22,7.497,0.551,7.15C789.905,456.63,791.822,454.317,793.861,451.807z M846.927,453.48
	c0.462-2.092,0.843-4.06,0.844-4.373c0.001-0.313-2.942-1.309-6.539-2.211c-3.598-0.902-6.542-1.512-6.542-1.355
	c0,0.488,10.51,11.743,10.966,11.743C845.892,457.283,846.464,455.572,846.927,453.48z M834.915,423.476
	c4.301-17.925,7.721-32.682,7.6-32.794c-0.329-0.306-24.307-2.924-24.527-2.678c-0.105,0.117-1.047,13.083-2.095,28.813
	c-1.047,15.73-2.06,30.124-2.25,31.986l-0.346,3.386l5.98,1.877c3.289,1.032,6.393,1.905,6.898,1.939
	C826.896,456.053,828.792,448.994,834.915,423.476z M775.639,444.048l-0.025-7.759l-1.826,2.13
	c-1.004,1.171-3.027,3.656-4.495,5.521l-2.669,3.391l4.063,2.225c2.234,1.224,4.268,2.231,4.519,2.238
	C775.459,451.801,775.652,448.315,775.639,444.048z M782.599,445.296l4.076-4.99l-2.007-1.023c-1.104-0.562-3.17-1.698-4.593-2.523
	l-2.586-1.5v8.09c0,4.484,0.23,7.833,0.517,7.512C778.29,450.545,780.357,448.04,782.599,445.296z M812.435,448.003
	c0.381-3.496,3.999-56.684,3.999-58.79c0-1.255-0.254-1.302-6.998-1.302h-6.998l-0.003,2.586c-0.002,1.423-0.552,14.482-1.223,29.02
	s-1.012,26.634-0.758,26.878c0.45,0.431,10.395,4.639,11.22,4.748C811.902,451.174,812.244,449.76,812.435,448.003z
	 M840.371,439.879l-5.982-6.451l-1.016,4.473c-0.559,2.46-0.882,4.61-0.719,4.777c0.265,0.271,11.932,3.45,13.192,3.593
	C846.125,446.304,843.661,443.427,840.371,439.879z M764.102,438.033c0-8.774,0.556-8.713-5.195-0.57
	c-1.638,2.319-2.713,4.307-2.39,4.417c0.323,0.111,1.956,1.006,3.63,1.99c1.673,0.984,3.248,1.804,3.499,1.82
	C763.896,445.707,764.102,442.261,764.102,438.033z M800.009,418.889c0.664-14.527,1.208-27.47,1.21-28.762l0.002-2.35l-5.02,0.22
	c-4.877,0.213-5.019,0.181-4.972-1.149c0.027-0.753-0.131-1.369-0.351-1.369c-0.637,0-12.733,1.751-16.736,2.423
	c-2.008,0.337-10.018,0.614-17.799,0.616l-14.148,0.004v12.74v12.74l5.629,3.103c3.096,1.706,6.04,3.35,6.542,3.652
	c5.138,3.091,20.962,11.726,21.682,11.831c0.512,0.075,1.115,0.42,1.339,0.768c0.567,0.878,9.156,5.673,10.163,5.673
	c0.452,0,0.992,0.274,1.199,0.609c0.423,0.684,9.607,6.113,9.88,5.84C798.723,445.38,799.345,433.415,800.009,418.889z
	 M849.922,440.779c0.629-2.444,1.068-4.518,0.977-4.61c-0.256-0.255-11.963-2.618-12.972-2.618c-0.489,0,1.655,2.724,4.765,6.053
	s5.752,5.955,5.871,5.836C848.681,445.32,849.293,443.223,849.922,440.779z M771.055,438.723c1.861-2.343,3.386-4.442,3.388-4.664
	c0.002-0.222-1.913-1.509-4.256-2.859l-4.26-2.456v8.011C765.927,445.861,765.511,445.701,771.055,438.723z M753.234,432.12
	l-0.39-7.821l-3.833,5.082c-2.108,2.795-3.851,5.356-3.872,5.691c-0.033,0.514,8.075,5.34,8.381,4.989
	C753.577,439.995,753.449,436.421,753.234,432.12z M759.834,432.953c2.025-2.805,3.472-5.304,3.214-5.554s-2.18-1.418-4.271-2.595
	l-3.803-2.141v5.976c0,5.473,0.47,10.12,0.974,9.617C756.06,438.145,757.808,435.758,759.834,432.953z M741.485,426.706
	c-0.223-3.766-0.428-7.353-0.456-7.974c-0.032-0.706-1.53,0.879-4.011,4.246c-2.178,2.956-3.882,5.606-3.787,5.891
	c0.187,0.561,7.056,4.496,8.052,4.612C741.677,433.527,741.748,431.149,741.485,426.706z M848.686,433.238
	c0-0.393-10.336-11.494-10.911-11.718c-0.435-0.169-2.769,8.905-2.386,9.274c0.228,0.219,11.256,2.59,12.536,2.695
	C848.344,433.523,848.686,433.41,848.686,433.238z M748.582,426.813c3.01-3.933,3.748-5.279,3.178-5.795
	c-0.408-0.369-2.634-1.709-4.945-2.977l-4.203-2.305l0.396,4.191c0.218,2.305,0.398,6.231,0.4,8.724
	C743.413,433.846,743.121,433.95,748.582,426.813z M853.088,427.912c0.885-4.045,0.878-4.123-0.382-4.417
	c-0.705-0.165-3.812-0.809-6.904-1.431l-5.622-1.131l5.563,6.033c3.06,3.318,5.761,5.816,6.004,5.548
	C851.989,432.248,852.593,430.177,853.088,427.912z M730.025,419.519c0-4.858-0.225-7.808-0.577-7.59
	c-0.318,0.197-2.23,2.731-4.249,5.633l-3.671,5.276l4.096,2.301c2.253,1.266,4.165,2.307,4.249,2.314
	C729.956,427.46,730.025,423.89,730.025,419.519z M736.625,420.352c2.059-2.741,3.743-5.206,3.741-5.477
	c-0.002-0.271-1.919-1.535-4.26-2.81l-4.255-2.318v8.373c0,4.619,0.231,8.113,0.515,7.795
	C732.649,425.596,734.565,423.093,736.625,420.352z M718.563,412.911l-0.405-8.165l-3.909,5.123c-2.15,2.817-4.14,5.43-4.423,5.807
	c-0.344,0.458,1.045,1.498,4.208,3.149c2.597,1.356,4.77,2.417,4.828,2.358C718.921,421.124,718.786,417.402,718.563,412.911z
	 M846.146,415.244l-5.675-6.136l-0.772,2.637c-0.425,1.451-0.929,3.601-1.12,4.779l-0.348,2.142l5.988,1.271
	c3.293,0.699,6.352,1.31,6.795,1.357S849.267,418.619,846.146,415.244z M856.007,415.83c0.629-2.444,1.087-4.489,1.018-4.545
	c-0.262-0.214-11.893-2.074-12.967-2.074c-0.776,0,0.666,1.804,4.608,5.762c3.156,3.169,5.841,5.658,5.968,5.531
	C854.76,420.377,855.379,418.273,856.007,415.83z M729.261,408.272c-0.082-0.067-2.135-1.238-4.561-2.603l-4.412-2.482v5.665
	c0,3.116,0.174,6.932,0.386,8.482l0.386,2.816l4.175-5.878C727.531,411.038,729.343,408.339,729.261,408.272z M706.901,406.361
	v-8.326l-4.234,5.74c-2.329,3.157-4.246,5.921-4.26,6.142c-0.026,0.405,7.188,4.65,8.037,4.728
	C706.695,414.668,706.901,410.94,706.901,406.361z M690.354,401.708c2.131-6.637,3.778-12.163,3.66-12.281
	c-0.118-0.118-11.917-0.302-26.221-0.409l-26.006-0.194v11.41c0,9.825,0.129,11.41,0.929,11.41c0.511,0,6.193,0.411,12.627,0.913
	c12.752,0.995,19.582,1.318,26.589,1.257l4.546-0.04L690.354,401.708z M700.14,405.039c6.743-9.015,6.761-9.047,6.761-12.475v-3.436
	l-5.629,0.008l-5.629,0.008l-3.651,11.603c-2.008,6.382-3.74,11.992-3.848,12.467c-0.147,0.647,0.486,0.865,2.519,0.865h2.716
	L700.14,405.039z M714.062,406.926l3.814-4.976l-1.38-0.844c-2.884-1.764-7.087-4.067-7.422-4.067c-0.192,0-0.34,3.766-0.329,8.367
	c0.015,6.686,0.168,8.179,0.761,7.431C709.914,412.323,711.964,409.663,714.062,406.926z M740.978,400.691v-12.17h-7.815
	c-4.298,0-11.555,0.18-16.126,0.399l-8.311,0.399v2.898c0,3.217-0.053,3.167,7.607,7.264c2.008,1.074,8.169,4.518,13.692,7.653
	c5.522,3.135,10.246,5.706,10.497,5.713C740.772,412.855,740.978,407.385,740.978,400.691z M640.433,399.93l-0.166-11.105
	l-5.629-0.175l-5.629-0.175v10.635v10.635l2.89,0.38c1.589,0.209,3.301,0.468,3.803,0.575c0.502,0.107,1.809,0.227,2.904,0.265
	l1.991,0.071L640.433,399.93z M627.793,399.288v-10.53l-25.406-0.734c-27.725-0.801-41.21-1.502-55.223-2.869
	c-5.02-0.49-9.402-0.883-9.736-0.874c-0.986,0.026,8.51,4.144,16.949,7.351c19.701,7.486,44.1,13.544,72.96,18.115
	C627.587,409.786,627.793,405.08,627.793,399.288z M849.607,403.133c-3.947-3.961-6.195-5.815-6.459-5.325
	c-0.223,0.414-0.816,2.581-1.319,4.817l-0.914,4.064l4.038,0.647c3.575,0.573,9.613,1.619,10.415,1.806
	C855.529,409.18,852.937,406.475,849.607,403.133z M859.403,401.28l0.349-2.149l-6.294-1.059c-3.462-0.582-6.562-1.053-6.89-1.045
	c-0.328,0.007,2,2.623,5.172,5.813l5.769,5.799l0.772-2.604C858.706,404.601,859.211,402.462,859.403,401.28z M850.207,393.685
	c-5.368-2.989-5.781-3.122-5.781-1.867c0,0.475-0.154,1.264-0.343,1.756c-0.267,0.696,0.703,1.092,4.412,1.799
	C855.466,396.701,855.523,396.644,850.207,393.685z M656.394,362.35v-24.953l-49.747,0.156l-49.747,0.156l-0.159,23.205
	l-0.159,23.205l3.202,0.365c8.74,0.994,54.646,2.466,84.896,2.721l11.714,0.099V362.35z M599.975,381.523
	c0.004-1.673,0.123-2.286,0.263-1.361c0.14,0.925,0.136,2.294-0.009,3.043C600.085,383.953,599.97,383.196,599.975,381.523z
	 M601.192,381.523c0.004-1.673,0.123-2.286,0.263-1.361c0.14,0.925,0.136,2.294-0.009,3.043
	C601.302,383.953,601.187,383.196,601.192,381.523z M604.235,381.523c0.004-1.673,0.123-2.286,0.263-1.361
	c0.14,0.925,0.136,2.294-0.009,3.043C604.344,383.953,604.23,383.196,604.235,381.523z M607.277,381.523
	c0.004-1.673,0.123-2.286,0.263-1.361c0.14,0.925,0.136,2.294-0.009,3.043C607.387,383.953,607.273,383.196,607.277,381.523z
	 M611.537,381.523c0.004-1.673,0.123-2.286,0.263-1.361c0.14,0.925,0.136,2.294-0.009,3.043
	C611.647,383.953,611.532,383.196,611.537,381.523z M613.363,381.523c0.004-1.673,0.123-2.286,0.263-1.361
	c0.14,0.925,0.136,2.294-0.009,3.043C613.472,383.953,613.358,383.196,613.363,381.523z M614.58,381.523
	c0.004-1.673,0.123-2.286,0.263-1.361c0.14,0.925,0.136,2.294-0.009,3.043C614.689,383.953,614.575,383.196,614.58,381.523z
	 M616.405,381.523c0.004-1.673,0.123-2.286,0.263-1.361c0.14,0.925,0.136,2.294-0.009,3.043
	C616.515,383.953,616.4,383.196,616.405,381.523z M617.622,381.523c0.004-1.673,0.123-2.286,0.263-1.361
	c0.14,0.925,0.136,2.294-0.009,3.043C617.732,383.953,617.617,383.196,617.622,381.523z M620.665,381.523
	c0.004-1.673,0.123-2.286,0.263-1.361c0.14,0.925,0.136,2.294-0.009,3.043C620.774,383.953,620.66,383.196,620.665,381.523z
	 M623.708,381.523c0.004-1.673,0.123-2.286,0.263-1.361c0.14,0.925,0.136,2.294-0.009,3.043
	C623.817,383.953,623.703,383.196,623.708,381.523z M624.925,381.523c0.004-1.673,0.123-2.286,0.263-1.361
	c0.14,0.925,0.136,2.294-0.009,3.043C625.034,383.953,624.92,383.196,624.925,381.523z M626.75,381.523
	c0.004-1.673,0.123-2.286,0.263-1.361c0.14,0.925,0.136,2.294-0.009,3.043C626.86,383.953,626.745,383.196,626.75,381.523z
	 M603.009,381.218c0-1.506,0.119-2.122,0.263-1.369c0.145,0.753,0.145,1.986,0,2.738
	C603.128,383.34,603.009,382.724,603.009,381.218z M610.312,381.218c0-1.506,0.119-2.122,0.263-1.369
	c0.145,0.753,0.145,1.986,0,2.738C610.43,383.34,610.312,382.724,610.312,381.218z M575.702,374.525c0-4.853,0.094-6.838,0.21-4.412
	c0.116,2.427,0.116,6.397,0,8.824S575.702,379.377,575.702,374.525z M576.919,374.525c0-4.853,0.094-6.838,0.21-4.412
	c0.116,2.427,0.116,6.397,0,8.824S576.919,379.377,576.919,374.525z M579.962,374.525c0-4.853,0.094-6.838,0.21-4.412
	c0.116,2.427,0.116,6.397,0,8.824S579.962,379.377,579.962,374.525z M583.004,374.525c0-4.853,0.094-6.838,0.21-4.412
	c0.116,2.427,0.116,6.397,0,8.824S583.004,379.377,583.004,374.525z M578.743,374.22c0.001-4.686,0.097-6.522,0.212-4.081
	c0.116,2.441,0.115,6.275-0.002,8.519C578.836,380.903,578.741,378.906,578.743,374.22z M600.009,362.05
	c0.002-2.677,0.109-3.697,0.238-2.266c0.128,1.431,0.127,3.622-0.004,4.868S600.007,364.727,600.009,362.05z M601.226,362.05
	c0.002-2.677,0.109-3.697,0.238-2.266c0.128,1.431,0.127,3.622-0.004,4.868S601.224,364.727,601.226,362.05z M603.052,362.05
	c0.002-2.677,0.109-3.697,0.238-2.266c0.128,1.431,0.127,3.622-0.004,4.868S603.05,364.727,603.052,362.05z M604.269,362.05
	c0.002-2.677,0.109-3.697,0.238-2.266c0.128,1.431,0.127,3.622-0.004,4.868S604.267,364.727,604.269,362.05z M607.311,362.05
	c0.002-2.677,0.109-3.697,0.238-2.266c0.128,1.431,0.127,3.622-0.004,4.868S607.31,364.727,607.311,362.05z M610.354,362.05
	c0.002-2.677,0.109-3.697,0.238-2.266c0.128,1.431,0.127,3.622-0.004,4.868S610.352,364.727,610.354,362.05z M611.571,362.05
	c0.002-2.677,0.109-3.697,0.238-2.266c0.128,1.431,0.127,3.622-0.004,4.868S611.569,364.727,611.571,362.05z M613.397,362.05
	c0.002-2.677,0.109-3.697,0.238-2.266c0.128,1.431,0.127,3.622-0.004,4.868S613.395,364.727,613.397,362.05z M614.614,362.05
	c0.002-2.677,0.109-3.697,0.238-2.266c0.128,1.431,0.127,3.622-0.004,4.868S614.612,364.727,614.614,362.05z M616.439,362.05
	c0.002-2.677,0.109-3.697,0.238-2.266c0.128,1.431,0.127,3.622-0.004,4.868S616.438,364.727,616.439,362.05z M617.656,362.05
	c0.002-2.677,0.109-3.697,0.238-2.266c0.128,1.431,0.127,3.622-0.004,4.868S617.655,364.727,617.656,362.05z M620.699,362.05
	c0.002-2.677,0.109-3.697,0.238-2.266c0.128,1.431,0.127,3.622-0.004,4.868S620.697,364.727,620.699,362.05z M623.742,362.05
	c0.002-2.677,0.109-3.697,0.238-2.266c0.128,1.431,0.127,3.622-0.004,4.868S623.74,364.727,623.742,362.05z M624.959,362.05
	c0.002-2.677,0.109-3.697,0.238-2.266c0.128,1.431,0.127,3.622-0.004,4.868S624.957,364.727,624.959,362.05z M626.784,362.05
	c0.002-2.677,0.109-3.697,0.238-2.266c0.128,1.431,0.127,3.622-0.004,4.868S626.782,364.727,626.784,362.05z M575.702,347.75
	c0-4.853,0.094-6.838,0.21-4.412c0.116,2.427,0.116,6.397,0,8.824S575.702,352.603,575.702,347.75z M576.919,347.75
	c0-4.853,0.094-6.838,0.21-4.412c0.116,2.427,0.116,6.397,0,8.824S576.919,352.603,576.919,347.75z M579.962,347.75
	c0-4.853,0.094-6.838,0.21-4.412c0.116,2.427,0.116,6.397,0,8.824S579.962,352.603,579.962,347.75z M583.004,347.75
	c0-4.853,0.094-6.838,0.21-4.412c0.116,2.427,0.116,6.397,0,8.824S583.004,352.603,583.004,347.75z M578.743,347.445
	c0.001-4.686,0.097-6.522,0.212-4.081c0.116,2.441,0.115,6.275-0.002,8.519C578.836,354.128,578.741,352.131,578.743,347.445z
	 M620.665,342.577c0.004-1.673,0.123-2.286,0.263-1.361c0.14,0.925,0.136,2.294-0.009,3.043
	C620.774,345.008,620.66,344.251,620.665,342.577z M599.967,342.273c0-1.506,0.119-2.122,0.263-1.369
	c0.145,0.753,0.145,1.986,0,2.738C600.085,344.395,599.967,343.779,599.967,342.273z M601.184,342.273
	c0-1.506,0.119-2.122,0.263-1.369c0.145,0.753,0.145,1.986,0,2.738C601.302,344.395,601.184,343.779,601.184,342.273z
	 M603.009,342.273c0-1.506,0.119-2.122,0.263-1.369c0.145,0.753,0.145,1.986,0,2.738
	C603.128,344.395,603.009,343.779,603.009,342.273z M604.226,342.273c0-1.506,0.119-2.122,0.263-1.369
	c0.145,0.753,0.145,1.986,0,2.738C604.345,344.395,604.226,343.779,604.226,342.273z M607.269,342.273
	c0-1.506,0.119-2.122,0.263-1.369c0.145,0.753,0.145,1.986,0,2.738C607.388,344.395,607.269,343.779,607.269,342.273z
	 M610.312,342.273c0-1.506,0.119-2.122,0.263-1.369c0.145,0.753,0.145,1.986,0,2.738
	C610.43,344.395,610.312,343.779,610.312,342.273z M611.529,342.273c0-1.506,0.119-2.122,0.263-1.369
	c0.145,0.753,0.145,1.986,0,2.738C611.647,344.395,611.529,343.779,611.529,342.273z M613.354,342.273
	c0-1.506,0.119-2.122,0.263-1.369c0.145,0.753,0.145,1.986,0,2.738C613.473,344.395,613.354,343.779,613.354,342.273z
	 M614.571,342.273c0-1.506,0.119-2.122,0.263-1.369c0.145,0.753,0.145,1.986,0,2.738
	C614.69,344.395,614.571,343.779,614.571,342.273z M616.397,342.273c0-1.506,0.119-2.122,0.263-1.369
	c0.145,0.753,0.145,1.986,0,2.738C616.515,344.395,616.397,343.779,616.397,342.273z M617.614,342.273
	c0-1.506,0.119-2.122,0.263-1.369c0.145,0.753,0.145,1.986,0,2.738C617.732,344.395,617.614,343.779,617.614,342.273z
	 M623.699,342.273c0-1.506,0.119-2.122,0.263-1.369c0.145,0.753,0.145,1.986,0,2.738
	C623.818,344.395,623.699,343.779,623.699,342.273z M624.916,342.273c0-1.506,0.119-2.122,0.263-1.369
	c0.145,0.753,0.145,1.986,0,2.738C625.035,344.395,624.916,343.779,624.916,342.273z M626.742,342.273
	c0-1.506,0.119-2.122,0.263-1.369c0.145,0.753,0.145,1.986,0,2.738C626.86,344.395,626.742,343.779,626.742,342.273z
	 M741.183,386.902l15.616-0.402v-13.557v-13.557l-2.586-0.314c-1.423-0.173-8.063-0.609-14.757-0.97
	c-14.415-0.776-17.473-1.139-17.174-2.035c0.122-0.366,4.036-1.86,8.698-3.321s12.379-3.882,17.147-5.379l8.671-2.723v-3.619v-3.62
	h-49.29h-49.29v24.949v24.949h33.674C710.414,387.303,732.594,387.123,741.183,386.902z M775.055,385.174v-1.521h8.824
	c8.418,0,8.824,0.056,8.824,1.217c0,1.079,0.406,1.217,3.566,1.217c1.961,0,4.836-0.174,6.389-0.387l2.824-0.387v-12.696V359.92
	h-6.389h-6.389v5.172v5.172l-8.671,0.001l-8.671,0.001l0.203-4.636c0.111-2.55-0.035-4.874-0.326-5.165
	c-0.291-0.291-4.147-0.711-8.57-0.935l-8.042-0.407v13.785v13.785h8.215h8.215V385.174z M775.359,377.565v-4.258l8.671,0.001
	l8.671,0.001v4.26v4.26l-8.671-0.001l-8.671-0.002V377.565z M791.485,377.567v-3.043h-6.998h-6.998v3.043v3.043h6.998h6.998V377.567
	z M783.523,385.098c0.139-0.125-1.435-0.228-3.499-0.228c-2.264,0-3.753,0.259-3.753,0.652
	C776.272,386.118,782.814,385.735,783.523,385.098z M809.132,372.699c0-12.373-0.038-12.779-1.217-12.779s-1.217,0.406-1.217,12.779
	c0,12.373,0.038,12.779,1.217,12.779S809.132,385.072,809.132,372.699z M814.609,372.699V359.92h-2.13h-2.13v12.779v12.779h2.13
	h2.13V372.699z M818.26,372.699c0-12.373-0.038-12.779-1.217-12.779s-1.217,0.406-1.217,12.779c0,12.373,0.038,12.779,1.217,12.779
	S818.26,385.072,818.26,372.699z M839.885,383.936c6.943-1.211,10.627-2.797,10.627-4.577c0-1.153-0.249-1.275-1.978-0.974
	c-1.087,0.189-7.181,0.918-13.54,1.619c-15.138,1.669-14.3,1.449-14.3,3.753v1.906l6.902-0.394
	C831.393,385.053,836.922,384.453,839.885,383.936z M555.234,360.985l-0.159-23.276l-4.716-0.178
	c-2.594-0.098-4.716-0.437-4.716-0.755c0-0.352,10.437-0.638,26.794-0.735l26.794-0.158l-17.987-10.454l-17.987-10.454l-9.814,8.724
	c-7.535,6.697-9.855,9.106-9.99,10.367c-0.271,2.541-1.913,3.945-4.613,3.945c-1.883,0-2.458,0.274-2.872,1.369
	c-1.212,3.212-2.005,12.707-2.248,26.927c-0.143,8.367-0.499,15.293-0.79,15.392c-1.484,0.501-0.868-32.226,0.75-39.885l0.804-3.803
	h-2.889h-2.889l-0.612,2.89c-3.041,14.356-3.582,28.86-1.383,37.021c0.814,3.019,2.497,3.952,7.675,4.254
	c2.008,0.117,6.937,0.603,10.953,1.079s7.922,0.896,8.679,0.935l1.376,0.069L555.234,360.985z M836.516,378.767
	c15.532-1.737,13.996-1.108,13.996-5.735v-3.904l-5.325,0.319c-2.929,0.175-9.569,0.5-14.757,0.721l-9.432,0.402l-0.178,5.078
	l-0.178,5.078l2.307-0.35C824.219,380.183,830.323,379.459,836.516,378.767z M523.247,366.159
	c-0.101-3.599,0.069-8.597,0.378-11.107c0.309-2.51,0.525-4.614,0.479-4.674c-0.16-0.213-34.453,6.302-34.753,6.603
	c-0.167,0.167,7.432,3.767,16.888,8s17.191,7.702,17.191,7.709C523.432,372.696,523.348,369.757,523.247,366.159z M838.493,368.684
	l12.018-0.417v-5.575v-5.575l-6.643,0.798c-3.654,0.439-10.294,1.001-14.757,1.249l-8.114,0.452l-0.178,5.102l-0.178,5.102
	l2.917-0.36C825.163,369.263,831.883,368.913,838.493,368.684z M791.485,365.092v-3.955h-6.998h-6.998v3.955v3.955h6.998h6.998
	V365.092z M829.518,357.43c15.411-1.023,31.947-3.494,31.947-4.773c0-0.26-2.67-3.257-5.933-6.662l-5.933-6.19l-10.041-0.885
	c-17.55-1.547-35.817-2.14-45.984-1.494c-10.302,0.655-7.873,0.005-54.089,14.475l-11.532,3.611l3.621,0.379
	C754.279,358.267,804.923,359.062,829.518,357.43z M769.443,340.73c4.899-1.521,9.032-2.891,9.186-3.045
	c0.154-0.154-4.284-0.28-9.862-0.28h-10.142v3.412c0,2.852,0.157,3.352,0.956,3.045C760.106,343.66,764.544,342.25,769.443,340.73z
	 M853.897,336.933c0.948-0.531,0.625-0.772-2.125-1.588c-1.784-0.529-3.549-1.218-3.925-1.529s-2.919-1.137-5.652-1.835
	c-3.957-1.01-6.839-1.269-14.148-1.269c-5.048,0-9.178-0.16-9.178-0.355c0-0.195,3.856-14.869,8.569-32.607
	c4.713-17.738,8.471-32.351,8.349-32.471c-0.12-0.121-4.867,0.031-10.547,0.338c-14.982,0.808-68.305,1.361-75.439,0.783
	c-12.497-1.014-5.298-1.526,20.385-1.451c36.861,0.108,64.542-1.002,91.278-3.66c13.408-1.333,32.059-4.249,36.511-5.708
	c1.506-0.494,7.804-2.249,13.996-3.901s13.654-3.876,16.582-4.943l5.325-1.939v-3.007v-3.007l-2.89-1.239
	c-3.829-1.642-14.872-4.969-24.071-7.253c-4.081-1.013-7.968-2.095-8.637-2.405c-2.364-1.093-16.684-3.505-30.426-5.125
	c-24.027-2.833-51.859-4.126-91.43-4.249c-20.492-0.063-32.46-0.319-32.556-0.694c-0.227-0.89,53.215-1.1,74-0.291
	c9.658,0.375,17.677,0.565,17.821,0.422c0.144-0.144-3.576-14.709-8.267-32.368s-8.381-32.345-8.2-32.636
	c0.18-0.291,4.605-0.529,9.834-0.529c7.762,0,10.38-0.235,14.264-1.284c2.617-0.706,4.757-1.527,4.757-1.826
	c0-0.298,0.343-0.543,0.761-0.545c1.431-0.006,5.325-1.27,5.325-1.729c0-0.252-0.914-0.788-2.031-1.192
	c-1.515-0.548-3.562-0.581-8.063-0.128c-18.315,1.84-25.238,1.937-132.059,1.851l-108.988-0.088L546.83,180.15
	c-46.504,27.041-57.195,33.02-62.006,34.675l-5.814,2l86.562,0.046c76.518,0.041,86.562,0.152,86.562,0.959
	c0,0.808-10.379,0.913-89.757,0.913h-89.757v22.82v22.82h89.757c79.378,0,89.757,0.105,89.757,0.913
	c0,0.807-10.114,0.918-87.171,0.963l-87.171,0.049l6.694,2.242c6.069,2.032,11.944,5.298,62.954,34.997l56.26,32.755l112.604-0.08
	c94.627-0.068,113.916,0.06,120.819,0.802C845.948,337.97,852.102,337.937,853.897,336.933z M702.641,241.563v-9.432h14.237h14.237
	l1.824,2.077c3.78,4.305,4.051,9.23,0.772,13.997l-1.92,2.79h-14.575h-14.575V241.563z M732.732,247.388
	c2.976-4.295,2.612-8.656-1.059-12.671c-1.225-1.34-1.536-1.369-14.533-1.369h-13.282v8.215v8.215h13.609h13.609L732.732,247.388z
	 M870.181,317.219c-10.345-1.707-26.194-2.388-28.058-1.207c-0.43,0.273-1.571,3.413-2.535,6.979l-1.754,6.483l2.535,0.662
	c1.394,0.364,4.173,1.135,6.175,1.713l3.64,1.051l15.117-6.996l15.117-6.996L870.181,317.219z M541.889,327.919
	c-1.45-0.739-16.179-8.489-32.732-17.222c-19.905-10.502-30.301-15.674-30.7-15.275c-0.38,0.38-0.39,0.801-0.026,1.138
	c0.318,0.294,13.996,7.465,30.396,15.936c16.4,8.471,30.776,16.003,31.947,16.738c1.576,0.989,2.341,1.166,2.94,0.682
	C544.348,329.405,543.951,328.969,541.889,327.919z M836.757,328.429c1.751-5.77,17.341-64.315,17.172-64.484
	c-0.204-0.204-16.429,1.023-16.554,1.252c-0.256,0.469-16.681,63.119-16.681,63.627c0,0.453,2.549,0.67,7.87,0.67
	C835.53,329.494,836.471,329.372,836.757,328.429z M546.486,318.997c0.593-4.434,1.241-8.746,1.439-9.581
	c0.273-1.155-1.345,0.072-6.758,5.126c-4.019,3.753-6.887,6.874-6.589,7.173c0.781,0.781,9.439,5.311,10.187,5.329
	C545.131,327.053,545.869,323.604,546.486,318.997z M560.378,313.354c-2.527-1.714-9.982-5.855-10.182-5.655
	c-0.214,0.214-2.728,16.985-2.728,18.197c0,0.332,3.139-2.196,6.977-5.615C560.564,314.827,561.293,313.975,560.378,313.354z
	 M533.163,304.545c0.48-4.634,1.086-4.98-6.903,3.952l-5.439,6.082l5.261,2.866l5.261,2.866l0.705-5.906
	C532.435,311.157,532.937,306.72,533.163,304.545z M540.992,312.194l6.607-6.285l-5.898-3.471c-3.244-1.909-5.974-3.38-6.066-3.269
	c-0.092,0.111-0.492,3.625-0.888,7.809c-0.396,4.184-0.875,8.496-1.065,9.584s-0.11,1.964,0.179,1.947
	C534.149,318.493,537.358,315.651,540.992,312.194z M883.648,314.129c2.201-7.648,13.732-56.021,13.428-56.327
	c-0.186-0.186-0.588-0.082-0.896,0.231c-0.308,0.312-3.173,10.973-6.368,23.692c-3.195,12.718-6.493,25.725-7.329,28.905
	c-1.802,6.849-1.787,6.694-0.649,6.694C882.392,317.324,883.076,316.119,883.648,314.129z M878.777,316.201
	c-6.11-5.426-15.061-12.318-15.454-11.898c-0.666,0.713-2.502,8.926-2.089,9.349c0.31,0.317,14.576,2.833,16.934,2.986
	C878.86,316.683,879.114,316.501,878.777,316.201z M859.663,310.446c0.406-1.74,2.205-9.308,3.996-16.818
	c1.791-7.51,3.136-13.774,2.989-13.922c-0.147-0.147-3.419-1.014-7.271-1.928l-7.003-1.66l-0.599,1.89
	c-0.329,1.039-2.544,9.147-4.922,18.016c-2.378,8.869-4.442,16.537-4.586,17.039c-0.226,0.786,0.91,0.887,8.198,0.729l8.46-0.184
	L859.663,310.446z M880.711,310.319c0.498-1.909,0.821-3.536,0.718-3.615c-0.442-0.337-13.503-2.74-13.719-2.523
	c-0.131,0.131,2.444,2.44,5.722,5.13c3.278,2.691,6.052,4.799,6.166,4.686C879.712,313.884,880.213,312.228,880.711,310.319z
	 M518.552,306.218c0.228-3.766,0.323-8.403,0.212-10.307l-0.201-3.461l-5.454,7.677c-2.999,4.223-5.19,7.768-4.868,7.88
	c0.322,0.111,2.502,1.283,4.845,2.603c2.343,1.32,4.438,2.412,4.656,2.427C517.96,313.053,518.325,309.983,518.552,306.218z
	 M533.295,297.504c-0.994-0.732-12.195-6.947-12.296-6.823c-0.076,0.094-0.298,5.023-0.493,10.953l-0.354,10.782l6.635-7.409
	C530.436,300.932,533.365,297.555,533.295,297.504z M505.126,295.569c-0.229-5.941-0.473-10.871-0.542-10.958
	c-0.069-0.086-2.535,3.461-5.48,7.882c-2.945,4.422-5.111,8.125-4.813,8.231s2.732,1.396,5.41,2.867
	c2.677,1.471,5.088,2.698,5.356,2.726C505.323,306.346,505.355,301.509,505.126,295.569z M882.053,304.612
	c-0.242-0.644-15.232-12.846-15.782-12.846c-0.209,0-0.712,1.574-1.118,3.499c-1.344,6.368-2.037,5.68,7.874,7.824
	c4.853,1.05,8.915,1.944,9.026,1.987C882.165,305.118,882.165,304.91,882.053,304.612z M513.336,296.676
	c2.723-3.826,4.872-7.193,4.775-7.484s-2.704-2.013-5.795-3.829l-5.619-3.302l0.004,6.221c0.005,8.022,0.664,16.457,1.237,15.834
	C508.184,303.85,510.613,300.502,513.336,296.676z M883.692,298.399c0.469-1.776,0.75-3.332,0.624-3.457
	c-0.369-0.369-13.318-3.211-13.823-3.033c-0.254,0.089,2.321,2.412,5.723,5.161c3.402,2.749,6.284,4.9,6.404,4.779
	C882.741,301.727,883.223,300.175,883.692,298.399z M490.516,287.218c-0.493-6.333-0.989-11.608-1.103-11.722
	c-0.427-0.427-9.511,16.963-9.158,17.533c0.341,0.551,10.781,6.044,11.042,5.81C491.36,298.781,491.01,293.552,490.516,287.218z
	 M499.316,288.893c2.721-4.09,4.939-7.65,4.928-7.911c-0.024-0.611-12.229-7.597-12.609-7.218
	c-0.303,0.303,0.878,18.087,1.432,21.579c0.18,1.131,0.546,1.816,0.814,1.521C494.15,296.571,496.595,292.983,499.316,288.893z
	 M474.126,284.908c-0.562-4.428-1.131-8.165-1.264-8.305c-0.133-0.139-0.242,3.612-0.242,8.337c0,7.546,0.13,8.664,1.065,9.194
	C475.242,295.015,475.287,294.062,474.126,284.908z M292.497,292.472c0-1.049-1.036-1.145-16.582-1.526
	c-9.12-0.223-22.607-0.813-29.97-1.309c-7.363-0.497-13.593-0.905-13.844-0.909c-1.283-0.016-0.222,1.768,1.217,2.048
	c3.302,0.64,38.391,2.392,54.463,2.719C291.989,293.581,292.497,293.471,292.497,292.472z M352.437,292.374
	c0-0.797-3.683-0.933-28.868-1.071c-17.056-0.094-29.098,0.072-29.43,0.403c-1.749,1.749,0.697,1.894,29.281,1.739
	C348.737,293.307,352.437,293.171,352.437,292.374z M405.682,292.374c0-1.198-0.406-1.217-25.862-1.217
	c-25.456,0-25.862,0.019-25.862,1.217s0.406,1.217,25.862,1.217C405.276,293.591,405.682,293.572,405.682,292.374z M471.287,292.222
	c0.193-1.003-1.661-1.065-32.092-1.065c-31.938,0-32.296,0.013-32.296,1.223c0,1.211,0.306,1.221,32.091,1.065
	C468.998,293.297,471.095,293.218,471.287,292.222z M483.191,282.464c2.887-5.283,5.25-9.86,5.25-10.172
	c0-0.571-13.901-5.165-14.33-4.736c-0.127,0.127,0.441,5.695,1.263,12.372c0.822,6.678,1.505,12.552,1.518,13.054
	c0.021,0.811,0.081,0.811,0.536,0C477.711,292.481,480.303,287.747,483.191,282.464z M884.862,292.483
	c-0.318-0.275-3.91-3.424-7.983-6.998s-7.524-6.498-7.67-6.498c-0.335,0-2.463,9.762-2.175,9.979
	c0.299,0.226,16.453,3.865,17.525,3.948C885.079,292.955,885.203,292.778,884.862,292.483z M230.428,289.663
	c0-1.047-1.202-1.266-11.866-2.154c-8.374-0.698-22.8-2.216-26.623-2.803c-1.959-0.301-2.282-0.186-2.282,0.806
	c0,1.059,1.117,1.272,13.235,2.524C231.163,290.957,230.428,290.914,230.428,289.663z M886.638,286.619
	c0.519-1.994,0.84-3.73,0.712-3.857c-0.253-0.253-13.706-3.74-14.513-3.762c-0.271-0.007,2.46,2.572,6.071,5.73
	c3.611,3.159,6.615,5.692,6.675,5.629C885.644,290.296,886.119,288.613,886.638,286.619z M292.497,284.159
	c0-3.448,0.246-5.781,0.609-5.781c0.363,0,0.609,2.332,0.609,5.781v5.781h29.513h29.513v-5.781c0-3.448,0.246-5.781,0.609-5.781
	c0.363,0,0.609,2.332,0.609,5.781v5.781h25.862h25.862v-5.781c0-3.448,0.246-5.781,0.609-5.781c0.363,0,0.609,2.332,0.609,5.781
	v5.781h32.252h32.252V278.1v-11.84l-134.94-0.234c-93.8-0.162-137.908-0.448-144.676-0.936c-21.853-1.577-34.682-2.63-45.924-3.769
	c-6.516-0.66-12.061-1.2-12.323-1.2s-0.475,3.923-0.475,8.718v8.718l4.108,0.777c9.494,1.796,20.584,3.693,21.588,3.693
	c1.73,0,1.243-1.696-0.595-2.067c-0.921-0.186-6.325-1.185-12.01-2.22c-5.685-1.036-10.454-2.001-10.599-2.144
	c-0.989-0.989,1.791-0.759,11.009,0.912c5.794,1.05,11.151,2.042,11.904,2.205c1.352,0.292,1.369,0.216,1.369-6.141
	c0-4.136,0.217-6.302,0.609-6.061c0.34,0.21,0.609,3.045,0.609,6.414c0,5.76,0.063,6.052,1.369,6.36
	c2.539,0.598,22.46,3.352,24.245,3.352h1.769V275.3c0-4.737,0.215-7.205,0.609-6.962c0.35,0.217,0.609,3.428,0.609,7.565v7.188
	l2.282,0.35c6.947,1.065,37.423,4.036,37.822,3.688c0.135-0.118-0.086-4.218-0.493-9.111c-0.672-8.091-0.618-10.139,0.243-9.277
	c0.165,0.166,0.625,4.422,1.022,9.459l0.721,9.159l4.303,0.368c2.367,0.202,9.643,0.652,16.169,0.999
	c6.526,0.347,13.372,0.713,15.213,0.811c1.841,0.099,8.345,0.23,14.452,0.292l11.105,0.113L292.497,284.159L292.497,284.159z
	 M188.44,285.376c0-0.502-0.068-0.924-0.152-0.937c-0.084-0.013-6.245-0.916-13.692-2.006c-12.698-1.859-13.54-1.914-13.54-0.889
	c0,0.601,0.206,1.106,0.456,1.121c0.251,0.015,5.659,0.81,12.018,1.767C187.413,286.52,188.44,286.585,188.44,285.376z
	 M888.24,280.552c0-0.144-3.591-3.19-7.98-6.77c-5.645-4.605-8.118-6.285-8.454-5.743c-0.607,0.982-2.075,7.856-1.748,8.183
	c0.206,0.206,16.296,4.312,17.725,4.524C888.034,280.782,888.24,280.695,888.24,280.552z M889.68,274.449
	c0.519-1.994,0.878-3.692,0.796-3.773c-0.285-0.285-14.095-3.157-14.282-2.97c-0.174,0.174,12.23,10.569,12.446,10.43
	C888.693,278.102,889.161,276.443,889.68,274.449z M869.25,270.011c1.011-4.268,1.786-7.814,1.721-7.882
	c-0.186-0.194-15.037,1.494-15.257,1.734c-0.53,0.579-2.761,9.859-2.449,10.184c0.279,0.291,11.943,3.399,13.759,3.665
	C867.236,277.744,868.238,274.278,869.25,270.011z M131.848,268.678c0-4.666-0.206-8.606-0.456-8.755s-2.442-0.467-4.868-0.706
	l-4.412-0.435v8.234v8.234l3.499,0.69c1.924,0.38,3.773,0.788,4.108,0.908C131.748,277.574,131.848,277.191,131.848,268.678z
	 M120.76,266.678l-0.17-8.049l-17.647-2.544c-16.545-2.385-34.524-5.34-36.995-6.08c-0.991-0.297-1.076,0.08-0.913,4.076l0.18,4.404
	l5.477,2.043c10.976,4.094,45.369,13.997,49.156,14.154C120.841,274.723,120.917,274.066,120.76,266.678z M891.283,268.365
	c0-0.152-2.185-1.941-4.856-3.974l-4.856-3.697l-4.016,0.411c-3.54,0.363-4.085,0.591-4.593,1.928
	c-0.317,0.834-0.501,1.58-0.408,1.658c0.279,0.233,16.515,3.795,17.664,3.875C890.803,268.608,891.283,268.517,891.283,268.365z
	 M893.708,258.824c0.009-0.389-8.471,1.055-8.938,1.523c-0.139,0.139,1.339,1.485,3.282,2.994l3.534,2.742l1.056-3.436
	C893.224,260.756,893.703,259.036,893.708,258.824z M471.403,241.534v-22.849l-133.722,0.24
	c-93.448,0.167-136.746,0.453-143.763,0.949c-23.25,1.644-35.12,2.599-47.465,3.82c-7.196,0.711-13.129,1.327-13.185,1.367
	c-0.056,0.04,0.192,1.442,0.551,3.116c0.846,3.94,0.846,22.834,0,26.774c-0.359,1.673-0.571,3.124-0.472,3.223
	c0.746,0.746,46.938,4.575,66.96,5.551c5.355,0.261,68.543,0.515,140.416,0.566l130.68,0.092V241.534z M161.892,256.463
	c-3.39-0.24-6.47-0.626-6.846-0.859c-0.782-0.483-0.998-27.467-0.224-27.945c0.253-0.156,6.208-0.619,13.235-1.028l12.776-0.745
	l3.372,1.511c5.632,2.524,11.537,6.531,11.537,7.83c0,0.972-0.448,1.162-2.738,1.162h-2.738v5.172v5.172h2.738
	c2.449,0,2.738,0.147,2.738,1.395c0,1.116-1.066,2.006-5.325,4.446c-2.929,1.678-6.091,3.377-7.027,3.777
	C181.544,257.142,172.153,257.19,161.892,256.463z M186.541,253.319c2.691-1.399,5.657-3.169,6.591-3.933l1.698-1.39l-2.89-0.022
	l-2.89-0.022v-6.389v-6.389l2.89-0.013l2.89-0.013l-1.521-1.173c-0.837-0.645-4.025-2.458-7.085-4.03l-5.564-2.858l-12.386,0.745
	c-6.812,0.41-12.461,0.821-12.554,0.913c-0.299,0.299-0.178,25.458,0.125,25.761c0.421,0.421,11.708,1.162,19.31,1.268l6.493,0.09
	L186.541,253.319z M162.274,253.037c-0.502-0.162-2.076-0.711-3.499-1.219l-2.586-0.924v-3.567v-3.567l3.499,1.623
	c2.982,1.383,4.511,1.658,10.345,1.858l6.846,0.235v2.977v2.977l-6.846-0.048C166.268,253.355,162.776,253.199,162.274,253.037z
	 M156.189,236.262v-3.591l2.828-1.251c2.159-0.955,4.607-1.328,10.345-1.575l7.517-0.324v3.435v3.436h-6.912
	c-6.387,0-7.173,0.131-10.345,1.731l-3.433,1.731V236.262z M197.743,253.29c-0.908-1.662-1.087-3.502-1.087-11.119
	c0-7.617,0.18-9.458,1.087-11.119l1.087-1.991l11.083,0.166l11.083,0.166l1.024,3.955c0.563,2.175,1.024,6.146,1.024,8.824
	s-0.461,6.648-1.024,8.824l-1.024,3.955l-11.083,0.166l-11.083,0.166L197.743,253.29z M220.948,249.81
	c0.529-2.325,0.961-5.763,0.961-7.639c0-1.876-0.433-5.314-0.961-7.639l-0.961-4.227h-10.311h-10.311l-0.725,1.673
	c-0.447,1.031-0.725,4.942-0.725,10.193c0,5.25,0.278,9.161,0.725,10.193l0.725,1.673h10.311h10.311L220.948,249.81z
	 M205.601,250.395c-2.473-0.585-2.32-0.387-2.721-3.526l-0.333-2.605l6.024,0.171l6.024,0.171l0.006,2.825
	c0.004,2.019-0.269,2.931-0.957,3.195C212.375,251.113,208.118,250.991,205.601,250.395z M202.865,237.537
	c0.184-1.467,0.517-2.872,0.741-3.12c0.603-0.672,7.6-1.291,9.422-0.834c1.406,0.353,1.58,0.696,1.58,3.123v2.727h-2.345
	c-1.289,0-4.007,0.173-6.038,0.386l-3.694,0.386L202.865,237.537z M147.965,246.68c-2.337-1.369-5.1-2.57-6.139-2.67
	c-2.388-0.228-4.501-1.341-4.501-2.371c0-0.963,2.561-2.206,4.542-2.206c0.794,0,3.526-1.232,6.074-2.738
	c2.547-1.506,4.76-2.738,4.919-2.738s0.287,1.506,0.287,3.347v3.347l-6.237,0.009c-5.965,0.009-9.268,0.689-7.133,1.47
	c0.493,0.18,3.634,0.4,6.981,0.489l6.085,0.162l0.184,3.195c0.101,1.757-0.04,3.195-0.314,3.195
	C152.438,249.169,150.302,248.049,147.965,246.68z M311.362,248.561c0-0.335,1.095-0.609,2.434-0.609h2.434v-6.389v-6.389h-2.434
	c-1.339,0-2.434-0.274-2.434-0.609c0-0.391,5.883-0.609,16.43-0.609h16.43v7.607v7.607h-16.43
	C317.244,249.169,311.362,248.951,311.362,248.561z M332.051,241.563v-6.389h-7.302h-7.302v6.389v6.389h7.302h7.302V241.563z
	 M343.005,241.563v-6.389h-4.868h-4.868v6.389v6.389h4.868h4.868V241.563z M132.096,257.312c0.208-0.542,0.703-4.238,1.101-8.215
	c0.558-5.584,0.558-8.878,0-14.461c-0.988-9.876-0.695-9.405-5.544-8.919c-6.327,0.634-5.987,0.304-6.486,6.286
	c-0.407,4.884-0.059,24.276,0.445,24.78c0.12,0.121,2.268,0.475,4.771,0.789c2.503,0.313,4.728,0.604,4.944,0.647
	C131.542,258.262,131.888,257.854,132.096,257.312z M63.694,253.774c0-4.223,0.138-4.058-4.108-4.912
	c-1.176-0.237-1.978-0.769-1.978-1.311c0-0.886,1.364-0.841,4.961,0.164c0.886,0.248,0.934-0.029,0.407-2.328
	c-0.329-1.434-0.424-4.202-0.209-6.15l0.389-3.542l-2.774,0.416c-2.258,0.338-2.774,0.244-2.774-0.509
	c0-0.648,0.91-1.05,3.043-1.343l3.043-0.419v-4.194v-4.194l-2.995,1.181c-1.647,0.649-4.796,1.997-6.998,2.996l-4.003,1.815v10.324
	v10.324l6.542,2.783c3.598,1.531,6.747,2.789,6.998,2.797C63.489,257.682,63.694,255.927,63.694,253.774z M119.982,241.563
	c0-8.2-0.137-14.908-0.304-14.908s-7.835,1.09-17.039,2.42c-22.719,3.284-37.227,5.897-37.79,6.806
	c-1.398,2.262-1.073,10.618,0.47,12.091c0.818,0.781,47.493,8.273,52.533,8.432l2.13,0.068V241.563z M48.229,232.285
	c-0.477-0.477-17.395,8.582-17.395,9.315c0,0.633,7.072,4.77,14.3,8.365l3.043,1.513l0.168-9.455
	C48.437,236.822,48.385,232.44,48.229,232.285z M29.616,241.492c0-0.724-0.363-0.887-1.369-0.617
	c-0.753,0.202-3.971,0.417-7.15,0.478c-5.444,0.104-5.568,0.134-2.13,0.515C26.33,242.681,29.616,242.566,29.616,241.492z
	 M81.341,230.622c10.179-1.701,37.877-5.794,39.208-5.794c0.19,0,0.346-3.715,0.346-8.256c0-7.577-0.088-8.23-1.065-7.942
	c-0.586,0.172-6.576,1.703-13.311,3.4c-11.835,2.984-26.177,7.334-36.587,11.098l-5.02,1.815v4.278v4.278l1.978-0.396
	C67.976,232.885,74.48,231.769,81.341,230.622z M897.368,225.22c0-0.654-14.089-57.858-14.356-58.291
	c-0.506-0.819-2.234-0.602-1.936,0.243c0.147,0.419,3.531,13.699,7.52,29.512c4.722,18.721,7.517,28.752,8.012,28.753
	C897.025,225.436,897.368,225.34,897.368,225.22z M128.045,223.9l3.803-0.408V214.8v-8.692l-4.716,0.994l-4.716,0.994l-0.17,8.413
	c-0.158,7.817-0.093,8.391,0.913,8.105C123.755,224.446,125.953,224.124,128.045,223.9z M893.489,223.763
	c-0.17-0.586-0.612-2.236-0.981-3.666c-0.478-1.849-0.896-2.465-1.446-2.13c-2.146,1.306-6.473,4.685-6.473,5.053
	c0,0.231,1.712,0.694,3.803,1.029C893.935,224.937,893.832,224.943,893.489,223.763z M169.576,219.996
	c34.964-2.675,33.901-2.657,169.929-2.904l131.897-0.24v-11.833v-11.833h-32.252h-32.252v5.781c0,3.448-0.246,5.781-0.609,5.781
	c-0.363,0-0.609-2.332-0.609-5.781v-5.781H379.82h-25.862v5.745c0,3.173-0.273,5.914-0.609,6.121
	c-0.39,0.241-0.609-1.819-0.609-5.745v-6.121h-29.513h-29.513v6.121c0,3.926-0.218,5.986-0.609,5.745
	c-0.336-0.208-0.609-2.948-0.609-6.121v-5.745l-4.716,0.01c-10.285,0.023-52.263,2.1-55.268,2.735
	c-1.166,0.246-1.317,0.948-1.99,9.219c-0.4,4.924-0.859,9.084-1.02,9.245c-0.859,0.859-0.913-1.216-0.233-8.98
	c0.413-4.718,0.578-8.752,0.366-8.964c-0.411-0.411-7.861,0.212-27.657,2.315l-12.323,1.309v7.509c0,4.6-0.236,7.509-0.609,7.509
	c-0.372,0-0.609-2.84-0.609-7.302c0-6.079-0.153-7.302-0.911-7.302c-0.837,0-17.84,2.412-23.886,3.389l-2.586,0.417v6.312
	c0,3.802-0.242,6.312-0.609,6.312c-0.365,0-0.609-2.434-0.609-6.085c0-5.391-0.122-6.085-1.065-6.082
	c-1.215,0.003-20.554,3.506-22.283,4.036c-0.781,0.24-1.052,0.091-0.867-0.476c0.18-0.549,4.209-1.54,12.085-2.97
	c9.66-1.754,11.852-2.337,12.016-3.195c0.111-0.577-0.079-1.05-0.422-1.05c-0.886,0-23.889,4.221-25.175,4.62
	c-0.949,0.294-1.065,1.274-1.065,8.981v8.65l10.193-1.058C148.864,221.706,160.707,220.675,169.576,219.996z M886.719,218.738
	c2.343-1.801,4.374-3.358,4.513-3.461c0.139-0.102,0.139-0.298,0-0.436c-0.285-0.281-18.051,3.545-18.487,3.98
	c-0.153,0.153-0.128,0.854,0.055,1.557c0.277,1.059,1.028,1.372,4.387,1.828c2.229,0.302,4.327,0.382,4.662,0.178
	C882.185,222.18,884.376,220.54,886.719,218.738z M870.93,220.417c-0.128-0.419-0.972-3.842-1.876-7.607
	c-0.904-3.766-1.955-6.841-2.334-6.835c-1.134,0.018-13.254,2.917-13.586,3.249c-0.169,0.169,0.336,2.585,1.122,5.369l1.429,5.062
	l5.477,0.68C868.998,221.311,871.209,221.328,870.93,220.417z M853.923,218.287c-0.602-1.992-17.407-64.187-17.407-64.422
	c0-0.128-3.56-0.233-7.911-0.233c-7.14,0-7.908,0.103-7.88,1.065c0.017,0.586,3.794,15.167,8.393,32.404l8.362,31.339l4.842,0.345
	C852.707,219.523,854.276,219.456,853.923,218.287z M481.443,213.888c3.347-1.095,6.324-2.209,6.615-2.475
	c0.291-0.267-2.027-5.188-5.153-10.936s-5.753-10.22-5.838-9.937c-0.169,0.559-3.231,24.665-3.231,25.431
	c0,0.257,0.343,0.341,0.761,0.187S478.096,214.984,481.443,213.888z M881.726,208.398c3.514-2.845,6.292-5.275,6.174-5.399
	c-0.328-0.346-16.927,3.631-17.536,4.201c-0.302,0.284-0.077,2.359,0.52,4.798l1.053,4.299l1.7-1.363
	C874.573,214.184,878.212,211.243,881.726,208.398z M890.366,212.56c0.262-0.262-1.239-6.52-1.667-6.947
	c-0.187-0.187-11.176,8.423-12.827,10.05c-0.276,0.272,2.813-0.256,6.865-1.173C886.789,213.573,890.221,212.704,890.366,212.56z
	 M504.262,202.386c-0.001-0.207-2.445-4.045-5.432-8.528c-5.365-8.051-5.436-8.126-5.76-6.085
	c-0.33,2.079-1.586,18.815-1.586,21.139c0,1.101,0.747,0.815,6.389-2.451C501.387,204.426,504.263,202.592,504.262,202.386z
	 M490.221,199.575c0.366-4.686,0.824-10.064,1.017-11.953l0.351-3.433l-5.833,3.008c-3.208,1.654-5.833,3.164-5.833,3.355
	c0,0.445,9.36,17.817,9.515,17.66C489.502,208.147,489.854,204.26,490.221,199.575z M861.045,205.233
	c4.666-1.059,5.918-1.56,5.732-2.29c-0.131-0.514-1.976-8.259-4.101-17.212l-3.863-16.278h-8.476c-6.53,0-8.409,0.175-8.185,0.761
	c0.16,0.419,2.39,8.565,4.955,18.103s4.795,17.716,4.954,18.172c0.186,0.53,0.783,0.697,1.652,0.464
	C854.462,206.753,857.762,205.978,861.045,205.233z M474.12,198.383c1.262-9.828,1.249-10.277-0.282-9.458
	c-1.133,0.607-1.214,1.248-1.169,9.301c0.027,4.757,0.153,8.376,0.282,8.042C473.08,205.934,473.605,202.386,474.12,198.383z
	 M877.325,197.467c4.07-3.501,7.135-6.455,6.812-6.562c-0.68-0.227-16.518,3.225-16.998,3.705c-0.475,0.475,1.777,9.582,2.321,9.389
	C869.716,203.909,873.255,200.969,877.325,197.467z M880.59,202.541c3.705-0.879,6.821-1.67,6.925-1.76
	c0.246-0.212-1.53-7.011-1.938-7.418c-0.278-0.278-12.551,10.058-12.551,10.57C873.027,204.297,873.737,204.167,880.59,202.541z
	 M176.446,200.722c10.069-1.398,12.01-1.829,11.851-2.627c-0.225-1.125,0.657-1.18-14.917,0.936
	c-11.21,1.523-12.323,1.781-12.323,2.853c0,0.962,0.309,1.118,1.673,0.845C163.651,202.545,169.823,201.642,176.446,200.722z
	 M515.972,195.963c1.252-0.691,2.279-1.476,2.282-1.745c0.003-0.269-2.391-3.884-5.32-8.034l-5.325-7.545l-0.385,3.774
	c-0.212,2.076-0.417,7.155-0.456,11.287l-0.071,7.512l3.499-1.997C512.121,198.118,514.72,196.654,515.972,195.963z M505.161,177.45
	c-0.451-0.451-10.96,5.172-10.871,5.816c0.037,0.268,2.364,3.958,5.172,8.199l5.105,7.712l0.472-10.689
	C505.298,182.61,505.353,177.642,505.161,177.45z M205.175,197.178c7.698-0.812,16.414-1.666,19.369-1.898
	c3.777-0.296,5.471-0.677,5.704-1.284c0.182-0.475,0.229-0.946,0.104-1.047c-0.425-0.344-33.729,2.824-38.717,3.683
	c-1.118,0.192-1.978,0.708-1.978,1.185C189.657,198.879,188.662,198.92,205.175,197.178z M255.073,193.224
	c5.69-0.313,16.438-0.761,23.884-0.996c11.539-0.363,13.54-0.563,13.54-1.353c0-0.818-1.921-0.879-16.278-0.52
	c-8.953,0.225-22.302,0.814-29.665,1.309c-7.363,0.495-13.73,0.904-14.148,0.907c-0.418,0.003-0.761,0.458-0.761,1.01
	c0,0.896,0.708,0.961,6.542,0.609C241.785,193.972,249.384,193.537,255.073,193.224z M526.969,178.538
	c-3.563-3.993-6.542-7.191-6.62-7.107c-0.077,0.083,0.007,4.975,0.187,10.869l0.327,10.717l6.292-3.61l6.292-3.61L526.969,178.538z
	 M352.741,191.055c0-0.799-3.685-0.913-29.513-0.913s-29.513,0.114-29.513,0.913s3.685,0.913,29.513,0.913
	S352.741,191.854,352.741,191.055z M405.682,191.055c0-0.797-3.279-0.913-25.862-0.913s-25.862,0.116-25.862,0.913
	c0,0.797,3.279,0.913,25.862,0.913S405.682,191.853,405.682,191.055z M471.403,191.055c0-0.8-3.989-0.913-32.252-0.913
	c-28.262,0-32.252,0.113-32.252,0.913c0,0.8,3.989,0.913,32.252,0.913C467.414,191.968,471.403,191.855,471.403,191.055z
	 M874.713,185.073c4.107-3.333,7.364-6.164,7.238-6.29c-0.25-0.25-17.436,3.24-17.814,3.618c-0.532,0.532,1.905,9.445,2.488,9.101
	C866.966,191.299,870.606,188.406,874.713,185.073z M878.401,189.891c6.53-1.456,6.356-1.224,4.78-6.357l-0.723-2.356l-6.617,5.425
	c-4.501,3.69-6.09,5.293-4.97,5.012C871.778,191.388,875.166,190.612,878.401,189.891z M518.553,177.495l-0.419-7.475l-4.653,2.527
	c-2.559,1.39-4.862,2.717-5.117,2.949c-0.255,0.232,1.936,3.797,4.868,7.921l5.332,7.499l0.204-2.973
	C518.879,186.308,518.783,181.606,518.553,177.495z M512.017,171.184c23.278-12.262,32.266-17.279,31.611-17.646
	c-0.615-0.344-2.083,0.144-4.471,1.487c-1.955,1.1-16.491,8.698-32.302,16.885c-25.15,13.024-30.937,16.408-28.061,16.408
	C479.178,188.317,494.128,180.607,512.017,171.184z M542.139,180.711c2.926-1.673,5.299-3.18,5.272-3.347
	c-0.072-0.455-13.544-12.769-13.748-12.565c-0.508,0.508,1.966,19.278,2.521,19.127
	C536.533,183.831,539.213,182.384,542.139,180.711z M532.535,173.017c-0.555-5.14-1.102-9.442-1.215-9.56
	c-0.428-0.448-10.029,5.053-9.834,5.635c0.269,0.807,11.628,13.673,11.87,13.446C533.46,182.441,533.09,178.157,532.535,173.017z
	 M872.595,172.295c3.584-2.955,6.517-5.45,6.517-5.544c0-0.094-0.616-0.072-1.369,0.049c-9.708,1.563-16.597,2.769-16.762,2.934
	c-0.113,0.113,0.106,1.396,0.485,2.852c0.379,1.456,0.958,3.684,1.286,4.951C863.445,180.212,862.162,180.896,872.595,172.295z
	 M875.115,177.976c3.324-0.681,6.116-1.311,6.203-1.398c0.088-0.088-0.267-1.856-0.789-3.928l-0.949-3.768l-5.558,4.647
	c-7.404,6.19-7.719,6.498-6.167,6.043C868.524,179.375,871.791,178.657,875.115,177.976z M557.649,171.636l3.792-2.258l-6.792-6.039
	c-3.736-3.321-6.899-5.932-7.03-5.802c-0.131,0.131,0.33,4.119,1.023,8.863c0.693,4.744,1.261,8.9,1.261,9.236
	s0.89,0.08,1.978-0.567C552.968,174.423,555.563,172.878,557.649,171.636z M546.742,166.106c-0.652-4.686-1.297-8.867-1.433-9.293
	c-0.172-0.54-1.906,0.059-5.738,1.984c-3.02,1.516-5.468,2.96-5.438,3.208c0.054,0.466,13.492,12.989,13.686,12.753
	C547.879,174.685,547.395,170.792,546.742,166.106z M581.074,158.043l17.57-10.193l-26.298-0.304
	c-20.278-0.235-26.356-0.478-26.551-1.065c-0.189-0.567,1.001-0.761,4.666-0.761h4.919v-23.214V99.293l-5.891,0.414
	c-3.24,0.228-7.916,0.715-10.391,1.083c-3.905,0.581-4.575,0.865-5.063,2.149c-1.2,3.156-0.326,28.834,1.299,38.165l0.698,4.007
	h2.255c2.902,0,4.159,0.96,5.192,3.963c0.66,1.919,2.783,4.171,10.171,10.784c5.135,4.597,9.453,8.362,9.596,8.367
	C563.387,168.232,571.41,163.649,581.074,158.043z M870.348,166.106c5.185-0.837,9.62-1.526,9.856-1.531
	c0.236-0.005-6.393-3.164-14.733-7.021l-15.163-7.011l-6.299,1.639c-5.054,1.315-6.242,1.83-6.01,2.609
	c0.159,0.534,1.022,3.64,1.917,6.903l1.628,5.933h9.689C858.648,167.627,863.133,167.27,870.348,166.106z M822.216,145.72
	c5.02-0.321,13.098-0.904,17.951-1.295l8.824-0.711l6.549-6.423c5.296-5.195,6.365-6.526,5.587-6.961
	c-1.631-0.913-13.035-2.755-24.102-3.895c-8.709-0.896-16.068-1.083-42.191-1.066c-17.696,0.011-36.739,0.343-43.205,0.755
	c-21.299,1.355-23.456,1.516-23.227,1.745c0.125,0.125,12.522,4.06,27.549,8.744c19.673,6.132,28.684,8.662,32.19,9.035
	C794.968,146.377,811.412,146.411,822.216,145.72z M656.394,120.979V96.237l-29.97,0.38c-28.063,0.356-52.367,1.161-64.351,2.132
	l-5.172,0.419l-0.159,23.276l-0.159,23.276h49.906h49.906V120.979z M575.702,135.984c0-4.853,0.094-6.838,0.21-4.412
	c0.116,2.427,0.116,6.397,0,8.824C575.796,142.822,575.702,140.837,575.702,135.984z M576.919,135.984
	c0-4.853,0.094-6.838,0.21-4.412c0.116,2.427,0.116,6.397,0,8.824C577.013,142.822,576.919,140.837,576.919,135.984z
	 M578.745,135.984c0-4.853,0.094-6.838,0.21-4.412c0.116,2.427,0.116,6.397,0,8.824
	C578.839,142.822,578.745,140.837,578.745,135.984z M579.962,135.984c0-4.853,0.094-6.838,0.21-4.412
	c0.116,2.427,0.116,6.397,0,8.824C580.056,142.822,579.962,140.837,579.962,135.984z M583.004,135.984
	c0-4.853,0.094-6.838,0.21-4.412c0.116,2.427,0.116,6.397,0,8.824C583.098,142.822,583.004,140.837,583.004,135.984z
	 M599.967,140.853c0-1.506,0.119-2.122,0.263-1.369c0.145,0.753,0.145,1.986,0,2.738
	C600.085,142.974,599.967,142.359,599.967,140.853z M601.184,140.853c0-1.506,0.119-2.122,0.263-1.369
	c0.145,0.753,0.145,1.986,0,2.738C601.302,142.974,601.184,142.359,601.184,140.853z M603.009,140.853
	c0-1.506,0.119-2.122,0.263-1.369c0.145,0.753,0.145,1.986,0,2.738C603.128,142.974,603.009,142.359,603.009,140.853z
	 M604.226,140.853c0-1.506,0.119-2.122,0.263-1.369c0.145,0.753,0.145,1.986,0,2.738
	C604.345,142.974,604.226,142.359,604.226,140.853z M607.269,140.853c0-1.506,0.119-2.122,0.263-1.369
	c0.145,0.753,0.145,1.986,0,2.738C607.388,142.974,607.269,142.359,607.269,140.853z M610.312,140.853
	c0-1.506,0.119-2.122,0.263-1.369c0.145,0.753,0.145,1.986,0,2.738C610.43,142.974,610.312,142.359,610.312,140.853z
	 M611.529,140.853c0-1.506,0.119-2.122,0.263-1.369c0.145,0.753,0.145,1.986,0,2.738
	C611.647,142.974,611.529,142.359,611.529,140.853z M613.354,140.853c0-1.506,0.119-2.122,0.263-1.369
	c0.145,0.753,0.145,1.986,0,2.738C613.473,142.974,613.354,142.359,613.354,140.853z M614.571,140.853
	c0-1.506,0.119-2.122,0.263-1.369c0.145,0.753,0.145,1.986,0,2.738C614.69,142.974,614.571,142.359,614.571,140.853z
	 M616.397,140.853c0-1.506,0.119-2.122,0.263-1.369c0.145,0.753,0.145,1.986,0,2.738
	C616.515,142.974,616.397,142.359,616.397,140.853z M617.614,140.853c0-1.506,0.119-2.122,0.263-1.369
	c0.145,0.753,0.145,1.986,0,2.738C617.732,142.974,617.614,142.359,617.614,140.853z M620.656,140.853
	c0-1.506,0.119-2.122,0.263-1.369c0.145,0.753,0.145,1.986,0,2.738C620.775,142.974,620.656,142.359,620.656,140.853z
	 M623.699,140.853c0-1.506,0.119-2.122,0.263-1.369c0.145,0.753,0.145,1.986,0,2.738
	C623.818,142.974,623.699,142.359,623.699,140.853z M624.916,140.853c0-1.506,0.119-2.122,0.263-1.369
	c0.145,0.753,0.145,1.986,0,2.738C625.035,142.974,624.916,142.359,624.916,140.853z M626.742,140.853
	c0-1.506,0.119-2.122,0.263-1.369c0.145,0.753,0.145,1.986,0,2.738C626.86,142.974,626.742,142.359,626.742,140.853z
	 M600.006,121.38c0-2.51,0.108-3.537,0.239-2.282c0.131,1.255,0.131,3.309,0,4.564S600.006,123.89,600.006,121.38z M601.223,121.38
	c0-2.51,0.108-3.537,0.239-2.282c0.131,1.255,0.131,3.309,0,4.564S601.223,123.89,601.223,121.38z M603.048,121.38
	c0-2.51,0.108-3.537,0.239-2.282c0.131,1.255,0.131,3.309,0,4.564S603.048,123.89,603.048,121.38z M604.265,121.38
	c0-2.51,0.108-3.537,0.239-2.282c0.131,1.255,0.131,3.309,0,4.564S604.265,123.89,604.265,121.38z M607.308,121.38
	c0-2.51,0.108-3.537,0.239-2.282c0.131,1.255,0.131,3.309,0,4.564S607.308,123.89,607.308,121.38z M610.35,121.38
	c0-2.51,0.108-3.537,0.239-2.282c0.131,1.255,0.131,3.309,0,4.564S610.35,123.89,610.35,121.38z M611.567,121.38
	c0-2.51,0.108-3.537,0.239-2.282c0.131,1.255,0.131,3.309,0,4.564S611.567,123.89,611.567,121.38z M613.393,121.38
	c0-2.51,0.108-3.537,0.239-2.282c0.131,1.255,0.131,3.309,0,4.564S613.393,123.89,613.393,121.38z M614.61,121.38
	c0-2.51,0.108-3.537,0.239-2.282c0.131,1.255,0.131,3.309,0,4.564S614.61,123.89,614.61,121.38z M616.436,121.38
	c0-2.51,0.108-3.537,0.239-2.282c0.131,1.255,0.131,3.309,0,4.564S616.436,123.89,616.436,121.38z M617.653,121.38
	c0-2.51,0.108-3.537,0.239-2.282c0.131,1.255,0.131,3.309,0,4.564S617.653,123.89,617.653,121.38z M620.695,121.38
	c0-2.51,0.108-3.537,0.239-2.282c0.131,1.255,0.131,3.309,0,4.564S620.695,123.89,620.695,121.38z M623.738,121.38
	c0-2.51,0.108-3.537,0.238-2.282c0.131,1.255,0.131,3.309,0,4.564S623.738,123.89,623.738,121.38z M624.955,121.38
	c0-2.51,0.108-3.537,0.238-2.282c0.131,1.255,0.131,3.309,0,4.564S624.955,123.89,624.955,121.38z M626.781,121.38
	c0-2.51,0.108-3.537,0.238-2.282c0.131,1.255,0.131,3.309,0,4.564C626.888,124.917,626.781,123.89,626.781,121.38z M575.702,109.209
	c0-4.853,0.094-6.838,0.21-4.412c0.116,2.427,0.116,6.397,0,8.824S575.702,114.062,575.702,109.209z M576.919,109.209
	c0-4.853,0.094-6.838,0.21-4.412c0.116,2.427,0.116,6.397,0,8.824S576.919,114.062,576.919,109.209z M578.745,109.209
	c0-4.853,0.094-6.838,0.21-4.412c0.116,2.427,0.116,6.397,0,8.824S578.745,114.062,578.745,109.209z M579.962,109.209
	c0-4.853,0.094-6.838,0.21-4.412c0.116,2.427,0.116,6.397,0,8.824S579.962,114.062,579.962,109.209z M583.004,109.209
	c0-4.853,0.094-6.838,0.21-4.412c0.116,2.427,0.116,6.397,0,8.824S583.004,114.062,583.004,109.209z M599.967,101.907
	c0-1.506,0.119-2.122,0.263-1.369c0.145,0.753,0.145,1.986,0,2.738C600.085,104.029,599.967,103.413,599.967,101.907z
	 M601.184,101.907c0-1.506,0.119-2.122,0.263-1.369c0.145,0.753,0.145,1.986,0,2.738
	C601.302,104.029,601.184,103.413,601.184,101.907z M603.009,101.907c0-1.506,0.119-2.122,0.263-1.369
	c0.145,0.753,0.145,1.986,0,2.738C603.128,104.029,603.009,103.413,603.009,101.907z M604.226,101.907
	c0-1.506,0.119-2.122,0.263-1.369c0.145,0.753,0.145,1.986,0,2.738C604.345,104.029,604.226,103.413,604.226,101.907z
	 M607.269,101.907c0-1.506,0.119-2.122,0.263-1.369c0.145,0.753,0.145,1.986,0,2.738
	C607.388,104.029,607.269,103.413,607.269,101.907z M610.312,101.907c0-1.506,0.119-2.122,0.263-1.369
	c0.145,0.753,0.145,1.986,0,2.738C610.43,104.029,610.312,103.413,610.312,101.907z M611.529,101.907
	c0-1.506,0.119-2.122,0.263-1.369c0.145,0.753,0.145,1.986,0,2.738C611.647,104.029,611.529,103.413,611.529,101.907z
	 M613.354,101.907c0-1.506,0.119-2.122,0.263-1.369c0.145,0.753,0.145,1.986,0,2.738
	C613.473,104.029,613.354,103.413,613.354,101.907z M614.571,101.907c0-1.506,0.119-2.122,0.263-1.369
	c0.145,0.753,0.145,1.986,0,2.738C614.69,104.029,614.571,103.413,614.571,101.907z M616.397,101.907
	c0-1.506,0.119-2.122,0.263-1.369c0.145,0.753,0.145,1.986,0,2.738C616.515,104.029,616.397,103.413,616.397,101.907z
	 M617.614,101.907c0-1.506,0.119-2.122,0.263-1.369c0.145,0.753,0.145,1.986,0,2.738
	C617.732,104.029,617.614,103.413,617.614,101.907z M620.656,101.907c0-1.506,0.119-2.122,0.263-1.369
	c0.145,0.753,0.145,1.986,0,2.738C620.775,104.029,620.656,103.413,620.656,101.907z M623.699,101.907
	c0-1.506,0.119-2.122,0.263-1.369c0.145,0.753,0.145,1.986,0,2.738C623.818,104.029,623.699,103.413,623.699,101.907z
	 M624.916,101.907c0-1.506,0.119-2.122,0.263-1.369c0.145,0.753,0.145,1.986,0,2.738
	C625.035,104.029,624.916,103.413,624.916,101.907z M626.742,101.907c0-1.506,0.119-2.122,0.263-1.369
	c0.145,0.753,0.145,1.986,0,2.738C626.86,104.029,626.742,103.413,626.742,101.907z M756.799,142.211v-3.509l-17.343-5.408
	c-10.056-3.136-17.343-5.714-17.343-6.136c0-0.805,2.757-1.08,22.363-2.222l12.323-0.719v-13.803V96.611l-47.617-0.445
	c-26.189-0.245-48.37-0.255-49.29-0.024l-1.673,0.421v24.579v24.578h49.29h49.29V142.211z M769.274,142.631
	c-5.02-1.636-9.47-2.979-9.888-2.985c-0.509-0.007-0.761,0.999-0.761,3.032v3.043l9.888-0.058l9.888-0.058L769.274,142.631z
	 M533.821,142.526c-1.286-8.019-1.617-13.09-1.683-25.837c-0.059-11.315,0.097-14.332,0.783-15.175
	c0.742-0.912,0.734-1.008-0.057-0.719c-0.502,0.183-1.944,0.702-3.205,1.153c-1.915,0.685-2.401,1.223-2.951,3.265
	c-2.219,8.242-1.65,23.681,1.364,37.01l0.654,2.89h2.755h2.755L533.821,142.526z M523.595,128.226
	c-0.284-2.594-0.438-7.523-0.34-10.955c0.097-3.431,0.019-6.238-0.173-6.237c-0.599,0.002-33.094,14.642-33.582,15.13
	c-0.401,0.401,29.963,6.503,33.359,6.703C524.065,132.939,524.093,132.762,523.595,128.226z M850.512,120.85v-5.398l-4.716-0.373
	c-2.594-0.205-9.302-0.554-14.909-0.775l-10.193-0.402v4.86v4.86l10.497,0.781c5.773,0.43,12.003,0.982,13.844,1.227
	C851.051,126.432,850.512,126.903,850.512,120.85z M775.227,123.002c0.267-0.39,0.403-2.831,0.304-5.426l-0.181-4.716h8.676h8.676
	v5.172v5.172h6.389h6.389v-12.779V97.648h-6.318c-5.807,0-6.344,0.099-6.637,1.217c-0.299,1.145-0.83,1.217-8.895,1.217h-8.576
	V98.56c0-1.45-0.169-1.521-3.559-1.521c-1.958,0-5.654-0.177-8.215-0.394l-4.656-0.394l-0.001,13.933l-0.001,13.933l8.06-0.203
	C771.925,123.782,774.912,123.463,775.227,123.002z M775.359,105.558v-4.26h8.671h8.671v4.26v4.26h-8.671h-8.671V105.558z
	 M791.485,105.558v-3.043h-6.998h-6.998v3.043v3.043h6.998h6.998V105.558z M818.26,110.686c0-12.175-0.077-13.113-1.065-12.923
	c-0.965,0.186-1.081,1.343-1.23,12.35c-0.091,6.68-0.031,12.495,0.133,12.923c0.164,0.428,0.718,0.778,1.23,0.778
	C818.136,123.814,818.26,122.069,818.26,110.686z M809.132,110.426c0-12.373-0.038-12.779-1.217-12.779s-1.217,0.406-1.217,12.779
	s0.038,12.779,1.217,12.779S809.132,122.8,809.132,110.426z M814.609,110.426V97.648h-2.13h-2.13v12.779v12.779h2.13h2.13V110.426z
	 M791.485,118.337v-4.26h-6.998h-6.998v4.26v4.26h6.998h6.998V118.337z M850.512,110.122c0-2.753-0.231-3.958-0.761-3.966
	c-0.419-0.005-6.374-0.689-13.235-1.518c-6.861-0.829-13.228-1.509-14.148-1.511l-1.673-0.003v4.868v4.868l3.499,0.083
	c1.924,0.046,6.785,0.271,10.801,0.502s9.15,0.467,11.41,0.526l4.107,0.106V110.122z M850.512,103.783
	c0-0.966-0.916-1.381-5.325-2.412c-5.367-1.255-18.799-3.116-22.497-3.116c-1.792,0-1.996,0.178-1.996,1.746v1.746l6.846,0.752
	c3.766,0.413,9.584,1.103,12.931,1.532C849.525,105.193,850.512,105.169,850.512,103.783z M542.6,98.595
	c7.56-0.96,28.716-2.191,47.769-2.781c11.714-0.362,24.927-0.811,29.361-0.996l8.063-0.338V84.197
	c0-9.388-0.092-10.282-1.065-10.282c-2.059,0.001-22.34,3.683-30.521,5.541c-18.819,4.274-38.371,10.43-52.259,16.454
	c-7.792,3.38-8.657,3.873-5.911,3.367C539.04,99.094,541.094,98.787,542.6,98.595z M782.966,98.199
	c-1.841-0.288-4.1-0.66-5.02-0.826c-1.206-0.218-1.673-0.052-1.673,0.595c0,0.724,0.969,0.884,5.02,0.826l5.02-0.071L782.966,98.199
	z M791.126,96.735l-0.382-1.521h5.238h5.238l-0.007-2.586c-0.014-5.18-2.414-54.197-2.666-54.448
	c-0.142-0.142-2.366,0.926-4.941,2.373c-2.575,1.448-6.685,3.728-9.133,5.067c-2.447,1.339-5.284,3.051-6.302,3.803
	c-1.018,0.753-2.056,1.369-2.306,1.369c-0.731,0-20.568,11.146-20.791,11.683c-0.111,0.268-0.476,0.487-0.811,0.487
	c-0.334,0-3.186,1.437-6.338,3.195l-5.73,3.195l-0.001,12.627l-0.001,12.627l4.412,0.066c15.206,0.228,31.378,1.197,37.576,2.252
	c3.849,0.655,7.072,1.223,7.162,1.262C791.434,98.224,791.336,97.571,791.126,96.735z M816.438,94.453
	c0.005-2.051-3.613-55.647-4-59.275l-0.336-3.139l-5.846,2.379c-3.215,1.308-5.942,2.475-6.06,2.592
	c-0.117,0.117,0.338,12.097,1.011,26.622s1.226,27.562,1.228,28.972l0.004,2.562l5.325,0.203c2.929,0.111,6.077,0.259,6.998,0.328
	C816.127,95.799,816.435,95.571,816.438,94.453z M832.136,94.056c5.456-0.626,10.068-1.286,10.249-1.467
	c0.257-0.257-14.861-64.644-15.36-65.42c-0.162-0.251-12.589,3.617-13.142,4.091c-0.232,0.199,0.515,13.917,1.661,30.484
	c1.146,16.567,2.089,30.875,2.096,31.795c0.011,1.527,0.211,1.673,2.294,1.664C821.188,95.199,826.68,94.682,832.136,94.056z
	 M640.572,83.327V72.048l-3.195,0.403c-1.757,0.222-4.29,0.581-5.629,0.798l-2.434,0.394l-0.167,10.481l-0.167,10.481h5.796h5.796
	L640.572,83.327L640.572,83.327z M694.135,94.149c0.007-0.251-1.697-5.906-3.787-12.566l-3.801-12.11l-12.795,0.366
	c-11.822,0.338-25.237,1.228-29.986,1.989l-1.978,0.317v11.23v11.23h26.166C682.347,94.605,694.128,94.399,694.135,94.149z
	 M706.901,90.945v-3.66l-6.542-8.788l-6.542-8.788l-2.891-0.026c-1.59-0.015-2.89,0.063-2.89,0.173c0,0.23,7.151,22.851,7.583,23.99
	c0.202,0.531,1.948,0.761,5.785,0.761h5.496L706.901,90.945L706.901,90.945z M740.978,82.424V70.243l-2.89,1.474
	c-1.59,0.811-3.93,2.185-5.199,3.053c-1.27,0.868-2.48,1.579-2.689,1.579c-0.209,0-5.126,2.654-10.927,5.899l-10.546,5.899v3.229
	v3.229h16.126h16.126V82.424z M850.017,89.745c4.715-2.57,4.41-2.824-1.94-1.614c-2.331,0.444-3.93,1.054-3.895,1.484
	C844.453,92.854,844.321,92.851,850.017,89.745z M716.806,82.102c0.986-0.656,0.699-1.216-3.214-6.279
	c-2.363-3.058-4.425-5.559-4.582-5.559s-0.285,3.699-0.285,8.221v8.221l3.499-1.941C714.15,83.696,716.211,82.498,716.806,82.102z
	 M854.011,85.143c4.418-0.792,5.627-1.225,5.622-2.011c-0.008-1.09-1.603-7.379-1.963-7.739c-0.122-0.122-2.81,2.399-5.971,5.601
	c-3.163,3.203-5.202,5.674-4.532,5.491C847.834,86.303,850.915,85.699,854.011,85.143z M854.54,74.698
	c-0.157-0.157-13.142,1.706-13.596,1.951c-0.075,0.04,0.113,1.016,0.417,2.169c0.304,1.153,0.866,3.301,1.249,4.774l0.695,2.678
	l5.713-5.69C852.161,77.451,854.646,74.804,854.54,74.698z M706.901,76.618v-8.251l-4.255,2.318c-2.34,1.275-4.257,2.527-4.26,2.783
	c-0.004,0.45,8.018,11.401,8.351,11.401C706.827,84.869,706.901,81.156,706.901,76.618z M863.387,82.891
	c0.831-0.674,0.097-4.255-6.458-31.491c-8.227-34.188-8.7-35.514-14.979-42.031c-6.758-7.014-15.448-9.252-23.691-6.099
	c-4.998,1.911-5.387,2.233-4.174,3.447c0.926,0.927,1.205,0.879,3.829-0.66c2.628-1.54,3.214-1.641,8.178-1.403
	c4.256,0.203,6.046,0.597,8.769,1.93c4.049,1.981,8.296,6.461,10.36,10.928c0.803,1.738,4.854,17.329,9.003,34.648
	c4.149,17.319,7.697,31.49,7.883,31.491C862.295,83.651,862.871,83.309,863.387,82.891z M729.022,74.987
	c0.049-0.206-1.69-2.901-3.866-5.989c-3.838-5.449-3.967-5.563-4.34-3.848c-0.211,0.972-0.417,4.737-0.456,8.365l-0.072,6.598
	l4.322-2.376C726.987,76.43,728.973,75.193,729.022,74.987z M718.726,62.415c-0.244-0.245-7.254,3.287-8.592,4.329
	c-0.52,0.405,0.498,2.141,3.651,6.224l4.373,5.662l0.405-7.986C718.786,66.251,718.859,62.548,718.726,62.415z M849.903,73.324
	c7.935-1.184,7.307-0.749,6.395-4.427c-0.436-1.759-0.974-3.995-1.196-4.969l-0.403-1.772l-3.965,3.902
	c-5.477,5.39-8.124,8.726-6.571,8.283C844.809,74.157,847.393,73.699,849.903,73.324z M852.165,61.996
	c-0.241-0.21-13.294,2.667-13.631,3.004c-0.286,0.286,0.456,4.353,1.446,7.926c0.258,0.93,1.424,0.037,6.316-4.837
	C849.597,64.801,852.238,62.059,852.165,61.996z M736.467,71.125c2.146-1.2,3.902-2.385,3.902-2.633c0-0.248-1.917-3.01-4.26-6.138
	l-4.26-5.688v8.32c0,4.576,0.161,8.32,0.358,8.32C732.404,73.307,734.321,72.325,736.467,71.125z M729.77,56.42
	c-0.161-0.161-2.095,0.717-4.3,1.95l-4.008,2.241l2.047,2.849c1.126,1.567,2.984,4.181,4.129,5.81l2.082,2.961l0.171-7.76
	C729.985,60.203,729.931,56.58,729.77,56.42z M744.51,45.846c26.004-14.099,51.592-27.972,56.864-30.829
	c8.342-4.521,9.584-5.387,9.584-6.682c0-0.946-0.278-1.377-0.761-1.185c-1.707,0.679-113.942,61.346-114.474,61.878
	c-0.513,0.513,0.471,2.454,1.244,2.454C697.112,71.481,718.506,59.945,744.51,45.846z M747.842,64.734
	c2.416-1.368,4.49-2.583,4.609-2.701c0.302-0.299-8.024-11.175-8.583-11.212c-0.251-0.016-0.458,1.818-0.461,4.078
	s-0.179,5.956-0.393,8.215c-0.214,2.259-0.203,4.108,0.023,4.108S745.426,66.102,747.842,64.734z M741.495,57.221
	c0.217-4.205,0.317-7.647,0.222-7.647c-0.635,0.001-8.632,4.656-8.64,5.031c-0.015,0.689,7.464,10.821,7.765,10.52
	C740.984,64.983,741.278,61.427,741.495,57.221z M849.085,49.782c-0.217-0.221-13.117,2.561-13.452,2.901
	c-0.201,0.204,0.104,2.507,0.678,5.117l1.043,4.747l5.913-6.334C846.519,52.729,849.137,49.835,849.085,49.782z M848.382,60.775
	c3.012-0.572,5.538-1.083,5.612-1.134s-0.113-1.038-0.417-2.19s-0.864-3.293-1.244-4.756l-0.691-2.66l-5.281,5.64
	c-5.707,6.095-6.338,6.985-4.593,6.473C842.393,61.965,845.369,61.347,848.382,60.775z M763.401,55.942
	c0.117-0.11-1.561-2.678-3.729-5.708c-3.925-5.487-3.943-5.502-4.319-3.616c-0.208,1.041-0.378,4.622-0.378,7.958v6.065l4.108-2.249
	C761.34,57.153,763.284,56.051,763.401,55.942z M753.453,43.601c-0.18-0.19-6.55,2.98-8.119,4.041
	c-0.629,0.425,0.138,1.789,3.347,5.95l4.164,5.398l0.395-7.598C753.456,47.212,753.552,43.707,753.453,43.601z M774.442,49.413
	c0.004-0.399-6.375-8.769-7.97-10.457c-0.324-0.343-0.546,2.706-0.546,7.49v8.068l4.255-2.318
	C772.523,50.922,774.44,49.669,774.442,49.413z M764.102,44.975v-7.642l-3.803,2.163c-2.092,1.19-3.722,2.475-3.623,2.857
	c0.192,0.744,6.898,10.263,7.229,10.263C764.012,52.617,764.102,49.178,764.102,44.975z M844.731,48.612
	c3.012-0.568,5.673-1.204,5.912-1.414c0.367-0.321-0.678-5.56-1.701-8.53c-0.336-0.974-3.683,2.053-8.957,8.099
	c-2.115,2.425-2.738,3.468-1.927,3.23C838.715,49.803,841.718,49.179,844.731,48.612z M845.434,37.6
	c-0.234-0.234-12.657,2.732-13.036,3.111c-0.092,0.092,0.312,2.163,0.897,4.602l1.064,4.435l5.664-5.947
	C843.138,40.53,845.573,37.739,845.434,37.6z M782.032,45.563c2.187-1.202,3.976-2.407,3.976-2.677c0-0.551-7.801-10.35-8.239-10.35
	c-0.154,0-0.28,3.423-0.28,7.607s0.127,7.607,0.284,7.607C777.928,47.749,779.845,46.765,782.032,45.563z M775.664,39.222v-7.918
	l-4.312,2.171c-2.9,1.46-4.207,2.445-3.991,3.006c0.31,0.809,7.842,10.659,8.15,10.659C775.594,47.14,775.664,43.577,775.664,39.222
	z M797.19,36.797c0.42-0.409-3.626-6.038-7.633-10.62c-0.278-0.318-0.506,3.022-0.506,7.422v8l3.803-2.141
	C794.946,38.279,796.897,37.083,797.19,36.797z M786.983,25.397c-0.155-0.155-2.18,0.758-4.501,2.026l-4.22,2.308l4.33,5.409
	l4.33,5.409l0.172-7.436C787.187,29.024,787.137,25.551,786.983,25.397z M840.738,28.124c1.444-1.589,2.385-2.884,2.092-2.878
	c-0.994,0.024-13.038,2.856-13.312,3.13c-0.15,0.15-0.023,1.215,0.281,2.368c0.304,1.153,0.856,3.263,1.226,4.689l0.673,2.594
	l3.208-3.506C836.67,32.592,839.294,29.713,840.738,28.124z M842.147,36.152c4.678-1.122,5.88-1.624,5.672-2.368
	c-0.145-0.52-0.601-2.519-1.013-4.443s-0.91-3.497-1.108-3.493c-0.349,0.005-6.315,6.453-9.664,10.442
	c-0.918,1.094-1.244,1.814-0.736,1.625C835.8,37.728,838.882,36.935,842.147,36.152z M805.938,33.107
	c0.753-0.298,1.369-0.686,1.369-0.865c0-0.178-1.438-2.855-3.195-5.948l-3.195-5.624l-0.385,3.955
	c-0.212,2.175-0.417,5.534-0.456,7.462l-0.071,3.507l2.282-0.974C803.541,34.085,805.184,33.404,805.938,33.107z M798.721,22.677
	l0.066-4.078l-4.249,2.252c-2.337,1.239-4.254,2.469-4.26,2.735c-0.005,0.265,1.701,2.612,3.793,5.216l3.803,4.733l0.39-3.39
	C798.48,28.28,798.685,24.92,798.721,22.677z M810.866,30.171c0.661-0.419,0.735-2.197,0.378-9.119
	c-0.243-4.729-0.613-8.594-0.821-8.589c-0.677,0.017-8.898,4.634-8.898,4.998c0,0.902,7.375,13.241,7.911,13.236
	C809.771,30.694,810.414,30.457,810.866,30.171z M819.522,27.359c2.485-0.839,4.872-1.656,5.305-1.816
	c1-0.369-9.874-14.914-11.15-14.914c-1.025,0-1.133,2.685-0.495,12.323c0.259,3.913,0.636,5.933,1.107,5.933
	C814.683,28.885,817.038,28.198,819.522,27.359z M839.147,24.077c2.954-0.641,5.521-1.316,5.705-1.5
	c0.884-0.884-5.037-11.339-6.423-11.339c-0.377,0-7.391,13.587-7.391,14.318c0,0.17,0.616,0.169,1.369-0.002
	C833.161,25.382,836.194,24.718,839.147,24.077z M826.048,14.432l-0.122-7.759l-0.334,7.302c-0.184,4.016-0.25,7.507-0.146,7.759
	C826.018,23.123,826.159,21.418,826.048,14.432z M831.572,15.058l3.022-6.782l-2.799-0.954c-1.539-0.525-3.024-0.954-3.299-0.954
	c-0.275,0-0.5,3.605-0.5,8.012s0.125,7.888,0.277,7.736C828.425,21.965,829.91,18.788,831.572,15.058z M823.737,12.759
	c0-6.099-0.058-6.389-1.286-6.389c-1.48,0-6.016,2.4-6.016,3.183c0,0.475,6.79,9.584,7.15,9.593
	C823.668,19.147,823.737,16.273,823.737,12.759z"/>
</svg>
