<?xml version="1.0" encoding="utf-8"?>
<!-- Generator: Adobe Illustrator 17.0.0, SVG Export Plug-In . SVG Version: 6.00 Build 0)  -->
<!DOCTYPE svg PUBLIC "-//W3C//DTD SVG 1.1 Basic//EN" "http://www.w3.org/Graphics/SVG/1.1/DTD/svg11-basic.dtd">
<svg version="1.1" baseProfile="basic" id="Layer_1"
	 xmlns="http://www.w3.org/2000/svg" xmlns:xlink="http://www.w3.org/1999/xlink" x="0px" y="0px" width="907.084px"
	 height="276.445px" viewBox="0 0 907.084 276.445" xml:space="preserve">
<g>
	<g>
		<g>
			<g>
				<path fill="none" stroke="#000000" stroke-width="1.7282" d="M334.325,276.445c2.863,0,5.184-2.322,5.184-5.184v-25.917
					c0-2.862-2.321-5.184-5.184-5.184l0,0c-2.862,0-5.183,2.322-5.183,5.184v25.917
					C329.142,274.123,331.463,276.445,334.325,276.445L334.325,276.445z"/>
				<path fill="none" stroke="#000000" stroke-width="1.7282" d="M334.325,258.303"/>
			</g>
			<g>
				<path fill="none" stroke="#000000" stroke-width="1.7282" d="M356.787,276.445c2.862,0,5.183-2.322,5.183-5.184v-25.917
					c0-2.862-2.321-5.184-5.183-5.184l0,0c-2.863,0-5.184,2.322-5.184,5.184v25.917
					C351.603,274.123,353.923,276.445,356.787,276.445L356.787,276.445z"/>
				<path fill="none" stroke="#000000" stroke-width="1.7282" d="M356.787,258.303"/>
			</g>
			<g>
				<path fill="none" stroke="#000000" stroke-width="1.7282" d="M443.175,276.445c2.862,0,5.183-2.322,5.183-5.184v-25.917
					c0-2.862-2.321-5.184-5.183-5.184l0,0c-2.863,0-5.184,2.322-5.184,5.184v25.917
					C437.992,274.123,440.312,276.445,443.175,276.445L443.175,276.445z"/>
				<path fill="none" stroke="#000000" stroke-width="1.7282" d="M443.175,258.303"/>
			</g>
			<polyline fill="none" stroke="#000000" stroke-width="1.7282" points="320.503,131.311 327.414,0 329.142,131.311 			"/>
			<path fill="none" stroke="#000000" stroke-width="1.7282" d="M453.541,64.36c0,0-17.71-2.591-37.147,18.574
				c0,0-4.32,23.325,0.863,35.419c0,0,14.686,24.189,36.283,25.917"/>
			<polyline fill="none" stroke="#000000" stroke-width="1.7282" points="417.258,83.797 336.917,83.797 353.331,88.98 
				415.531,93.3 			"/>
			<line fill="none" stroke="#000000" stroke-width="1.7282" x1="347.283" y1="87.253" x2="414.667" y2="88.98"/>
			<path fill="none" stroke="#000000" stroke-width="1.7282" d="M415.098,96.323c0,0,23.757,28.077,36.716,26.349
				c15.868-2.116-28.076,3.887-28.076,3.887"/>
			<path fill="none" stroke="#000000" stroke-width="1.7282" d="M416.826,85.956c0,0,14.254,14.255,28.076,14.255"/>
			<polyline fill="none" stroke="#000000" stroke-width="1.7282" points="422.442,76.886 436.264,88.98 453.541,88.98 			"/>
			<path fill="none" stroke="#000000" stroke-width="1.7282" d="M424.602,75.158l5.183,4.32c0,0,3.024-5.183,18.574-3.456
				l3.456-11.231"/>
			<path fill="none" stroke="#000000" stroke-width="1.7282" d="M446.631,89.412c0,0-5.184,26.781,6.91,35.42"/>
			<path fill="none" stroke="#000000" stroke-width="1.7282" d="M431.08,136.495l-99.347-5.184l-156.364,6.911
				c0,0-112.305-11.23-175.369-6.911c0,0,54.425,3.456,59.608,6.911c0,0,88.117,17.278,116.625,15.551l160.684-10.367l104.53-0.864"
				/>
			<path fill="#FFFFFF" stroke="#000000" stroke-width="1.7282" d="M165.867,137.359c0,0,0.864-8.639,5.184,0l7.774,17.277
				L165.867,137.359z"/>
			<path fill="none" stroke="#000000" stroke-width="1.7282" d="M322.231,145.133l0.864,44.059c0,0-1.728,12.094,17.278,12.094
				h101.939l10.367-4.319"/>
			<g>
				<rect x="439.72" y="142.542" fill="none" stroke="#000000" stroke-width="1.7282" width="13.822" height="54.425"/>
				<path fill="none" stroke="#000000" stroke-width="1.7282" d="M446.631,169.754"/>
			</g>
			<g>
				<rect x="389.614" y="142.542" fill="none" stroke="#000000" stroke-width="1.7282" width="50.106" height="53.561"/>
				<path fill="none" stroke="#000000" stroke-width="1.7282" d="M414.667,169.322"/>
			</g>
			<path fill="none" stroke="#000000" stroke-width="1.7282" d="M354.194,145.133l0.864,44.923c0,0-0.864,10.366,17.278,10.366"/>
			<path fill="none" stroke="#000000" stroke-width="1.7282" d="M427.625,203.014c0,0-1.727,7.774,6.911,7.774
				c0,0,4.32-1.727,19.005-6.91"/>
		</g>
		<g>
			<g>
				<path fill="none" stroke="#000000" stroke-width="1.7282" d="M572.758,276.445c-2.862,0-5.183-2.322-5.183-5.184v-25.917
					c0-2.862,2.321-5.184,5.183-5.184l0,0c2.863,0,5.184,2.322,5.184,5.184v25.917C577.942,274.123,575.621,276.445,572.758,276.445
					L572.758,276.445z"/>
				<path fill="none" stroke="#000000" stroke-width="1.7282" d="M572.758,258.303"/>
			</g>
			<g>
				<path fill="none" stroke="#000000" stroke-width="1.7282" d="M550.297,276.445c-2.862,0-5.183-2.322-5.183-5.184v-25.917
					c0-2.862,2.321-5.184,5.183-5.184l0,0c2.863,0,5.184,2.322,5.184,5.184v25.917C555.481,274.123,553.16,276.445,550.297,276.445
					L550.297,276.445z"/>
				<path fill="none" stroke="#000000" stroke-width="1.7282" d="M550.297,258.303"/>
			</g>
			<g>
				<path fill="none" stroke="#000000" stroke-width="1.7282" d="M463.908,276.445c-2.862,0-5.183-2.322-5.183-5.184v-25.917
					c0-2.862,2.321-5.184,5.183-5.184l0,0c2.863,0,5.184,2.322,5.184,5.184v25.917C469.092,274.123,466.771,276.445,463.908,276.445
					L463.908,276.445z"/>
				<path fill="none" stroke="#000000" stroke-width="1.7282" d="M463.908,258.303"/>
			</g>
			<polyline fill="none" stroke="#000000" stroke-width="1.7282" points="586.58,131.311 579.669,0 577.942,131.311 			"/>
			<path fill="none" stroke="#000000" stroke-width="1.7282" d="M453.541,64.36c0,0,17.71-2.591,37.147,18.574
				c0,0,4.32,23.325-0.864,35.419c0,0-14.686,24.189-36.283,25.917"/>
			<polyline fill="none" stroke="#000000" stroke-width="1.7282" points="489.825,83.797 570.167,83.797 553.753,88.98 
				491.553,93.3 			"/>
			<line fill="none" stroke="#000000" stroke-width="1.7282" x1="559.8" y1="87.253" x2="492.417" y2="88.98"/>
			<path fill="none" stroke="#000000" stroke-width="1.7282" d="M491.985,96.323c0,0-23.757,28.077-36.715,26.349
				c-15.868-2.116,28.076,3.887,28.076,3.887"/>
			<path fill="none" stroke="#000000" stroke-width="1.7282" d="M490.257,85.956c0,0-14.254,14.255-28.076,14.255"/>
			<polyline fill="none" stroke="#000000" stroke-width="1.7282" points="484.642,76.886 470.819,88.98 453.541,88.98 			"/>
			<path fill="none" stroke="#000000" stroke-width="1.7282" d="M482.482,75.158l-5.183,4.32c0,0-3.024-5.183-18.574-3.456
				l-3.456-11.231"/>
			<path fill="none" stroke="#000000" stroke-width="1.7282" d="M460.453,89.412c0,0,5.184,26.781-6.911,35.42"/>
			<path fill="none" stroke="#000000" stroke-width="1.7282" d="M476.003,136.495l99.347-5.184l156.364,6.911
				c0,0,112.305-11.23,175.369-6.911c0,0-54.425,3.456-59.608,6.911c0,0-88.117,17.278-116.625,15.551l-160.684-10.367
				l-104.53-0.864"/>
			<path fill="#FFFFFF" stroke="#000000" stroke-width="1.7282" d="M741.217,137.359c0,0-0.864-8.639-5.184,0l-7.775,17.277
				L741.217,137.359z"/>
			<path fill="none" stroke="#000000" stroke-width="1.7282" d="M584.853,145.133l-0.864,44.059c0,0,1.727,12.094-17.278,12.094
				H464.772l-10.367-4.319"/>
			<g>
				<rect x="453.541" y="142.542" fill="none" stroke="#000000" stroke-width="1.7282" width="13.822" height="54.425"/>
				<path fill="none" stroke="#000000" stroke-width="1.7282" d="M460.453,169.754"/>
			</g>
			<g>
				<rect x="467.364" y="142.542" fill="none" stroke="#000000" stroke-width="1.7282" width="50.106" height="53.561"/>
				<path fill="none" stroke="#000000" stroke-width="1.7282" d="M492.417,169.322"/>
			</g>
			<path fill="none" stroke="#000000" stroke-width="1.7282" d="M552.889,145.133l-0.863,44.923c0,0,0.863,10.366-17.278,10.366"/>
			<path fill="none" stroke="#000000" stroke-width="1.7282" d="M479.459,203.014c0,0,1.727,7.774-6.911,7.774
				c0,0-4.32-1.727-19.006-6.91"/>
		</g>
	</g>
	<line fill="none" stroke="#000000" stroke-width="2.5915" x1="158.092" y1="276.445" x2="749.856" y2="276.445"/>
</g>
</svg>
